<svg width="65" height="64" viewBox="0 0 65 64" fill="none" xmlns="http://www.w3.org/2000/svg">
<path d="M32.5036 62.9331C49.5877 62.9331 63.437 49.0838 63.437 31.9997C63.437 14.9157 49.5877 1.06641 32.5036 1.06641C15.4196 1.06641 1.57031 14.9157 1.57031 31.9997C1.57031 49.0838 15.4196 62.9331 32.5036 62.9331Z" fill="#F04438"/>
<path d="M37.0014 32.0002L44.8659 39.8648C45.1447 40.1446 45.3012 40.5236 45.3012 40.9186C45.3012 41.3137 45.1447 41.6926 44.8659 41.9725L42.4744 44.364C42.1946 44.6427 41.8156 44.7993 41.4206 44.7993C41.0255 44.7993 40.6466 44.6427 40.3667 44.364L32.5022 36.4994L24.6376 44.364C24.3578 44.6427 23.9788 44.7993 23.5838 44.7993C23.1887 44.7993 22.8098 44.6427 22.5299 44.364L20.1384 41.9725C19.8597 41.6926 19.7031 41.3137 19.7031 40.9186C19.7031 40.5236 19.8597 40.1446 20.1384 39.8648L28.003 32.0002L20.1384 24.1357C19.8597 23.8558 19.7031 23.4769 19.7031 23.0818C19.7031 22.6868 19.8597 22.3078 20.1384 22.028L22.5299 19.6365C22.8098 19.3577 23.1887 19.2012 23.5838 19.2012C23.9788 19.2012 24.3578 19.3577 24.6376 19.6365L32.5022 27.501L40.3667 19.6365C40.6466 19.3577 41.0255 19.2012 41.4206 19.2012C41.8156 19.2012 42.1946 19.3577 42.4744 19.6365L44.8659 22.028C45.1447 22.3078 45.3012 22.6868 45.3012 23.0818C45.3012 23.4769 45.1447 23.8558 44.8659 24.1357L37.0014 32.0002Z" fill="white"/>
</svg>
