<svg width="66" height="66" viewBox="0 0 66 66" fill="none" xmlns="http://www.w3.org/2000/svg">
<path d="M65.8125 33C65.8125 35.8 62.3727 38.1078 61.6836 40.6891C60.9727 43.3578 62.7719 47.0766 61.4211 49.4117C60.0484 51.7852 55.9195 52.0695 53.9945 53.9945C52.0695 55.9195 51.7852 60.0484 49.4117 61.4211C47.0766 62.7719 43.3578 60.9727 40.6891 61.6836C38.1078 62.3727 35.8 65.8125 33 65.8125C30.2 65.8125 27.8922 62.3727 25.3109 61.6836C22.6422 60.9727 18.9234 62.7719 16.5883 61.4211C14.2148 60.0484 13.9305 55.9195 12.0055 53.9945C10.0805 52.0695 5.95156 51.7852 4.57891 49.4117C3.22812 47.0766 5.02734 43.3578 4.31641 40.6891C3.62734 38.1078 0.1875 35.8 0.1875 33C0.1875 30.2 3.62734 27.8922 4.31641 25.3109C5.02734 22.6422 3.22812 18.9234 4.57891 16.5883C5.95156 14.2148 10.0805 13.9305 12.0055 12.0055C13.9305 10.0805 14.2148 5.95156 16.5883 4.57891C18.9234 3.22812 22.6422 5.02734 25.3109 4.31641C27.8922 3.62734 30.2 0.1875 33 0.1875C35.8 0.1875 38.1078 3.62734 40.6891 4.31641C43.3578 5.02734 47.0766 3.22812 49.4117 4.57891C51.7852 5.95156 52.0695 10.0805 53.9945 12.0055C55.9195 13.9305 60.0484 14.2148 61.4211 16.5883C62.7719 18.9234 60.9727 22.6422 61.6836 25.3109C62.3727 27.8922 65.8125 30.2 65.8125 33Z" fill="#00B69B"/>
<path d="M42.4822 23.2221L29.9916 35.7127L23.5166 29.2432C22.1111 27.8377 19.8307 27.8377 18.4252 29.2432C17.0197 30.6486 17.0197 32.9291 18.4252 34.3346L27.5088 43.4182C28.876 44.7854 31.0963 44.7854 32.4635 43.4182L47.5682 28.3135C48.9736 26.908 48.9736 24.6275 47.5682 23.2221C46.1627 21.8166 43.8877 21.8166 42.4822 23.2221Z" fill="white"/>
</svg>
