<svg width="24" height="24" viewBox="0 0 24 24" fill="none" xmlns="http://www.w3.org/2000/svg">
<path d="M23 12.1289V19.5625C23 21.458 21.458 23 19.5625 23H4.4375C2.54201 23 1 21.458 1 19.5625V4.4375C1 2.54201 2.54201 1 4.4375 1H11.9141C12.3887 1 12.7734 1.3847 12.7734 1.85938C12.7734 2.33405 12.3887 2.71875 11.9141 2.71875H4.4375C3.48984 2.71875 2.71875 3.48984 2.71875 4.4375V19.5625C2.71875 20.5102 3.48984 21.2812 4.4375 21.2812H19.5625C20.5102 21.2812 21.2812 20.5102 21.2812 19.5625V12.1289C21.2812 11.6542 21.666 11.2695 22.1406 11.2695C22.6153 11.2695 23 11.6542 23 12.1289ZM12.7377 8.98296C12.754 9.01669 12.7723 9.04959 12.7926 9.08081C12.8577 9.18102 13.0096 9.41096 13.1811 9.64645L10.3611 12.4664C10.0255 12.8021 10.0255 13.3463 10.3611 13.6818C10.5288 13.8497 10.7489 13.9336 10.9688 13.9336C11.1886 13.9336 11.4087 13.8497 11.5764 13.682L13.1323 12.1261C13.1692 12.1935 13.205 12.2615 13.2382 12.3275C13.3923 12.6526 13.4703 12.9804 13.4703 13.3022C13.4703 14.1813 12.968 15.1525 12.017 16.1117L11.9377 16.1804C11.9063 16.2076 11.877 16.237 11.8498 16.2683L11.7815 16.3472C10.8214 17.2984 9.85039 17.8008 8.97171 17.8008C8.48714 17.8008 8.03899 17.6514 7.60359 17.3446C7.58798 17.3308 7.57187 17.3174 7.55542 17.3046L7.47183 17.2407C7.34763 17.1455 7.22476 17.0374 7.10677 16.9194C6.52501 16.3385 6.24219 15.7339 6.24219 15.0713C6.24219 14.1919 6.74472 13.2207 7.69574 12.2613L7.77513 12.1927C7.80618 12.1657 7.83539 12.1366 7.86224 12.1056L7.93089 12.0264C8.68335 11.2806 9.41264 10.8174 10.099 10.6493C10.5599 10.5365 10.8422 10.0713 10.7292 9.6102C10.6164 9.14929 10.1513 8.86697 9.69026 8.97977C8.68822 9.22516 7.68063 9.84787 6.69521 10.8313C6.68044 10.8461 6.66617 10.8612 6.65257 10.8769L6.60339 10.9337L6.54666 10.9828C6.53088 10.9964 6.51561 11.0107 6.50101 11.0253C5.20724 12.3211 4.52344 13.7201 4.52344 15.0713C4.52344 16.1977 4.98401 17.2288 5.89223 18.1356C6.0631 18.3063 6.24269 18.4641 6.42615 18.6048L6.45384 18.6259C6.47818 18.6487 6.50403 18.6702 6.53105 18.69C7.27864 19.2406 8.09975 19.5195 8.97171 19.5195C10.322 19.5195 11.721 18.8357 13.0175 17.5421C13.0324 17.5272 13.0467 17.5117 13.0605 17.4958L13.1091 17.4396L13.1657 17.3907C13.1815 17.377 13.1969 17.3627 13.2117 17.3479C14.5053 16.0522 15.1891 14.6532 15.1891 13.3022C15.1891 12.7196 15.0533 12.14 14.7856 11.5795C14.7834 11.5748 14.7812 11.5701 14.7789 11.5656C14.7183 11.4444 14.5707 11.1584 14.3893 10.8689L17.1623 8.09589C17.4978 7.76036 17.4978 7.2162 17.1623 6.88051C16.8266 6.54498 16.2824 6.54498 15.9469 6.88051L14.4143 8.41312C14.3631 8.3391 14.3126 8.26424 14.2658 8.19341C14.1244 7.88205 14.0529 7.56834 14.0529 7.26018C14.0529 6.381 14.5555 5.41 15.5063 4.45059L15.5857 4.38194C15.6171 4.35475 15.6465 4.32555 15.6735 4.29416L15.7416 4.2151C16.7019 3.26408 17.673 2.76155 18.5516 2.76155C19.0361 2.76155 19.4845 2.91093 19.9198 3.21793C19.9355 3.23169 19.9514 3.24495 19.968 3.25771L20.0514 3.32166C20.1755 3.41682 20.2983 3.52492 20.4167 3.64291C20.9984 4.22383 21.2812 4.82841 21.2812 5.49124C21.2812 6.37042 20.7787 7.34158 19.8277 8.30099L19.7483 8.36981C19.7173 8.39667 19.688 8.42587 19.6612 8.45692L19.5927 8.53598C18.8547 9.26662 18.1039 9.71863 17.361 9.87959C16.8973 9.97997 16.6025 10.4375 16.7031 10.9013C16.7902 11.3039 17.1463 11.5789 17.5421 11.5789C17.6024 11.5789 17.6635 11.5727 17.7247 11.5592C18.8022 11.3261 19.8463 10.7109 20.8284 9.73105C20.8432 9.71645 20.8573 9.70117 20.871 9.68539L20.92 9.62866L20.9769 9.57948C20.9926 9.56589 21.0078 9.55162 21.0224 9.53702C22.3162 8.24141 23 6.84241 23 5.49124C23 4.36482 22.5394 3.33374 21.6312 2.42686C21.4602 2.256 21.2806 2.09822 21.0973 1.95773L21.0694 1.93625C21.0451 1.91359 21.0192 1.89227 20.9924 1.87247C20.245 1.32193 19.4237 1.0428 18.5517 1.0428C17.2016 1.0428 15.8026 1.72661 14.506 3.02037C14.4912 3.03514 14.4767 3.05058 14.463 3.06653L14.4143 3.12292L14.3576 3.17194C14.3418 3.18553 14.3265 3.1998 14.3118 3.21457C13.0182 4.51018 12.3344 5.90935 12.3344 7.26035C12.3344 7.84294 12.47 8.42252 12.7377 8.98296Z" fill="white"/>
</svg>
