<svg width="24" height="24" viewBox="0 0 24 24" fill="none" xmlns="http://www.w3.org/2000/svg">
<path fill-rule="evenodd" clip-rule="evenodd" d="M11.9982 8.36377C9.99073 8.36377 8.36328 9.99176 8.36328 12C8.36328 14.0082 9.99073 15.6362 11.9982 15.6362C14.0058 15.6362 15.6332 14.0082 15.6332 12C15.6332 9.99176 14.0058 8.36377 11.9982 8.36377ZM9.81728 12C9.81728 10.7951 10.7937 9.81826 11.9982 9.81826C13.2028 9.81826 14.1792 10.7951 14.1792 12C14.1792 13.205 13.2028 14.1817 11.9982 14.1817C10.7937 14.1817 9.81728 13.205 9.81728 12Z" fill="white"/>
<path fill-rule="evenodd" clip-rule="evenodd" d="M15.31 3.49835C14.3596 0.167215 9.64034 0.167216 8.68999 3.49835C8.39554 4.53045 7.33553 5.14265 6.29477 4.88169C2.9357 4.03942 0.576053 8.12781 2.98477 10.6167C3.73108 11.3879 3.73108 12.6122 2.98477 13.3833C0.576053 15.8722 2.9357 19.9606 6.29477 19.1183C7.33553 18.8574 8.39554 19.4695 8.68999 20.5016C9.64034 23.8328 14.3596 23.8328 15.31 20.5016C15.6044 19.4695 16.6645 18.8574 17.7053 19.1183C21.0643 19.9606 23.4239 15.8722 21.0152 13.3833C20.2689 12.6122 20.2689 11.3879 21.0152 10.6167C23.4239 8.12781 21.0643 4.03942 17.7053 4.88169C16.6645 5.14265 15.6044 4.53045 15.31 3.49835ZM10.0881 3.8975C10.6371 1.97347 13.3629 1.97347 13.9118 3.8975C14.4216 5.68442 16.2569 6.74434 18.0588 6.29252C19.9989 5.80603 21.3618 8.16745 19.9706 9.60499C18.6785 10.9401 18.6785 13.0599 19.9706 14.395C21.3618 15.8326 19.9989 18.194 18.0588 17.7075C16.2569 17.2557 14.4216 18.3156 13.9118 20.1025C13.3629 22.0265 10.6371 22.0265 10.0881 20.1025C9.57838 18.3156 7.74315 17.2557 5.94124 17.7075C4.00108 18.194 2.63818 15.8326 4.02942 14.395C5.32153 13.0599 5.32153 10.9401 4.02942 9.60499C2.63818 8.16745 4.00108 5.80603 5.94124 6.29252C7.74315 6.74434 9.57838 5.68442 10.0881 3.8975Z" fill="white"/>
</svg>
