<svg width="24" height="24" viewBox="0 0 24 24" fill="none" xmlns="http://www.w3.org/2000/svg">
<path d="M12 2.63281C14.1661 2.6341 16.0494 2.74539 17.757 2.97227C19.3666 3.19785 20.8017 4.63301 21.0277 6.24262C21.2546 7.94891 21.3659 9.83223 21.3672 12C21.3659 14.1673 21.2546 16.0502 21.0277 17.7565C20.8021 19.3661 19.367 20.8017 17.7574 21.0273C16.0498 21.2542 14.1661 21.3655 12.0013 21.3668C9.83438 21.3655 7.95105 21.2542 6.24305 21.0273C4.63344 20.8017 3.19828 19.3666 2.97227 17.757C2.74539 16.0498 2.6341 14.1661 2.63281 12.0004C2.6341 9.83266 2.74539 7.94934 2.97227 6.24262C3.19785 4.63301 4.63301 3.19742 6.24262 2.97184C7.9502 2.74496 9.83352 2.63367 12 2.63238M12 1C9.36344 1.00172 7.435 1.16629 6.02262 1.35449C3.68555 1.67891 1.67891 3.68555 1.35449 6.02262C1.16629 7.435 1.00172 9.36387 1 12C1.00172 14.6361 1.16629 16.5654 1.35449 17.9774C1.67891 20.3145 3.68555 22.3211 6.02262 22.6455C7.435 22.8337 9.36387 22.9983 12 23C14.6361 22.9983 16.565 22.8337 17.9774 22.6455C20.3145 22.3211 22.3211 20.3145 22.6455 17.9774C22.8337 16.565 22.9983 14.6361 23 12C22.9983 9.36387 22.8337 7.435 22.6455 6.02262C22.3211 3.68555 20.3145 1.67891 17.9774 1.35449C16.5654 1.16629 14.6366 1.00172 12 1Z" fill="white"/>
<path d="M5.99631 10.0428C5.78748 10.0428 5.57822 9.96333 5.41881 9.80392C5.09998 9.48509 5.09998 8.96817 5.41881 8.64935L8.95041 5.11774C9.47549 4.59267 10.3297 4.59267 10.8548 5.11774L13.8089 8.07185L17.1428 4.7379C17.4617 4.41907 17.9786 4.41907 18.2974 4.7379C18.6162 5.05673 18.6162 5.57364 18.2974 5.89247L14.7611 9.4288C14.236 9.95388 13.3818 9.95388 12.8567 9.4288L9.9026 6.4747L6.57338 9.80392C6.41397 9.96333 6.20514 10.0433 5.99588 10.0433L5.99631 10.0428Z" fill="white"/>
<path d="M6.22656 19.4711C5.77582 19.4711 5.41016 19.1054 5.41016 18.6547V13.9595C5.41016 13.5087 5.77582 13.1431 6.22656 13.1431C6.6773 13.1431 7.04297 13.5087 7.04297 13.9595V18.6547C7.04297 19.1054 6.6773 19.4711 6.22656 19.4711Z" fill="white"/>
<path d="M14.7656 19.4711C14.3149 19.4711 13.9492 19.1054 13.9492 18.6547V13.9595C13.9492 13.5087 14.3149 13.1431 14.7656 13.1431C15.2164 13.1431 15.582 13.5087 15.582 13.9595V18.6547C15.582 19.1054 15.2164 19.4711 14.7656 19.4711Z" fill="white"/>
<path d="M10.4961 19.4711C10.0454 19.4711 9.67969 19.1054 9.67969 18.6547V11.0698C9.67969 10.6191 10.0454 10.2534 10.4961 10.2534C10.9468 10.2534 11.3125 10.6191 11.3125 11.0698V18.6547C11.3125 19.1054 10.9468 19.4711 10.4961 19.4711Z" fill="white"/>
</svg>
