<svg width="24" height="24" viewBox="0 0 24 24" fill="none" xmlns="http://www.w3.org/2000/svg">
<path fill-rule="evenodd" clip-rule="evenodd" d="M14.7475 1.89471C14.9595 1.89471 15.1628 1.97867 15.3128 2.12813C15.4627 2.27758 15.5469 2.48029 15.5469 2.69165C15.5469 2.90302 15.4627 3.10572 15.3128 3.25518C15.1628 3.40464 14.9595 3.4886 14.7475 3.4886H7.00019C4.32681 3.4886 2.59785 5.32052 2.59785 8.15765V16.7456C2.59785 19.6199 4.28524 21.405 7.00019 21.405H16.1716C18.845 21.405 20.5728 19.5774 20.5728 16.7456V9.267C20.5728 9.05564 20.6571 8.85293 20.807 8.70347C20.9569 8.55402 21.1603 8.47005 21.3723 8.47005C21.5843 8.47005 21.7877 8.55402 21.9376 8.70347C22.0875 8.85293 22.1718 9.05564 22.1718 9.267V16.7477C22.1718 20.488 19.7606 23 16.1705 23H7.00126C3.41223 23 1 20.487 1 16.7466V8.15765C1 4.412 3.41223 1.89471 7.00126 1.89471H14.7485H14.7475ZM17.0019 9.15224C17.1696 9.28161 17.2788 9.47206 17.3056 9.68168C17.3323 9.89131 17.2745 10.103 17.1448 10.2701L14.0216 14.2867C13.9573 14.3699 13.877 14.4394 13.7856 14.4914C13.6941 14.5434 13.5931 14.5768 13.4886 14.5895C13.3838 14.6032 13.2774 14.5957 13.1756 14.5676C13.0738 14.5395 12.9787 14.4913 12.8959 14.4259L9.8921 12.0723L7.19526 15.5671C7.06606 15.7348 6.87534 15.8445 6.66504 15.872C6.45474 15.8995 6.2421 15.8426 6.07389 15.7138C5.90568 15.585 5.79568 15.3949 5.7681 15.1852C5.74051 14.9756 5.79759 14.7636 5.92679 14.5959L9.11716 10.4624C9.18163 10.3789 9.26206 10.309 9.35381 10.2567C9.44556 10.2044 9.54681 10.1708 9.65168 10.1577C9.75656 10.1447 9.86299 10.1525 9.96482 10.1807C10.0666 10.2089 10.1619 10.257 10.2449 10.3222L13.2509 12.6758L15.8806 9.29357C15.9445 9.21036 16.0243 9.14062 16.1154 9.08836C16.2066 9.03611 16.3072 9.00239 16.4115 8.98915C16.5157 8.9759 16.6216 8.98341 16.723 9.01122C16.8243 9.03903 16.9191 9.0866 17.0019 9.15118V9.15224ZM20.1518 1C20.907 1.00056 21.6311 1.29988 22.1652 1.83222C22.6992 2.36456 22.9994 3.08641 23 3.83926C22.9994 4.5922 22.6992 5.31416 22.1652 5.84667C21.6312 6.37918 20.9071 6.67873 20.1518 6.67958C19.3966 6.67845 18.6726 6.37881 18.1387 5.84636C17.6048 5.31391 17.3044 4.59211 17.3036 3.83926C17.3044 3.0865 17.6048 2.36481 18.1388 1.83253C18.6727 1.30025 19.3967 1.00084 20.1518 1V1ZM20.1518 2.59389C19.8266 2.60336 19.518 2.73878 19.2914 2.97139C19.0647 3.20401 18.938 3.51552 18.938 3.83979C18.938 4.16406 19.0647 4.47557 19.2914 4.70818C19.518 4.9408 19.8266 5.07622 20.1518 5.08568C20.477 5.07622 20.7856 4.9408 21.0122 4.70818C21.2389 4.47557 21.3656 4.16406 21.3656 3.83979C21.3656 3.51552 21.2389 3.20401 21.0122 2.97139C20.7856 2.73878 20.477 2.60336 20.1518 2.59389Z" fill="white"/>
</svg>
