<svg width="24" height="24" viewBox="0 0 24 24" fill="none" xmlns="http://www.w3.org/2000/svg">
<g clip-path="url(#clip0_131_19943)">
<path d="M17 22C14.243 22 12 19.757 12 17C12 14.243 14.243 12 17 12C19.757 12 22 14.243 22 17C22 19.757 19.757 22 17 22ZM17 13.5C15.07 13.5 13.5 15.07 13.5 17C13.5 18.93 15.07 20.5 17 20.5C18.93 20.5 20.5 18.93 20.5 17C20.5 15.07 18.93 13.5 17 13.5Z" fill="#8200BA"/>
<path d="M23.2498 24C23.0578 24 22.8657 23.927 22.7197 23.78L19.4698 20.53C19.1768 20.237 19.1768 19.762 19.4698 19.469C19.7628 19.176 20.2378 19.176 20.5308 19.469L23.7808 22.719C24.0738 23.012 24.0738 23.487 23.7808 23.78C23.6338 23.927 23.4418 24 23.2498 24Z" fill="#8200BA"/>
<path d="M10.53 21H2.75C1.233 21 0 19.767 0 18.25V2.75C0 1.233 1.233 0 2.75 0H14.25C15.767 0 17 1.233 17 2.75V9.79C17 10.204 16.664 10.54 16.25 10.54C15.836 10.54 15.5 10.204 15.5 9.79V2.75C15.5 2.061 14.939 1.5 14.25 1.5H2.75C2.061 1.5 1.5 2.061 1.5 2.75V18.25C1.5 18.939 2.061 19.5 2.75 19.5H10.53C10.944 19.5 11.28 19.836 11.28 20.25C11.28 20.664 10.944 21 10.53 21Z" fill="#8200BA"/>
<path d="M13.25 9.5H3.75C3.336 9.5 3 9.164 3 8.75C3 8.336 3.336 8 3.75 8H13.25C13.664 8 14 8.336 14 8.75C14 9.164 13.664 9.5 13.25 9.5Z" fill="#8200BA"/>
<path d="M9.25 13.5H3.75C3.336 13.5 3 13.164 3 12.75C3 12.336 3.336 12 3.75 12H9.25C9.664 12 10 12.336 10 12.75C10 13.164 9.664 13.5 9.25 13.5Z" fill="#8200BA"/>
<path d="M8.25 5.5H3.75C3.336 5.5 3 5.164 3 4.75C3 4.336 3.336 4 3.75 4H8.25C8.664 4 9 4.336 9 4.75C9 5.164 8.664 5.5 8.25 5.5Z" fill="#8200BA"/>
</g>
<defs>
<clipPath id="clip0_131_19943">
<rect width="24" height="24" fill="white"/>
</clipPath>
</defs>
</svg>
