<svg width="36" height="36" viewBox="0 0 36 36" fill="none" xmlns="http://www.w3.org/2000/svg">
<rect width="36" height="36" rx="8" fill="#F7E9FF"/>
<path fill-rule="evenodd" clip-rule="evenodd" d="M20.0529 10.8652C17.4658 14.6794 12.6705 15.9162 12.6705 15.9162C12.3027 16.0104 11.928 15.7883 11.8338 15.4205C11.7396 15.0527 11.9617 14.678 12.3295 14.5838C12.3295 14.5838 16.8959 13.4268 19.1282 9.76172L17.7759 9.75003C17.3964 9.74659 17.0911 9.43584 17.0946 9.05634C17.098 8.67684 17.4088 8.37159 17.7882 8.37503L20.7308 8.40115C21.1061 8.4039 21.4093 8.70709 21.4121 9.08247L21.4375 11.9569C21.4409 12.3364 21.1357 12.6472 20.7562 12.6506C20.3767 12.654 20.0659 12.3488 20.0625 11.9693L20.0529 10.8652ZM14.2084 27.625H11.125C10.3653 27.625 9.75 27.0097 9.75 26.25V20.0625C9.75 19.3028 10.3653 18.6875 11.125 18.6875H14.2084V27.625ZM15.5834 18.0241C15.5834 17.2513 16.2098 16.625 16.9825 16.625H18.9604C19.7332 16.625 20.3595 17.2513 20.3595 18.0241V27.625H15.5834V18.0241ZM21.7345 15.2741C21.7345 14.5013 22.3608 13.875 23.1329 13.875H24.875C25.6347 13.875 26.25 14.4903 26.25 15.25V26.25C26.25 27.0097 25.6347 27.625 24.875 27.625H21.7345V15.2741Z" fill="#7713EC"/>
</svg>
