<svg width="22" height="22" viewBox="0 0 22 22" fill="none" xmlns="http://www.w3.org/2000/svg">
<path d="M16.0273 9.99451C16.4545 9.99451 16.8008 9.64823 16.8008 9.22107C16.8008 8.79391 16.4545 8.44763 16.0273 8.44763C15.6002 8.44763 15.2539 8.79391 15.2539 9.22107C15.2539 9.64823 15.6002 9.99451 16.0273 9.99451Z" fill="#8200BA"/>
<path d="M17.8059 2.64685H16.8004V1.87341C16.8004 1.44624 16.4541 1.09998 16.027 1.09998C15.5998 1.09998 15.2535 1.44624 15.2535 1.87341V2.64685H11.7344V1.87341C11.7344 1.44624 11.3881 1.09998 10.9609 1.09998C10.5338 1.09998 10.1875 1.44624 10.1875 1.87341V2.64685H6.70703V1.87341C6.70703 1.44624 6.36076 1.09998 5.93359 1.09998C5.50642 1.09998 5.16016 1.44624 5.16016 1.87341V2.64685H4.19336C2.48747 2.64685 1.09961 4.03471 1.09961 5.7406V17.8062C1.09961 19.5121 2.48747 20.9 4.19336 20.9H10.1102C10.5373 20.9 10.8836 20.5537 10.8836 20.1265C10.8836 19.6994 10.5373 19.3531 10.1102 19.3531H4.19336C3.34041 19.3531 2.64648 18.6592 2.64648 17.8062V5.7406C2.64648 4.88765 3.34041 4.19373 4.19336 4.19373H5.16016V4.96716C5.16016 5.39433 5.50642 5.7406 5.93359 5.7406C6.36076 5.7406 6.70703 5.39433 6.70703 4.96716V4.19373H10.1875V4.96716C10.1875 5.39433 10.5338 5.7406 10.9609 5.7406C11.3881 5.7406 11.7344 5.39433 11.7344 4.96716V4.19373H15.2535V4.96716C15.2535 5.39433 15.5998 5.7406 16.027 5.7406C16.4541 5.7406 16.8004 5.39433 16.8004 4.96716V4.19373H17.8059C18.6588 4.19373 19.3527 4.88765 19.3527 5.7406V10.1492C19.3527 10.5764 19.699 10.9226 20.1262 10.9226C20.5533 10.9226 20.8996 10.5764 20.8996 10.1492V5.7406C20.8996 4.03471 19.5118 2.64685 17.8059 2.64685Z" fill="#8200BA"/>
<path d="M16.2203 11.5414C13.6401 11.5414 11.541 13.6405 11.541 16.2207C11.541 18.8009 13.6401 20.9 16.2203 20.9C18.8005 20.9 20.8996 18.8009 20.8996 16.2207C20.8996 13.6405 18.8005 11.5414 16.2203 11.5414ZM16.2203 19.3531C14.4931 19.3531 13.0879 17.9479 13.0879 16.2207C13.0879 14.4934 14.4931 13.0883 16.2203 13.0883C17.9475 13.0883 19.3527 14.4934 19.3527 16.2207C19.3527 17.9479 17.9475 19.3531 16.2203 19.3531Z" fill="#8200BA"/>
<path d="M17.3422 15.4472H16.9941V14.6351C16.9941 14.208 16.6479 13.8617 16.2207 13.8617C15.7935 13.8617 15.4473 14.208 15.4473 14.6351V16.2207C15.4473 16.6478 15.7935 16.9941 16.2207 16.9941H17.3422C17.7694 16.9941 18.1156 16.6478 18.1156 16.2207C18.1156 15.7935 17.7694 15.4472 17.3422 15.4472Z" fill="#8200BA"/>
<path d="M12.6621 9.99451C13.0893 9.99451 13.4355 9.64823 13.4355 9.22107C13.4355 8.79391 13.0893 8.44763 12.6621 8.44763C12.235 8.44763 11.8887 8.79391 11.8887 9.22107C11.8887 9.64823 12.235 9.99451 12.6621 9.99451Z" fill="#8200BA"/>
<path d="M9.29883 13.359C9.72599 13.359 10.0723 13.0127 10.0723 12.5856C10.0723 12.1584 9.72599 11.8121 9.29883 11.8121C8.87167 11.8121 8.52539 12.1584 8.52539 12.5856C8.52539 13.0127 8.87167 13.359 9.29883 13.359Z" fill="#8200BA"/>
<path d="M5.93359 9.99451C6.36075 9.99451 6.70703 9.64823 6.70703 9.22107C6.70703 8.79391 6.36075 8.44763 5.93359 8.44763C5.50644 8.44763 5.16016 8.79391 5.16016 9.22107C5.16016 9.64823 5.50644 9.99451 5.93359 9.99451Z" fill="#8200BA"/>
<path d="M5.93359 13.359C6.36075 13.359 6.70703 13.0127 6.70703 12.5856C6.70703 12.1584 6.36075 11.8121 5.93359 11.8121C5.50644 11.8121 5.16016 12.1584 5.16016 12.5856C5.16016 13.0127 5.50644 13.359 5.93359 13.359Z" fill="#8200BA"/>
<path d="M5.93359 16.7234C6.36075 16.7234 6.70703 16.3771 6.70703 15.95C6.70703 15.5228 6.36075 15.1765 5.93359 15.1765C5.50644 15.1765 5.16016 15.5228 5.16016 15.95C5.16016 16.3771 5.50644 16.7234 5.93359 16.7234Z" fill="#8200BA"/>
<path d="M9.29883 16.7234C9.72599 16.7234 10.0723 16.3771 10.0723 15.95C10.0723 15.5228 9.72599 15.1765 9.29883 15.1765C8.87167 15.1765 8.52539 15.5228 8.52539 15.95C8.52539 16.3771 8.87167 16.7234 9.29883 16.7234Z" fill="#8200BA"/>
<path d="M9.29883 9.99451C9.72599 9.99451 10.0723 9.64823 10.0723 9.22107C10.0723 8.79391 9.72599 8.44763 9.29883 8.44763C8.87167 8.44763 8.52539 8.79391 8.52539 9.22107C8.52539 9.64823 8.87167 9.99451 9.29883 9.99451Z" fill="#8200BA"/>
</svg>
