<svg width="20" height="20" viewBox="0 0 20 20" fill="none" xmlns="http://www.w3.org/2000/svg">
<path d="M15.2454 1.04736H4.7546C2.68429 1.04736 1 2.73966 1 4.81982V15.2749C1 17.3551 2.68429 19.0474 4.7546 19.0474H15.2454C17.3157 19.0474 19 17.3551 19 15.2749V4.81982C19 2.73966 17.3157 1.04736 15.2454 1.04736ZM17.6246 15.2749C17.6246 16.5931 16.5573 17.6654 15.2454 17.6654H4.7546C3.44267 17.6654 2.37538 16.5931 2.37538 15.2749V4.81982C2.37538 3.5017 3.44267 2.42928 4.7546 2.42928H15.2454C16.5573 2.42928 17.6247 3.50165 17.6247 4.81982V15.2749H17.6246Z" fill="#EB3D4D"/>
<path d="M14.1378 5.94181C13.8701 5.67109 13.4347 5.66966 13.1652 5.93863L10.1147 8.98373L7.06263 5.91716C6.79411 5.64732 6.35866 5.64732 6.0901 5.91716C5.82153 6.18701 5.82153 6.62448 6.0901 6.89432L9.13895 9.95771L6.11458 12.9767C5.84514 13.2457 5.84377 13.6831 6.11141 13.9538C6.24588 14.0898 6.42253 14.1578 6.59931 14.1578C6.77453 14.1578 6.94985 14.0909 7.08399 13.957L10.1115 10.9349L13.1407 13.9784C13.275 14.1134 13.451 14.1809 13.6269 14.1809C13.8029 14.1809 13.979 14.1134 14.1132 13.9784C14.3818 13.7086 14.3818 13.2711 14.1132 13.0013L11.0872 9.96089L14.1346 6.91892C14.404 6.65 14.4054 6.21253 14.1378 5.94181Z" fill="#EB3D4D"/>
</svg>
