<svg width="36" height="36" viewBox="0 0 36 36" fill="none" xmlns="http://www.w3.org/2000/svg">
<rect width="36" height="36" rx="8" fill="#FFF0EA"/>
<path d="M25.78 8.70538C25.5282 8.45363 25.1202 8.45372 24.8684 8.70538C24.6168 8.9571 24.6168 9.36517 24.8685 9.61688C26.7027 11.451 27.7128 13.8897 27.7128 16.4836C27.7128 16.8395 28.0014 17.1281 28.3573 17.1281C28.7133 17.1281 29.0019 16.8395 29.0019 16.4836C29.0019 13.5453 27.8576 10.783 25.78 8.70538Z" fill="#FF9F43"/>
<path d="M11.1333 8.70538C10.8815 8.45363 10.4735 8.45372 10.2218 8.70538C8.14421 10.7831 7 13.5454 7 16.4835C7 16.8395 7.28858 17.1281 7.64453 17.1281C8.00048 17.1281 8.28906 16.8395 8.28906 16.4835C8.28906 13.8897 9.29917 11.4511 11.1333 9.61688C11.385 9.36517 11.385 8.9571 11.1333 8.70538Z" fill="#FF9F43"/>
<path d="M22.9153 10.658C22.6636 10.9097 22.6636 11.3178 22.9154 11.5695C24.228 12.8821 24.951 14.6273 24.951 16.4838C24.951 16.8397 25.2396 17.1283 25.5955 17.1283C25.9515 17.1283 26.24 16.8397 26.24 16.4838C26.24 14.283 25.383 12.214 23.8268 10.658C23.5751 10.4063 23.167 10.4063 22.9153 10.658Z" fill="#FF9F43"/>
<path d="M13.0861 10.658C12.8344 10.4063 12.4263 10.4063 12.1746 10.658C10.6186 12.2142 9.76172 14.283 9.76172 16.4834C9.76172 16.8394 10.0503 17.1279 10.4062 17.1279C10.7622 17.1279 11.0508 16.8394 11.0508 16.4834C11.0508 14.6273 11.7736 12.8821 13.0862 11.5695C13.3378 11.3178 13.3378 10.9096 13.0861 10.658Z" fill="#FF9F43"/>
<path d="M23.4755 21.1639V17.8642C23.4755 16.6606 23.0923 15.5185 22.3674 14.5614C21.7614 13.7615 20.9351 13.1366 20.0067 12.7688C19.8774 11.7757 19.0261 11.0063 17.9984 11.0063C16.9707 11.0063 16.1193 11.7757 15.9901 12.7688C15.0617 13.1366 14.2354 13.7615 13.6295 14.5614C12.9045 15.5185 12.5213 16.6606 12.5213 17.8642V21.1639L11.2087 23.7892C11.1088 23.989 11.1194 24.2263 11.2368 24.4163C11.3543 24.6063 11.5618 24.722 11.7851 24.722H24.2117C24.4351 24.722 24.6425 24.6063 24.76 24.4163C24.8774 24.2263 24.8881 23.989 24.7882 23.7892L23.4755 21.1639Z" fill="#FF9F43"/>
<path d="M18.001 27.4837C19.1614 27.4837 20.1875 26.9 20.8027 26.0112H15.1992C15.8145 26.9 16.8406 27.4837 18.001 27.4837Z" fill="#FF9F43"/>
</svg>
