<svg width="20" height="20" viewBox="0 0 20 20" fill="none" xmlns="http://www.w3.org/2000/svg">
<g clip-path="url(#clip0_793_41657)">
<path d="M10.765 13.8238L7.70487 16.884C7.70487 16.884 7.70487 16.8841 7.7048 16.8841C7.7048 16.8841 7.7048 16.8841 7.70473 16.8841C6.43929 18.1497 4.38014 18.1497 3.11455 16.8841C2.50145 16.271 2.16389 15.4559 2.16389 14.589C2.16389 13.7221 2.50145 12.9071 3.11434 12.294C3.11441 12.294 3.11448 12.2939 3.11455 12.2938L6.17465 9.23365C6.59711 8.81111 6.59711 8.12603 6.17457 7.70357C5.75211 7.2811 5.06703 7.2811 4.64449 7.70357L1.5844 10.7637C1.58418 10.7639 1.58396 10.7642 1.58375 10.7645C0.562466 11.7861 0 13.1444 0 14.589C0 16.0339 0.562682 17.3924 1.58447 18.4142C2.63915 19.4688 4.02439 19.9962 5.40971 19.9962C6.79503 19.9962 8.18035 19.4688 9.23489 18.4142C9.23496 18.4142 9.23496 18.4141 9.23496 18.4141L12.2951 15.3539C12.7175 14.9314 12.7175 14.2464 12.295 13.8238C11.8726 13.4014 11.1876 13.4014 10.765 13.8238Z" fill="white"/>
<path d="M19.9989 5.40908C19.9989 3.96411 19.4361 2.60562 18.4143 1.58383C16.3051 -0.525377 12.8731 -0.525305 10.7639 1.58383C10.7639 1.58398 10.7637 1.58405 10.7636 1.5842L7.70362 4.64415C7.28109 5.06661 7.28109 5.75177 7.70362 6.17423C7.91496 6.38557 8.19179 6.49117 8.4687 6.49117C8.74553 6.49117 9.02251 6.3855 9.2337 6.17423L12.2937 3.11428C12.2938 3.11413 12.2939 3.11406 12.2941 3.11392C13.5595 1.84848 15.6187 1.84841 16.8843 3.11392C17.4973 3.72702 17.835 4.54215 17.835 5.40908C17.835 6.27593 17.4974 7.09092 16.8845 7.70402L16.8843 7.70424L13.8242 10.7644C13.4017 11.1869 13.4017 11.872 13.8242 12.2945C14.0355 12.5058 14.3124 12.6114 14.5892 12.6114C14.8662 12.6114 15.1431 12.5058 15.3543 12.2945L18.4144 9.23432C18.4146 9.23411 18.4149 9.23382 18.4151 9.2336C19.4364 8.21196 19.9989 6.85369 19.9989 5.40908Z" fill="white"/>
<path d="M6.17628 13.8247C6.38754 14.036 6.66445 14.1416 6.94128 14.1416C7.21819 14.1416 7.49509 14.036 7.70636 13.8247L13.8267 7.70435C14.2492 7.28189 14.2492 6.5968 13.8267 6.17427C13.4042 5.75181 12.7191 5.75181 12.2966 6.17427L6.17628 12.2945C5.75374 12.7171 5.75374 13.4022 6.17628 13.8247Z" fill="white"/>
</g>
<defs>
<clipPath id="clip0_793_41657">
<rect width="20" height="20" fill="white"/>
</clipPath>
</defs>
</svg>
