<svg width="20" height="20" viewBox="0 0 20 20" fill="none" xmlns="http://www.w3.org/2000/svg">
<path d="M17.5379 9.80586H16.641V1.59961C16.641 1.42773 16.5004 1.28711 16.3285 1.28711H3.67227C3.50039 1.28711 3.35977 1.42773 3.35977 1.59961V9.80586H2.46289C2.28789 9.80586 2.15039 9.94336 2.15039 10.1184V16.1309C2.15039 16.3059 2.28789 16.4434 2.46289 16.4434H3.35977V18.3996C3.35977 18.5715 3.50039 18.7121 3.67227 18.7121H16.3285C16.5004 18.7121 16.641 18.5715 16.641 18.3996V16.4434H17.5379C17.7129 16.4434 17.8504 16.3059 17.8504 16.1309V10.1184C17.8504 9.94336 17.7129 9.80586 17.5379 9.80586ZM16.016 18.0871H3.98477V16.4434H16.016V18.0871ZM6.39102 13.9215C6.52852 14.0871 6.70352 14.1652 6.92539 14.1652C7.08789 14.1652 7.22227 14.1152 7.33789 14.0121C7.45352 13.909 7.54102 13.7437 7.59414 13.5152C7.59727 13.4934 7.61289 13.4746 7.63164 13.4652C7.65039 13.4527 7.67227 13.4496 7.69414 13.4559L8.35039 13.6655C8.39102 13.6777 8.41289 13.7218 8.40039 13.7624C8.29727 14.1437 8.11914 14.4312 7.87227 14.6187C7.62227 14.8062 7.30664 14.8996 6.93164 14.8996C6.46602 14.8996 6.07852 14.7402 5.77539 14.4184C5.47852 14.1027 5.32539 13.6621 5.32539 13.1187C5.32539 12.5402 5.47852 12.084 5.77852 11.7621C6.08164 11.4405 6.48477 11.2746 6.97227 11.2746C7.40352 11.2746 7.75664 11.4059 8.02852 11.6587C8.19102 11.8118 8.31289 12.0305 8.39102 12.3121C8.39727 12.3337 8.39414 12.3559 8.38477 12.3743C8.37227 12.3934 8.35664 12.4059 8.33477 12.4087L7.66602 12.5715C7.64414 12.5746 7.62227 12.5715 7.60664 12.5621C7.58789 12.5496 7.57539 12.534 7.56914 12.5121C7.53477 12.3559 7.46289 12.234 7.35039 12.1434C7.23789 12.0527 7.10352 12.0087 6.93789 12.0087C6.71289 12.0087 6.53477 12.0868 6.39414 12.2496C6.25039 12.4152 6.17852 12.6868 6.17852 13.0684C6.17852 13.4715 6.25039 13.759 6.39102 13.9215ZM10.6566 13.6371C10.6191 13.5934 10.5473 13.5527 10.4473 13.5152C10.3723 13.4902 10.191 13.4402 9.91289 13.3715C9.53164 13.2777 9.27227 13.1621 9.11289 13.0215C8.89102 12.8215 8.77852 12.5746 8.77852 12.2902C8.77852 12.1027 8.83164 11.9277 8.93789 11.7652C9.04102 11.6055 9.19414 11.4809 9.39102 11.3962C9.58164 11.3149 9.81289 11.2743 10.0816 11.2743C10.5191 11.2743 10.8566 11.3743 11.0848 11.5712C11.3129 11.768 11.4348 12.0365 11.4473 12.3649C11.4473 12.4087 11.4129 12.4462 11.3723 12.4462L10.6941 12.4774C10.6535 12.4774 10.6191 12.4493 10.6129 12.4118C10.5879 12.259 10.5348 12.1493 10.4566 12.0868C10.3754 12.0246 10.2473 11.9899 10.0754 11.9899C9.89727 11.9899 9.75664 12.0274 9.65977 12.0962C9.60664 12.1337 9.58164 12.1809 9.58164 12.243C9.58164 12.2996 9.60664 12.3462 9.65664 12.3868C9.70664 12.4309 9.85039 12.5024 10.2473 12.5962C10.5816 12.6743 10.8316 12.7559 10.9973 12.843C11.166 12.9337 11.3004 13.0559 11.3973 13.2121C11.4941 13.3684 11.541 13.5621 11.541 13.7871C11.541 13.9934 11.4848 14.1902 11.3691 14.3715C11.2535 14.5493 11.091 14.6871 10.8816 14.7746C10.6754 14.859 10.4223 14.9027 10.1191 14.9027C9.67852 14.9027 9.33164 14.7962 9.09102 14.5902C8.85039 14.3805 8.70352 14.0774 8.65977 13.684C8.65664 13.6621 8.66289 13.6402 8.67539 13.6246C8.68789 13.609 8.70664 13.5965 8.72852 13.5965L9.38789 13.5309C9.43164 13.5277 9.46602 13.5559 9.47227 13.5965C9.50664 13.7968 9.58164 13.9465 9.68789 14.0371C9.79414 14.1277 9.94102 14.1746 10.1285 14.1746C10.3254 14.1746 10.4754 14.134 10.5691 14.0524C10.6629 13.9777 10.7098 13.8899 10.7098 13.7899C10.7098 13.7277 10.691 13.6809 10.6566 13.6371ZM11.616 11.4371C11.6098 11.4121 11.6129 11.3874 11.6254 11.3655C11.641 11.3437 11.666 11.3312 11.691 11.3312H12.4254C12.4598 11.3312 12.4879 11.353 12.5004 11.3843L13.2723 13.6468L14.0223 11.3843C14.0316 11.353 14.0629 11.3312 14.0973 11.3312H14.816C14.841 11.3312 14.8629 11.3437 14.8785 11.3655C14.8941 11.3874 14.8973 11.4121 14.8879 11.4371L13.6879 14.7902C13.6754 14.8215 13.6473 14.8434 13.6129 14.8434H12.891C12.8566 14.8434 12.8285 14.8215 12.816 14.7902L11.616 11.4371ZM16.016 9.80586H3.98477V1.91211H16.016V9.80586Z" fill="#00A651"/>
<path d="M14.6094 4.17969H5.39062C5.21781 4.17969 5.07812 4.04 5.07812 3.86719C5.07812 3.69438 5.21781 3.55469 5.39062 3.55469H14.6094C14.7822 3.55469 14.9219 3.69438 14.9219 3.86719C14.9219 4.04 14.7822 4.17969 14.6094 4.17969Z" fill="#00A651"/>
<path d="M14.6094 6.36719H5.39062C5.21781 6.36719 5.07812 6.2275 5.07812 6.05469C5.07812 5.88188 5.21781 5.74219 5.39062 5.74219H14.6094C14.7822 5.74219 14.9219 5.88188 14.9219 6.05469C14.9219 6.2275 14.7822 6.36719 14.6094 6.36719Z" fill="#00A651"/>
<path d="M14.6094 8.55469H5.39062C5.21781 8.55469 5.07812 8.415 5.07812 8.24219C5.07812 8.06938 5.21781 7.92969 5.39062 7.92969H14.6094C14.7822 7.92969 14.9219 8.06938 14.9219 8.24219C14.9219 8.415 14.7822 8.55469 14.6094 8.55469Z" fill="#00A651"/>
</svg>
