<svg width="81" height="80" viewBox="0 0 81 80" fill="none" xmlns="http://www.w3.org/2000/svg">
<rect x="0.5" width="80" height="80" rx="40" fill="#FEECEE"/>
<g clip-path="url(#clip0_647_34767)">
<path d="M40.4952 56C38.3938 56.0039 36.3125 55.5924 34.3707 54.7894C32.4288 53.9864 30.6649 52.8075 29.1801 51.3206C22.94 45.0807 22.94 34.9283 29.1801 28.6883C30.6626 27.1975 32.4262 26.0155 34.3687 25.2107C36.3111 24.406 38.3939 23.9945 40.4965 24.0001C44.7713 24.0001 48.7902 25.6644 51.8116 28.6883C54.8344 31.711 56.5 35.7297 56.5 40.0045C56.5 44.2793 54.8356 48.2979 51.8116 51.3206C50.3266 52.8075 48.5623 53.9864 46.6203 54.7894C44.6783 55.5924 42.5967 56.0038 40.4952 56ZM40.4965 26.5606C38.7302 26.5555 36.9806 26.901 35.3488 27.577C33.7171 28.253 32.2356 29.246 30.9904 30.4986C28.4516 33.0374 27.0535 36.4134 27.0535 40.0045C27.0535 43.5956 28.4516 46.9703 30.9904 49.5104C36.2319 54.7517 44.7611 54.753 50.0013 49.5104C52.5401 46.9717 53.9395 43.5956 53.9395 40.0045C53.9395 36.4134 52.5414 33.0386 50.0013 30.4986C48.756 29.2464 47.2748 28.2536 45.6433 27.5777C44.0118 26.9017 42.2625 26.556 40.4965 26.5606Z" fill="#F04438"/>
<path d="M35.0631 46.7142C34.8096 46.7148 34.5617 46.64 34.3508 46.4995C34.14 46.3589 33.9756 46.1588 33.8786 45.9247C33.7816 45.6905 33.7564 45.4328 33.8061 45.1843C33.8558 44.9358 33.9783 44.7077 34.1579 44.5288L45.0211 33.6659C45.14 33.5471 45.2811 33.4528 45.4364 33.3884C45.5917 33.3241 45.7582 33.291 45.9263 33.291C46.0944 33.291 46.2609 33.3241 46.4161 33.3884C46.5714 33.4528 46.7126 33.5471 46.8314 33.6659C46.9503 33.7848 47.0446 33.9259 47.1089 34.0812C47.1733 34.2365 47.2064 34.4029 47.2064 34.571C47.2064 34.7391 47.1733 34.9056 47.1089 35.0609C47.0446 35.2162 46.9503 35.3573 46.8314 35.4762L35.9682 46.3392C35.8497 46.4584 35.7086 46.553 35.5532 46.6174C35.3979 46.6818 35.2312 46.7147 35.0631 46.7142Z" fill="#F04438"/>
<path d="M45.9324 46.7142C45.7642 46.7144 45.5977 46.6814 45.4424 46.617C45.287 46.5526 45.1459 46.4582 45.0272 46.3392L34.164 35.4762C34.0451 35.3573 33.9508 35.2162 33.8865 35.0609C33.8222 34.9056 33.7891 34.7391 33.7891 34.571C33.7891 34.4029 33.8222 34.2365 33.8865 34.0812C33.9508 33.9259 34.0451 33.7848 34.164 33.6659C34.2829 33.5471 34.424 33.4528 34.5793 33.3884C34.7346 33.3241 34.9011 33.291 35.0692 33.291C35.2373 33.291 35.4037 33.3241 35.559 33.3884C35.7144 33.4528 35.8555 33.5471 35.9743 33.6659L46.8375 44.5288C47.0171 44.7077 47.1396 44.9358 47.1893 45.1843C47.239 45.4328 47.2138 45.6905 47.1169 45.9247C47.0198 46.1588 46.8555 46.3589 46.6446 46.4995C46.4337 46.64 46.1858 46.7148 45.9324 46.7142Z" fill="#F04438"/>
</g>
<defs>
<clipPath id="clip0_647_34767">
<rect width="32" height="32" fill="white" transform="translate(24.5 24)"/>
</clipPath>
</defs>
</svg>
