<svg width="53" height="52" viewBox="0 0 53 52" fill="none" xmlns="http://www.w3.org/2000/svg">
<rect x="2.5" y="2" width="48" height="48" rx="24" fill="#F7E9FF"/>
<rect x="2.5" y="2" width="48" height="48" rx="24" stroke="#F0DFF8" stroke-width="4"/>
<path d="M21.8335 24.2507C22.8 24.2507 23.5835 23.4671 23.5835 22.5007C23.5835 21.5342 22.8 20.7507 21.8335 20.7507C20.867 20.7507 20.0835 21.5342 20.0835 22.5007C20.0835 23.4671 20.867 24.2507 21.8335 24.2507Z" fill="#C700E1"/>
<path fill-rule="evenodd" clip-rule="evenodd" d="M19.2085 15.209C17.2755 15.209 15.7085 16.776 15.7085 18.709V33.2923C15.7085 35.2253 17.2755 36.7923 19.2085 36.7923H33.7918C35.7248 36.7923 37.2918 35.2253 37.2918 33.2923V18.709C37.2918 16.776 35.7248 15.209 33.7918 15.209H19.2085ZM33.7918 17.5423H19.2085C18.5642 17.5423 18.0418 18.0647 18.0418 18.709V27.7718L20.9571 25.9778C21.1511 25.8584 21.3968 25.8629 21.5864 25.9893L24.6977 28.0635L29.6421 24.2179C29.8527 24.054 30.1477 24.054 30.3583 24.2179L34.9585 27.7958V18.709C34.9585 18.0647 34.4362 17.5423 33.7918 17.5423ZM18.0418 33.2923V30.5116L21.225 28.5527L24.8027 30.9378L30.0002 26.8953L34.9585 30.7518V33.2923C34.9585 33.9366 34.4362 34.459 33.7918 34.459H19.2085C18.5642 34.459 18.0418 33.9366 18.0418 33.2923Z" fill="#C700E1"/>
</svg>
