<svg width="20" height="20" viewBox="0 0 20 20" fill="none" xmlns="http://www.w3.org/2000/svg">
<path d="M8.46997 12.4621C8.56426 12.5579 8.69827 12.6251 8.83116 12.6048C9.03807 12.5731 9.15625 12.3581 9.24602 12.169C10.2294 10.0974 11.5509 8.1869 13.1425 6.53604C13.2362 6.43882 13.1922 6.24729 13.0902 6.15877C12.9883 6.07026 12.8357 6.06056 12.7068 6.1009C11.7981 6.38545 9.48985 9.44719 9.0114 10.0073C8.49756 9.68117 7.51421 9.57913 6.99518 9.26128C6.90002 9.203 6.80308 9.14397 6.69505 9.11607C6.58703 9.08818 6.46428 9.09558 6.37465 9.162C6.285 9.22844 6.22415 9.41008 6.30306 9.48896C7.79517 10.9804 8.22304 12.2113 8.46997 12.4621Z" fill="#8200BA"/>
<path d="M9.49097 17.3036C9.53329 17.318 9.57823 17.3189 9.61987 17.3068C11.2161 16.8477 12.7161 15.6889 13.7354 14.1277C15.6251 11.2334 15.7422 7.46627 15.3788 4.02934C15.3682 3.93113 15.292 3.85258 15.1941 3.83947C9.02012 3.01913 9.41329 3.06062 9.35592 3.06966C8.18643 3.24743 3.94381 3.89777 3.8389 3.90769C3.7259 3.90769 3.63243 3.9953 3.62517 4.10788C3.51134 5.83152 3.39359 7.61388 3.58444 9.37281C3.99872 13.1858 5.82039 16.0412 9.49097 17.3036ZM4.04091 4.31394L9.39024 3.49795L14.9698 4.24195C15.3025 7.53779 15.1699 11.1465 13.3766 13.8933C12.4268 15.3485 11.0409 16.4322 9.5663 16.8759C6.11002 15.6581 4.4059 12.9701 4.01078 9.3265C3.83025 7.66466 3.93237 5.96377 4.04091 4.31394Z" fill="#8200BA"/>
<path d="M16.7224 8.96193C16.9492 7.03531 16.9364 5.01801 16.6819 2.61316C16.6713 2.5148 16.5952 2.4364 16.4972 2.42329C8.92346 1.41619 9.38511 1.46686 9.32786 1.47588C2.00184 2.5915 2.46798 2.51295 2.41908 2.54422C2.41971 2.53055 2.42006 2.51697 2.42069 2.5033C2.39835 2.52661 2.24245 2.59321 2.22304 2.61956C2.16539 2.69786 2.06674 2.75581 1.99593 2.82624C1.8336 2.98778 1.84538 3.15719 1.79202 3.65553C1.66839 4.81348 1.57388 5.97307 1.56855 7.14216C1.54481 12.6381 3.75051 17.5789 9.0472 19.1719C10.0858 19.4842 11.0367 18.7385 11.9359 18.1297C13.0039 17.4066 13.9369 16.4848 14.6736 15.4262C15.9894 13.5355 16.4457 11.3115 16.7224 8.96193ZM2.73439 2.91506L9.36218 1.90417L16.2732 2.82591C16.6882 6.90087 16.5308 11.3684 14.3089 14.7715C13.1306 16.5766 11.4093 17.9198 9.57814 18.4661C5.29793 16.9653 3.18451 13.6399 2.69477 9.13074C2.47072 7.0688 2.59962 4.95984 2.73439 2.91506Z" fill="#8200BA"/>
<path d="M17.7057 3.03644C17.8224 3.01649 17.9008 2.90586 17.881 2.78923C17.7523 2.03449 17.2481 1.35034 16.5654 1.00366C16.4594 0.950228 16.331 0.99222 16.2772 1.09783C16.2236 1.2033 16.2657 1.33234 16.3712 1.38591C16.9356 1.67233 17.3522 2.23762 17.4585 2.86122C17.4785 2.97782 17.5891 3.05632 17.7057 3.03644Z" fill="#8200BA"/>
<path d="M18.4283 2.06189C18.3359 1.51808 17.9726 1.0252 17.4804 0.775338C17.3738 0.721348 17.2458 0.764178 17.1922 0.869507C17.1386 0.974976 17.1808 1.10402 17.2862 1.15759C17.6598 1.34705 17.9355 1.72121 18.0058 2.13388C18.0259 2.25136 18.137 2.32887 18.253 2.3091C18.3697 2.28929 18.4481 2.17866 18.4283 2.06189Z" fill="#8200BA"/>
</svg>
