<svg width="20" height="20" viewBox="0 0 20 20" fill="none" xmlns="http://www.w3.org/2000/svg">
<g clip-path="url(#clip0_722_31983)">
<path d="M17.7778 0H2.22222C1 0 0 1.01351 0 2.25225V15.3153C0 16.5541 1 17.5676 2.22222 17.5676H8.44444V18.018C8.44444 18.1757 8.53333 18.3108 8.66667 18.4009C8.8 18.491 8.95556 18.491 9.08889 18.4234L10.4889 17.7252L11.4889 19.7523C11.5333 19.8649 11.6444 19.9324 11.7556 19.9775C11.8 20 11.8444 20 11.8889 20C11.9556 20 12.0222 19.9775 12.0889 19.955L14.0667 18.9414C14.2889 18.8288 14.3778 18.5586 14.2667 18.3333L13.8889 17.5676H17.7778C19 17.5676 20 16.5541 20 15.3153V2.25225C20 1.01351 19 0 17.7778 0ZM12.0667 18.9414L11.0667 16.9369C10.9778 16.7793 10.8222 16.6892 10.6667 16.6892C10.6 16.6892 10.5333 16.7117 10.4667 16.7342L9.33333 17.2973V11.8919L13.6 15.1351L12.4444 15.7207C12.2222 15.8333 12.1333 16.1036 12.2444 16.3288L13.2444 18.3559L12.0667 18.9414ZM19.1111 15.3153C19.1111 16.0586 18.5111 16.6667 17.7778 16.6667H13.4444L13.2667 16.3063L14.6667 15.6081C14.8 15.5405 14.8889 15.4054 14.9111 15.2477C14.9333 15.0901 14.8667 14.9324 14.7333 14.8423L9.17778 10.6081C9.04444 10.4955 8.86667 10.4955 8.71111 10.5631C8.55556 10.6306 8.46667 10.7883 8.46667 10.9685V16.6667H2.22222C1.48889 16.6667 0.888889 16.0586 0.888889 15.3153V5.40541H19.1111V15.3153ZM19.1111 4.5045H0.888889V2.25225C0.888889 1.50901 1.48889 0.900901 2.22222 0.900901H17.7778C18.5111 0.900901 19.1111 1.50901 19.1111 2.25225V4.5045ZM3.11111 2.7027C3.11111 2.95045 2.91111 3.15315 2.66667 3.15315C2.42222 3.15315 2.22222 2.95045 2.22222 2.7027C2.22222 2.45495 2.42222 2.25225 2.66667 2.25225C2.91111 2.25225 3.11111 2.45495 3.11111 2.7027ZM5.33333 2.7027C5.33333 2.95045 5.13333 3.15315 4.88889 3.15315C4.64444 3.15315 4.44444 2.95045 4.44444 2.7027C4.44444 2.45495 4.64444 2.25225 4.88889 2.25225C5.13333 2.25225 5.33333 2.45495 5.33333 2.7027ZM7.55556 2.7027C7.55556 2.95045 7.35556 3.15315 7.11111 3.15315C6.86667 3.15315 6.66667 2.95045 6.66667 2.7027C6.66667 2.45495 6.86667 2.25225 7.11111 2.25225C7.35556 2.25225 7.55556 2.45495 7.55556 2.7027ZM7.11111 8.35586C7 8.13063 7.08889 7.86036 7.31111 7.74775C7.53333 7.63514 7.8 7.72523 7.91111 7.95045L8.31111 8.76126C8.42222 8.98649 8.33333 9.25676 8.11111 9.36937C8.04444 9.39189 7.97778 9.41441 7.91111 9.41441C7.75556 9.41441 7.6 9.32432 7.51111 9.16667L7.11111 8.35586ZM11.5111 10.518C11.4 10.2928 11.4889 10.0225 11.7111 9.90991L12.5111 9.5045C12.7333 9.39189 13 9.48198 13.1111 9.70721C13.2222 9.93243 13.1333 10.2027 12.9111 10.3153L12.1111 10.7207C12.0444 10.7432 11.9778 10.7658 11.9111 10.7658C11.7556 10.7883 11.6 10.6757 11.5111 10.518ZM6.95556 12.8378C7.06667 13.0631 6.97778 13.3333 6.75556 13.4459L5.95556 13.8514C5.88889 13.8739 5.82222 13.8964 5.75556 13.8964C5.6 13.8964 5.44444 13.8063 5.35556 13.6486C5.24444 13.4234 5.33333 13.1532 5.55556 13.0405L6.35556 12.6351C6.57778 12.5225 6.84444 12.6126 6.95556 12.8378ZM9.75556 8.64865L10.0444 7.79279C10.1111 7.54504 10.3778 7.43243 10.6 7.5C10.8222 7.56757 10.9556 7.83784 10.8889 8.06306L10.6 8.91892C10.5333 9.0991 10.3556 9.23423 10.1778 9.23423C10.1333 9.23423 10.0889 9.23423 10.0444 9.21171C9.82222 9.14414 9.68889 8.8964 9.75556 8.64865ZM5.13333 10.2928C5.2 10.045 5.46667 9.93243 5.68889 10L6.53333 10.2928C6.75556 10.3604 6.88889 10.6306 6.82222 10.8559C6.75556 11.036 6.57778 11.1712 6.4 11.1712C6.35556 11.1712 6.31111 11.1712 6.26667 11.1486L5.42222 10.8559C5.17778 10.7883 5.04444 10.5405 5.13333 10.2928Z" fill="#8200BA"/>
</g>
<defs>
<clipPath id="clip0_722_31983">
<rect width="20" height="20" fill="white"/>
</clipPath>
</defs>
</svg>
