<svg width="24" height="24" viewBox="0 0 24 24" fill="none" xmlns="http://www.w3.org/2000/svg">
<path d="M12.1891 12.8159H9.25586C8.84165 12.8159 8.50586 13.1517 8.50586 13.5659C8.50586 13.9801 8.84165 14.3159 9.25586 14.3159H12.1891C12.6033 14.3159 12.9391 13.9801 12.9391 13.5659C12.9391 13.1517 12.6033 12.8159 12.1891 12.8159Z" fill="white"/>
<path d="M11.2544 1.43405C11.6257 1.6178 11.7772 2.0678 11.5927 2.43905L11.1554 3.32105L12.0374 3.75905C12.4087 3.94355 12.5602 4.3928 12.3757 4.76405C12.1919 5.1353 11.7412 5.2868 11.3707 5.1023L9.64642 4.24655C9.36967 4.1093 9.25717 3.77405 9.39442 3.4973L10.2502 1.7723C10.4339 1.40105 10.8839 1.24955 11.2552 1.43405H11.2544Z" fill="white"/>
<path d="M13.2023 17.4307H3.45075C1.962 17.4307 0.75 16.2195 0.75 14.73V8.87848C0.75 7.38973 1.96125 6.17773 3.45075 6.17773H13.2023C14.691 6.17773 15.903 7.38898 15.903 8.87848V14.73C15.903 16.2187 14.6918 17.4307 13.2023 17.4307ZM3.45075 7.67848C2.7885 7.67848 2.25 8.21698 2.25 8.87923V14.7307C2.25 15.3922 2.7885 15.9315 3.45075 15.9315H13.2023C13.8645 15.9315 14.403 15.393 14.403 14.7307V8.87923C14.403 8.21773 13.8645 7.67848 13.2023 7.67848H3.45075Z" fill="white"/>
<path d="M1.49805 9.51758H15.151V11.0176H1.49805V9.51758Z" fill="white"/>
<path d="M13.5009 21.75C10.9254 21.75 8.49688 20.7547 6.66088 18.9487C5.98438 18.282 5.40913 17.5237 4.95312 16.6935L6.26712 15.9705C6.65412 16.6732 7.14013 17.3152 7.71312 17.88C9.26638 19.4085 11.3221 20.2507 13.5016 20.2507C18.0504 20.2507 21.7516 16.5495 21.7516 12.0007C21.7516 7.45196 18.0504 3.75071 13.5016 3.75071C12.6309 3.75071 11.7736 3.88571 10.9554 4.15121L10.4926 2.72471C11.4609 2.41046 12.4734 2.25146 13.5016 2.25146C18.8776 2.25146 23.2516 6.62547 23.2516 12.0015C23.2516 17.3775 18.8776 21.7515 13.5016 21.7515L13.5009 21.75Z" fill="white"/>
</svg>
