<svg width="28" height="24" viewBox="0 0 28 24" fill="none" xmlns="http://www.w3.org/2000/svg">
<path d="M9.00982 23.6303C15.8425 25.4157 22.9059 20.5261 23.7014 13.4461C23.7397 13.1325 23.495 12.8415 23.1887 12.8099C22.7423 12.7609 22.5257 13.189 22.524 13.58C22.4508 14.0858 22.3376 14.5843 22.1969 15.0757C20.8631 19.8508 16.02 23.2372 11.1172 22.7981C4.31198 22.3669 -0.424271 15.3729 1.62012 8.81453C3.25963 3.17669 9.47226 -0.161263 15.0238 1.61231C16.615 2.10124 18.0881 2.96855 19.2942 4.1256C19.522 4.34181 19.8956 4.32373 20.1065 4.09278C20.5646 3.56067 19.8921 3.08666 19.5119 2.77146C13.9061 -2.04698 5.01758 -0.370463 1.50029 6.1568C-2.31682 12.9382 1.49767 21.8045 9.00999 23.6302L9.00982 23.6303Z" fill="#8200BA"/>
<path d="M12.6873 15.9962C12.2297 15.9962 11.7781 15.7894 11.4779 15.3975L7.27225 9.90852C6.75624 9.23496 6.87903 8.26692 7.54635 7.74622C8.21367 7.22535 9.17298 7.34942 9.68899 8.02281L12.9938 12.336L25.5834 3.23384C26.2693 2.73806 27.2236 2.89706 27.7147 3.58904C28.206 4.2812 28.0485 5.24398 27.3627 5.73976L13.5758 15.7075C13.3068 15.9021 12.9957 15.9962 12.6873 15.9962Z" fill="#BF1EE1"/>
</svg>
