<svg width="32" height="32" viewBox="0 0 32 32" fill="none" xmlns="http://www.w3.org/2000/svg">
<rect width="32" height="32" rx="8" fill="#F7E9FF"/>
<g clip-path="url(#clip0_722_31961)">
<path d="M16.6673 19.3385L13.9967 22.0092C13.9967 22.0092 13.9967 22.0093 13.9967 22.0093C13.9967 22.0093 13.9967 22.0094 13.9966 22.0094C12.8922 23.1138 11.0951 23.1139 9.99062 22.0094C9.45555 21.4743 9.16094 20.7629 9.16094 20.0063C9.16094 19.2498 9.45555 18.5385 9.99043 18.0035C9.99049 18.0034 9.99055 18.0033 9.99062 18.0033L12.6612 15.3326C13.0299 14.9638 13.0299 14.3659 12.6612 13.9972C12.2925 13.6285 11.6946 13.6285 11.3258 13.9972L8.65521 16.6679C8.65502 16.6681 8.65483 16.6684 8.65464 16.6685C7.76334 17.5602 7.27246 18.7456 7.27246 20.0063C7.27246 21.2674 7.76353 22.453 8.65527 23.3447C9.57572 24.2651 10.7847 24.7253 11.9937 24.7253C13.2027 24.7253 14.4117 24.2651 15.332 23.3447C15.3321 23.3447 15.3321 23.3446 15.3321 23.3446L18.0027 20.6739C18.3714 20.3052 18.3714 19.7073 18.0026 19.3385C17.634 18.9699 17.0362 18.9699 16.6673 19.3385Z" fill="url(#paint0_linear_722_31961)"/>
<path d="M24.7287 11.9943C24.7287 10.7333 24.2375 9.54768 23.3458 8.65594C21.505 6.81518 18.5098 6.81524 16.6691 8.65594C16.669 8.65607 16.6689 8.65613 16.6688 8.65626L13.9982 11.3268C13.6295 11.6955 13.6295 12.2934 13.9982 12.6621C14.1827 12.8465 14.4243 12.9387 14.666 12.9387C14.9076 12.9387 15.1493 12.8465 15.3336 12.6621L18.0042 9.9916C18.0042 9.99148 18.0043 9.99141 18.0045 9.99129C19.1089 8.8869 20.9059 8.88684 22.0104 9.99129C22.5455 10.5264 22.8402 11.2377 22.8402 11.9943C22.8402 12.7509 22.5456 13.4621 22.0106 13.9972L22.0104 13.9974L19.3398 16.6681C18.9711 17.0368 18.9711 17.6347 19.3399 18.0034C19.5243 18.1878 19.7659 18.28 20.0075 18.28C20.2492 18.28 20.4908 18.1878 20.6752 18.0034L23.3459 15.3327C23.346 15.3325 23.3462 15.3323 23.3464 15.3321C24.2377 14.4405 24.7287 13.2551 24.7287 11.9943Z" fill="url(#paint1_linear_722_31961)"/>
<path d="M12.6623 19.34C12.8467 19.5243 13.0884 19.6166 13.33 19.6166C13.5716 19.6166 13.8133 19.5243 13.9977 19.34L19.339 13.9986C19.7078 13.6299 19.7078 13.032 19.339 12.6632C18.9703 12.2945 18.3724 12.2945 18.0037 12.6632L12.6623 18.0046C12.2936 18.3734 12.2936 18.9713 12.6623 19.34Z" fill="url(#paint2_linear_722_31961)"/>
</g>
<defs>
<linearGradient id="paint0_linear_722_31961" x1="12.7758" y1="13.7207" x2="12.7758" y2="24.7253" gradientUnits="userSpaceOnUse">
<stop stop-color="#770EB3"/>
<stop offset="1" stop-color="#AF30D9"/>
</linearGradient>
<linearGradient id="paint1_linear_722_31961" x1="19.2252" y1="7.27539" x2="19.2252" y2="18.28" gradientUnits="userSpaceOnUse">
<stop stop-color="#770EB3"/>
<stop offset="1" stop-color="#AF30D9"/>
</linearGradient>
<linearGradient id="paint2_linear_722_31961" x1="16.0007" y1="12.3867" x2="16.0007" y2="19.6166" gradientUnits="userSpaceOnUse">
<stop stop-color="#770EB3"/>
<stop offset="1" stop-color="#AF30D9"/>
</linearGradient>
<clipPath id="clip0_722_31961">
<rect width="17.4545" height="17.4545" fill="white" transform="translate(7.27246 7.27344)"/>
</clipPath>
</defs>
</svg>
