<svg width="26" height="26" viewBox="0 0 26 26" fill="none" xmlns="http://www.w3.org/2000/svg">
<g clip-path="url(#clip0_157_24955)">
<path d="M14.2637 17.94V19.9591C14.2637 20.0688 14.353 20.1582 14.4627 20.1582C14.5724 20.1582 14.6618 20.0688 14.6618 19.9591V17.94C14.6618 17.8303 14.5724 17.741 14.4627 17.741C14.353 17.741 14.2637 17.8303 14.2637 17.94Z" fill="#8200BA"/>
<path d="M20.5449 11.6593C20.5449 11.769 20.6343 11.8583 20.744 11.8583H22.763C22.8727 11.8583 22.9621 11.769 22.9621 11.6593C22.9621 11.5496 22.8727 11.4602 22.763 11.4602H20.744C20.6343 11.4602 20.5449 11.5496 20.5449 11.6593Z" fill="#8200BA"/>
<path d="M14.463 0.121826C8.92984 0.121826 4.16047 4.1112 3.13672 9.48589H5.59453C6.57359 5.41526 10.2095 2.52276 14.463 2.52276C19.5045 2.52276 23.6036 6.62183 23.6036 11.6593C23.6036 16.7009 19.5045 20.8 14.463 20.8C11.5786 20.8 8.90141 19.4593 7.18703 17.1843C6.94328 17.4281 6.68734 17.6353 6.43141 17.8059L6.53703 18.0375C7.56484 18.7606 8.58047 20.1012 9.12078 21.8928C10.758 22.75 12.582 23.1968 14.463 23.1968C20.8248 23.1968 26.0005 18.0212 26.0005 11.6593C26.0005 5.29745 20.8248 0.121826 14.463 0.121826Z" fill="#8200BA"/>
<path d="M14.6618 5.38283V3.35971C14.6618 3.25002 14.5724 3.16064 14.4627 3.16064C14.353 3.16064 14.2637 3.25002 14.2637 3.35971V5.37877C14.2637 5.48846 14.353 5.57783 14.4627 5.57783C14.5724 5.58189 14.6618 5.49252 14.6618 5.38283Z" fill="#8200BA"/>
<path d="M17.2539 5.127C17.3311 5.127 17.4083 5.08232 17.4367 5.00513L17.8227 4.07075C17.8633 3.96919 17.8145 3.85138 17.713 3.81075C17.6114 3.77013 17.4936 3.81482 17.453 3.92044L17.067 4.85482C17.0264 4.95638 17.0752 5.07419 17.1767 5.11482C17.2011 5.12294 17.2295 5.127 17.2539 5.127Z" fill="#8200BA"/>
<path d="M19.618 6.70716C19.6709 6.70716 19.7196 6.68685 19.7602 6.65028L20.4752 5.93528C20.5524 5.8581 20.5524 5.73216 20.4752 5.65091C20.398 5.57372 20.2721 5.57372 20.1909 5.65091L19.4759 6.36591C19.3987 6.4431 19.3987 6.56903 19.4759 6.65028C19.5165 6.68685 19.5693 6.70716 19.618 6.70716Z" fill="#8200BA"/>
<path d="M21.1991 9.07134C21.2235 9.07134 21.2519 9.06728 21.2763 9.05509L22.2106 8.66916C22.3122 8.62853 22.361 8.51072 22.3203 8.40916C22.2797 8.30759 22.1619 8.25884 22.0603 8.29947L21.126 8.6854C21.0244 8.72603 20.9756 8.84384 21.0163 8.94541C21.0488 9.02666 21.1219 9.07134 21.1991 9.07134Z" fill="#8200BA"/>
<path d="M21.2763 14.2673C21.1747 14.2267 21.0569 14.2714 21.0163 14.377C20.9756 14.4785 21.0244 14.5964 21.126 14.637L22.0603 15.0229C22.0847 15.0351 22.1131 15.0392 22.1375 15.0392C22.2147 15.0392 22.2919 14.9945 22.3203 14.9173C22.361 14.8157 22.3122 14.6979 22.2106 14.6573L21.2763 14.2673Z" fill="#8200BA"/>
<path d="M19.4759 16.9568L20.1909 17.6718C20.2315 17.7124 20.2802 17.7286 20.333 17.7286C20.3859 17.7286 20.4346 17.7083 20.4752 17.6718C20.5524 17.5946 20.5524 17.4686 20.4752 17.3874L19.7602 16.6724C19.683 16.5952 19.5571 16.5952 19.4759 16.6724C19.3987 16.7536 19.3987 16.8796 19.4759 16.9568Z" fill="#8200BA"/>
<path d="M17.1767 18.2122C17.0752 18.2528 17.0264 18.3706 17.067 18.4722L17.453 19.4066C17.4855 19.4837 17.5586 19.5284 17.6358 19.5284C17.6602 19.5284 17.6886 19.5244 17.713 19.5122C17.8145 19.4716 17.8633 19.3537 17.8227 19.2522L17.4367 18.3178C17.3961 18.2162 17.2783 18.1716 17.1767 18.2122Z" fill="#8200BA"/>
<path d="M11.2124 19.5162C11.2368 19.5284 11.2652 19.5325 11.2896 19.5325C11.3668 19.5325 11.444 19.4878 11.4724 19.4106L11.8584 18.4762C11.899 18.3747 11.8502 18.2568 11.7487 18.2162C11.6471 18.1756 11.5293 18.2243 11.4887 18.3259L11.1027 19.2603C11.0621 19.3537 11.1068 19.4715 11.2124 19.5162Z" fill="#8200BA"/>
<path d="M9.16938 16.6767L8.45438 17.3917C8.37719 17.4688 8.37719 17.5948 8.45438 17.676C8.495 17.7167 8.54375 17.7329 8.59656 17.7329C8.64938 17.7329 8.69813 17.7126 8.73875 17.676L9.45375 16.961C9.53094 16.8838 9.53094 16.7579 9.45375 16.6767C9.3725 16.5954 9.24656 16.5954 9.16938 16.6767Z" fill="#8200BA"/>
<path d="M7.65408 9.05524C7.67845 9.06742 7.70689 9.07149 7.73126 9.07149C7.80845 9.07149 7.88564 9.0268 7.91408 8.94961C7.9547 8.84805 7.90595 8.73024 7.80439 8.68961L6.87001 8.30367C6.76845 8.26305 6.65064 8.30774 6.61001 8.41336C6.56939 8.51492 6.61814 8.63274 6.7197 8.67336L7.65408 9.05524Z" fill="#8200BA"/>
<path d="M9.30766 6.70716C9.36047 6.70716 9.40922 6.68685 9.44984 6.65028C9.52703 6.5731 9.52703 6.44716 9.44984 6.36591L8.73484 5.65091C8.65766 5.57372 8.53172 5.57372 8.45047 5.65091C8.37328 5.7281 8.37328 5.85403 8.45047 5.93528L9.16547 6.65028C9.20609 6.68685 9.25891 6.70716 9.30766 6.70716Z" fill="#8200BA"/>
<path d="M11.4881 5.00084C11.5206 5.07802 11.5938 5.12271 11.671 5.12271C11.6953 5.12271 11.7238 5.11865 11.7481 5.10646C11.8497 5.06584 11.8985 4.94802 11.8578 4.84646L11.4719 3.91209C11.4313 3.81052 11.3135 3.76177 11.2119 3.8024C11.1103 3.84302 11.0616 3.96084 11.1022 4.0624L11.4881 5.00084Z" fill="#8200BA"/>
<path d="M13.9634 7.29207V10.6639C13.5977 10.8468 13.3418 11.2246 13.3418 11.6633C13.3418 12.2808 13.8415 12.7846 14.463 12.7846C14.5849 12.7846 14.7027 12.7602 14.8124 12.7236L18.3671 16.2783C18.4605 16.3718 18.5865 16.4246 18.7205 16.4246C18.8546 16.4246 18.9805 16.3718 19.074 16.2783C19.269 16.0833 19.269 15.7664 19.074 15.5714L15.5193 12.0168C15.5559 11.9071 15.5802 11.7893 15.5802 11.6633C15.5802 11.2246 15.3284 10.8508 14.9627 10.668V7.29613C14.9627 7.02394 14.7352 6.79644 14.463 6.79644C14.1909 6.79238 13.9634 7.01582 13.9634 7.29207Z" fill="#8200BA"/>
<path d="M9.23812 24.4277H9.11219C9.04719 21.3524 7.45875 18.923 5.88656 18.0983C5.80937 18.0577 5.76062 17.9724 5.76062 17.8789C5.76062 17.7855 5.80937 17.7042 5.88656 17.6636C7.45875 16.8349 9.04719 14.4096 9.11219 11.3342H9.23812C9.52656 11.3342 9.76219 11.0986 9.76219 10.8102V10.4121C9.76219 10.1236 9.52656 9.88799 9.23812 9.88799H0.524063C0.235625 9.88393 0 10.1196 0 10.4121V10.8102C0 11.0986 0.235625 11.3342 0.524063 11.3342H0.645938C0.710938 14.4136 2.30344 16.843 3.87562 17.6636C3.95281 17.7042 4.00156 17.7896 4.00156 17.883C4.00156 17.9764 3.95281 18.0617 3.87562 18.1024C2.30344 18.9271 0.710938 21.3524 0.645938 24.4317H0.524063C0.235625 24.4277 0 24.6633 0 24.9558V25.3539C0 25.6424 0.235625 25.878 0.524063 25.878H9.23812C9.52656 25.878 9.76219 25.6424 9.76219 25.3539V24.9558C9.76219 24.6633 9.52656 24.4277 9.23812 24.4277ZM1.28781 24.4277C1.35281 21.6286 2.80312 19.3821 4.17625 18.663C4.46469 18.5127 4.6475 18.2121 4.6475 17.8789C4.6475 17.5458 4.46875 17.2452 4.18031 17.0949C2.81125 16.3799 1.36094 14.1292 1.29188 11.3302H8.47844C8.41344 14.1211 6.96313 16.3758 5.59406 17.0949C5.30562 17.2452 5.12687 17.5458 5.12687 17.8789C5.12687 18.2121 5.30562 18.5127 5.59406 18.663C6.96313 19.3821 8.41344 21.6327 8.47844 24.4277H1.28781Z" fill="#8200BA"/>
<path d="M7.62063 13.0974C7.62063 13.0811 7.62063 13.0608 7.61656 13.0446C6.71063 12.9796 6.41 13.2071 5.22781 13.6865C4.33406 14.048 2.95281 13.5971 2.14844 13.3086C2.25813 15.1733 3.71656 16.6521 4.88656 16.6521C6.09312 16.6521 7.62063 15.0596 7.62063 13.0974Z" fill="#8200BA"/>
<path d="M1.85156 23.794H7.90875C7.55937 22.3437 6.30813 21.2671 4.87813 21.2671C3.44813 21.2671 2.20094 22.3437 1.85156 23.794Z" fill="#8200BA"/>
</g>
<defs>
<clipPath id="clip0_157_24955">
<rect width="26" height="26" fill="white"/>
</clipPath>
</defs>
</svg>
