<svg width="26" height="26" viewBox="0 0 26 26" fill="none" xmlns="http://www.w3.org/2000/svg">
<path d="M16.8594 18.0781H12.7969C12.2359 18.0781 11.7812 18.5328 11.7812 19.0938C11.7812 19.6547 12.2359 20.1094 12.7969 20.1094H16.8594C17.4203 20.1094 17.875 19.6547 17.875 19.0938C17.875 18.5328 17.4203 18.0781 16.8594 18.0781Z" fill="#8200BA"/>
<path d="M22.9531 1.82812H7.10938C5.42933 1.82812 4.0625 3.19495 4.0625 4.875V7.92188H3.04688C1.36683 7.92188 0 9.2887 0 10.9688V21.125C0 22.805 1.36683 24.1719 3.04688 24.1719H18.8906C20.5707 24.1719 21.9375 22.805 21.9375 21.125V18.0781H22.9531C24.6332 18.0781 26 16.7113 26 15.0312V4.875C26 3.19495 24.6332 1.82812 22.9531 1.82812ZM3.04688 9.95312H18.8906C19.4506 9.95312 19.9062 10.4087 19.9062 10.9688V11.9844H2.03125V10.9688C2.03125 10.4087 2.48686 9.95312 3.04688 9.95312ZM19.9062 21.125C19.9062 21.685 19.4506 22.1406 18.8906 22.1406H3.04688C2.48686 22.1406 2.03125 21.685 2.03125 21.125V14.0156H19.9062V21.125ZM23.9688 15.0312C23.9688 15.5913 23.5131 16.0469 22.9531 16.0469H21.9375V10.9688C21.9375 9.2887 20.5707 7.92188 18.8906 7.92188H6.09375V4.875C6.09375 4.31498 6.54936 3.85938 7.10938 3.85938H22.9531C23.5131 3.85938 23.9688 4.31498 23.9688 4.875V15.0312Z" fill="#8200BA"/>
</svg>
