<svg width="26" height="26" viewBox="0 0 26 26" fill="none" xmlns="http://www.w3.org/2000/svg">
<g clip-path="url(#clip0_177_46268)">
<path fill-rule="evenodd" clip-rule="evenodd" d="M13.8237 20.0078C14.0684 20.6166 14.398 21.1823 14.7997 21.6876H2.65383C1.69812 21.6876 0.837383 21.191 0.359531 20.3632C-0.119844 19.534 -0.119844 18.5407 0.359531 17.7129L8.32406 3.91568C8.80191 3.08795 9.66266 2.59131 10.6199 2.59131C11.5756 2.59131 12.4363 3.08795 12.9142 3.91568L17.227 11.3851C16.7146 11.6253 16.2383 11.929 15.8062 12.2849L11.4588 4.75662C11.2805 4.44838 10.9754 4.27166 10.6194 4.27166C10.2624 4.27166 9.95719 4.44889 9.77895 4.75662L1.81441 18.5529C1.63617 18.8621 1.63617 19.2151 1.81441 19.5233C1.99164 19.8315 2.29785 20.0083 2.65383 20.0083H13.8237V20.0078ZM26.0005 17.4992C26.0005 20.7537 23.3446 23.4081 20.0901 23.4081C16.8355 23.4081 14.1812 20.7537 14.1812 17.4992C14.1812 14.2431 16.8355 11.5887 20.0901 11.5887C23.3446 11.5887 26.0005 14.2431 26.0005 17.4992ZM17.6627 16.9086C17.6973 16.9649 17.7475 16.9995 17.8125 17.0122C19.304 17.2971 20.8208 17.3031 22.3671 17.0122C22.4321 16.9995 22.4824 16.9644 22.5184 16.9086C22.553 16.8522 22.5616 16.7908 22.5443 16.7273L21.9136 14.4254C21.839 14.1547 21.646 13.9577 21.3769 13.8785C21.1093 13.7992 20.8513 13.8729 20.6299 14.0455C20.4603 14.1781 20.2815 14.2598 20.0901 14.2598C19.9002 14.2598 19.7214 14.1776 19.5518 14.0455C19.3299 13.8729 19.0724 13.7992 18.8048 13.8785C18.5357 13.9577 18.3427 14.1547 18.268 14.4254L17.6373 16.7283C17.6186 16.7923 17.6282 16.8527 17.6627 16.9086ZM22.9805 19.7635C22.9851 19.6528 22.946 19.5548 22.8638 19.4801C22.783 19.404 22.684 19.371 22.5728 19.3837L20.9579 19.5649C20.8528 19.5766 20.7619 19.631 20.7045 19.7102H19.4766C19.4177 19.631 19.3268 19.5761 19.2217 19.5649L17.6069 19.3837C17.4962 19.3704 17.3966 19.404 17.3159 19.4801C17.2336 19.5548 17.195 19.6528 17.1991 19.7635C17.2209 20.2931 17.3677 20.6486 17.615 20.8619C18.1157 21.2935 19.1638 21.2808 19.4401 20.5496H20.7401C21.0148 21.2808 22.0629 21.294 22.5636 20.8619C22.812 20.6486 22.9587 20.2931 22.9805 19.7635ZM24.3836 17.2285C24.3836 16.9289 23.9891 16.6572 23.337 16.447L23.3528 16.5059C23.432 16.7953 23.3873 17.099 23.2289 17.3524C23.0689 17.6073 22.817 17.78 22.522 17.8358C20.9026 18.141 19.2715 18.1451 17.6551 17.8358C17.3601 17.7795 17.1082 17.6068 16.9498 17.3524C16.7913 17.099 16.7482 16.7953 16.8274 16.5059L16.8431 16.447C16.1911 16.6557 15.795 16.9294 15.795 17.2285C15.795 17.8876 17.7181 18.4234 20.0891 18.4234C22.4605 18.4234 24.3836 17.8876 24.3836 17.2285ZM11.3598 8.8765C11.1785 8.67084 10.9525 8.56725 10.6905 8.56725H10.5478C10.2857 8.56725 10.0598 8.67084 9.87848 8.8765C9.69719 9.08064 9.61238 9.32846 9.62355 9.61182L9.82363 14.2065C9.8409 14.6326 10.1664 14.9682 10.562 14.9682H10.6757C11.0718 14.9682 11.3968 14.6331 11.4156 14.2065L11.6142 9.61182C11.6274 9.32846 11.5411 9.08115 11.3598 8.8765ZM10.6199 16.1763C10.0846 16.1763 9.64844 16.614 9.64844 17.1478C9.64844 17.683 10.0846 18.1192 10.6199 18.1192C11.1541 18.1192 11.5913 17.683 11.5913 17.1478C11.5913 16.6135 11.1536 16.1763 10.6199 16.1763Z" fill="#F04438"/>
</g>
<defs>
<clipPath id="clip0_177_46268">
<rect width="26" height="26" fill="white"/>
</clipPath>
</defs>
</svg>
