<svg width="26" height="26" viewBox="0 0 26 26" fill="none" xmlns="http://www.w3.org/2000/svg">
<g clip-path="url(#clip0_157_24985)">
<path d="M13.2169 14.7109H9.82756C9.34894 14.7109 8.96094 15.0989 8.96094 15.5776C8.96094 16.0562 9.34894 16.4442 9.82756 16.4442H13.2169C13.6956 16.4442 14.0836 16.0562 14.0836 15.5776C14.0836 15.0989 13.6956 14.7109 13.2169 14.7109Z" fill="#8200BA"/>
<path d="M12.1387 1.55906C12.5677 1.77138 12.7427 2.29136 12.5295 2.72034L12.0243 3.73949L13.0434 4.2456C13.4724 4.45879 13.6475 4.9779 13.4343 5.40688C13.222 5.83587 12.7011 6.01092 12.273 5.79773L10.2806 4.80891C9.96085 4.65032 9.83086 4.26294 9.98945 3.94315L10.9783 1.94991C11.1906 1.52093 11.7106 1.34587 12.1396 1.55906H12.1387Z" fill="#8200BA"/>
<path d="M14.3886 20.0434H3.12072C1.40047 20.0434 0 18.6438 0 16.9227V10.1613C0 8.441 1.3996 7.04053 3.12072 7.04053H14.3886C16.1089 7.04053 17.5093 8.44013 17.5093 10.1613V16.9227C17.5093 18.6429 16.1097 20.0434 14.3886 20.0434ZM3.12072 8.77465C2.35549 8.77465 1.73325 9.39689 1.73325 10.1621V16.9235C1.73325 17.6879 2.35549 18.311 3.12072 18.311H14.3886C15.1538 18.311 15.7761 17.6888 15.7761 16.9235V10.1621C15.7761 9.39775 15.1538 8.77465 14.3886 8.77465H3.12072Z" fill="#8200BA"/>
<path d="M0.865234 10.8994H16.6413V12.6327H0.865234V10.8994Z" fill="#8200BA"/>
<path d="M14.7344 25.0342C11.7584 25.0342 8.95224 23.8842 6.83073 21.7974C6.04903 21.027 5.38433 20.1508 4.85742 19.1914L6.37575 18.356C6.82293 19.168 7.38451 19.9099 8.04661 20.5624C9.84139 22.3286 12.2168 23.3018 14.7352 23.3018C19.9913 23.3018 24.2681 19.025 24.2681 13.7689C24.2681 8.51286 19.9913 4.23605 14.7352 4.23605C13.7291 4.23605 12.7385 4.39204 11.793 4.69883L11.2583 3.0505C12.3771 2.68739 13.5471 2.50366 14.7352 2.50366C20.9472 2.50366 26.0014 7.55783 26.0014 13.7698C26.0014 19.9818 20.9472 25.036 14.7352 25.036L14.7344 25.0342Z" fill="#8200BA"/>
</g>
<defs>
<clipPath id="clip0_157_24985">
<rect width="26" height="26" fill="white"/>
</clipPath>
</defs>
</svg>
