<svg width="26" height="26" viewBox="0 0 26 26" fill="none" xmlns="http://www.w3.org/2000/svg">
<path fill-rule="evenodd" clip-rule="evenodd" d="M24.2778 15.142L22.9133 14.6986C22.8585 14.5488 22.798 14.4021 22.7305 14.2594L23.3825 12.9797C23.5004 12.7481 23.4587 12.4759 23.2734 12.2916L22.3811 11.3994C22.1953 11.2135 21.9246 11.1704 21.6915 11.2902L20.4134 11.9422C20.2707 11.8747 20.1239 11.8127 19.9741 11.7594L19.5308 10.3949C19.45 10.1461 19.2286 9.98461 18.9666 9.98461H17.7042C17.4421 9.98461 17.2207 10.1456 17.14 10.3949L16.6967 11.7594C16.5469 11.8127 16.4001 11.8747 16.2574 11.9422L14.9793 11.2902C14.9478 11.2745 14.9158 11.2612 14.8843 11.2511V21.4236C14.9158 21.4134 14.9478 21.4007 14.9793 21.3845L16.2574 20.7325C16.4001 20.8 16.5469 20.8604 16.6967 20.9137L17.14 22.2798C17.2207 22.5276 17.4421 22.6886 17.7042 22.6886H18.9666C19.2286 22.6886 19.45 22.5276 19.5308 22.2798L19.9741 20.9137C20.1239 20.8604 20.2707 20.8 20.4134 20.7325L21.6915 21.3845C21.9246 21.5023 22.1953 21.4607 22.3811 21.2753L23.2734 20.3831C23.4592 20.1972 23.5009 19.9266 23.3825 19.6935L22.7305 18.4153C22.798 18.2726 22.8585 18.1259 22.9133 17.9761L24.2778 17.5327C24.5266 17.452 24.6881 17.2306 24.6881 16.9686V15.7061C24.6881 15.4441 24.5266 15.2227 24.2778 15.142ZM18.3344 19.273C16.718 19.273 15.3992 17.9542 15.3992 16.3363C15.3992 14.72 16.718 13.3996 18.3344 13.3996C19.9523 13.3996 21.2711 14.7195 21.2711 16.3363C21.2705 17.9547 19.9523 19.273 18.3344 19.273ZM13.0023 6.67367H11.9832V8.65566H12.2061C12.4377 8.65566 12.6266 8.84305 12.6266 9.07461C12.6266 9.30617 12.4382 9.49355 12.2061 9.49355H3.15078C2.91922 9.49355 2.73031 9.30617 2.73031 9.07461C2.73031 8.84305 2.91871 8.65566 3.15078 8.65566H3.37371V6.67367H2.35453C1.78172 6.67367 1.3125 7.14289 1.3125 7.71723V23.6219C1.3125 24.9305 2.38195 26 3.69059 26H11.6668C12.9754 26 14.0449 24.9305 14.0449 23.6219V7.71723C14.0449 7.14289 13.5752 6.67367 13.0023 6.67367ZM4.90273 23.6189C4.90273 23.6996 4.83672 23.7656 4.75598 23.7656H3.46004C3.37777 23.7656 3.31176 23.6996 3.31176 23.6189V22.3219C3.31176 22.2412 3.37777 22.1752 3.46004 22.1752H4.75547C4.83621 22.1752 4.90223 22.2412 4.90223 22.3219V23.6189H4.90273ZM4.90273 20.6609C4.90273 20.7416 4.83672 20.8076 4.75598 20.8076H3.46004C3.37777 20.8076 3.31176 20.7416 3.31176 20.6609V19.3639C3.31176 19.2832 3.37777 19.2171 3.46004 19.2171H4.75547C4.83621 19.2171 4.90223 19.2832 4.90223 19.3639V20.6609H4.90273ZM4.90273 17.7029C4.90273 17.7836 4.83672 17.8496 4.75598 17.8496H3.46004C3.37777 17.8496 3.31176 17.7836 3.31176 17.7029V16.4074C3.31176 16.3252 3.37777 16.2591 3.46004 16.2591H4.75547C4.83621 16.2591 4.90223 16.3252 4.90223 16.4074V17.7029H4.90273ZM8.47367 23.6189C8.47367 23.6996 8.40766 23.7656 8.32691 23.7656H7.02996C6.94922 23.7656 6.8832 23.6996 6.8832 23.6189V22.3219C6.8832 22.2412 6.94922 22.1752 7.02996 22.1752H8.32691C8.40766 22.1752 8.47367 22.2412 8.47367 22.3219V23.6189ZM8.47367 20.6609C8.47367 20.7416 8.40766 20.8076 8.32691 20.8076H7.02996C6.94922 20.8076 6.8832 20.7416 6.8832 20.6609V19.3639C6.8832 19.2832 6.94922 19.2171 7.02996 19.2171H8.32691C8.40766 19.2171 8.47367 19.2832 8.47367 19.3639V20.6609ZM8.47367 17.7029C8.47367 17.7836 8.40766 17.8496 8.32691 17.8496H7.02996C6.94922 17.8496 6.8832 17.7836 6.8832 17.7029V16.4074C6.8832 16.3252 6.94922 16.2591 7.02996 16.2591H8.32691C8.40766 16.2591 8.47367 16.3252 8.47367 16.4074V17.7029ZM12.0451 23.6189C12.0451 23.6996 11.9791 23.7656 11.8984 23.7656H10.6014C10.5207 23.7656 10.4546 23.6996 10.4546 23.6189V22.3219C10.4546 22.2412 10.5207 22.1752 10.6014 22.1752H11.8984C11.9791 22.1752 12.0451 22.2412 12.0451 22.3219V23.6189ZM12.0451 20.6609C12.0451 20.7416 11.9791 20.8076 11.8984 20.8076H10.6014C10.5207 20.8076 10.4546 20.7416 10.4546 20.6609V19.3639C10.4546 19.2832 10.5207 19.2171 10.6014 19.2171H11.8984C11.9791 19.2171 12.0451 19.2832 12.0451 19.3639V20.6609ZM12.0451 17.7029C12.0451 17.7836 11.9791 17.8496 11.8984 17.8496H10.6014C10.5207 17.8496 10.4546 17.7836 10.4546 17.7029V16.4074C10.4546 16.3252 10.5207 16.2591 10.6014 16.2591H11.8984C11.9791 16.2591 12.0451 16.3252 12.0451 16.4074V17.7029ZM12.0451 13.7455C12.0451 13.8993 11.9187 14.0248 11.7643 14.0248H3.59258C3.43871 14.0248 3.31176 13.8993 3.31176 13.7455V11.0596C3.31176 10.9058 3.4382 10.7804 3.59258 10.7804H11.7643C11.9182 10.7804 12.0451 10.9058 12.0451 11.0596V13.7455ZM11.1458 8.65566H4.2116V0.722617C4.2116 0.601758 4.29082 0.499687 4.40863 0.467695C4.52543 0.436211 4.64477 0.484961 4.70672 0.590078L5.13836 1.34012C5.18711 1.4234 5.2709 1.47266 5.36738 1.47266C5.46539 1.47266 5.54867 1.42391 5.59641 1.34012L6.29465 0.132539C6.34238 0.0492578 6.42566 0 6.52367 0C6.62016 0 6.70344 0.04875 6.7527 0.132539L7.44941 1.34012C7.49816 1.4234 7.58195 1.47266 7.67996 1.47266C7.77645 1.47266 7.85973 1.42391 7.90898 1.34012L8.6057 0.132539C8.65445 0.0492578 8.73824 0 8.83473 0C8.93273 0 9.01602 0.04875 9.06375 0.132539L9.76199 1.34012C9.80973 1.4234 9.89301 1.47266 9.99102 1.47266C10.0875 1.47266 10.1708 1.42391 10.22 1.34012L10.6532 0.590078C10.7136 0.484961 10.833 0.436211 10.9498 0.467695C11.0676 0.49918 11.1468 0.601758 11.1468 0.722617V8.65566H11.1458Z" fill="#8200BA"/>
</svg>
