<svg width="26" height="26" viewBox="0 0 26 26" fill="none" xmlns="http://www.w3.org/2000/svg">
<g clip-path="url(#clip0_177_46482)">
<path d="M14.2617 17.9403V19.9593C14.2617 20.069 14.3511 20.1584 14.4608 20.1584C14.5705 20.1584 14.6598 20.069 14.6598 19.9593V17.9403C14.6598 17.8306 14.5705 17.7412 14.4608 17.7412C14.3511 17.7412 14.2617 17.8306 14.2617 17.9403Z" fill="#FF9F43"/>
<path d="M20.5469 11.6595C20.5469 11.7692 20.6363 11.8586 20.7459 11.8586H22.765C22.8747 11.8586 22.9641 11.7692 22.9641 11.6595C22.9641 11.5498 22.8747 11.4604 22.765 11.4604H20.7459C20.6363 11.4604 20.5469 11.5498 20.5469 11.6595Z" fill="#FF9F43"/>
<path d="M14.463 0.12207C8.92984 0.12207 4.16047 4.11145 3.13672 9.48613H5.59453C6.57359 5.41551 10.2095 2.52301 14.463 2.52301C19.5045 2.52301 23.6036 6.62207 23.6036 11.6596C23.6036 16.7011 19.5045 20.8002 14.463 20.8002C11.5786 20.8002 8.90141 19.4596 7.18703 17.1846C6.94328 17.4283 6.68734 17.6355 6.43141 17.8061L6.53703 18.0377C7.56484 18.7608 8.58047 20.1014 9.12078 21.893C10.758 22.7502 12.582 23.1971 14.463 23.1971C20.8248 23.1971 26.0005 18.0214 26.0005 11.6596C26.0005 5.2977 20.8248 0.12207 14.463 0.12207Z" fill="#FF9F43"/>
<path d="M14.6598 5.38283V3.35971C14.6598 3.25002 14.5705 3.16064 14.4608 3.16064C14.3511 3.16064 14.2617 3.25002 14.2617 3.35971V5.37877C14.2617 5.48846 14.3511 5.57783 14.4608 5.57783C14.5705 5.58189 14.6598 5.49252 14.6598 5.38283Z" fill="#FF9F43"/>
<path d="M17.2559 5.127C17.3331 5.127 17.4102 5.08232 17.4387 5.00513L17.8246 4.07075C17.8652 3.96919 17.8165 3.85138 17.7149 3.81075C17.6134 3.77013 17.4956 3.81482 17.4549 3.92044L17.069 4.85482C17.0284 4.95638 17.0771 5.07419 17.1787 5.11482C17.2031 5.12294 17.2315 5.127 17.2559 5.127Z" fill="#FF9F43"/>
<path d="M19.618 6.7074C19.6709 6.7074 19.7196 6.68709 19.7602 6.65053L20.4752 5.93553C20.5524 5.85834 20.5524 5.7324 20.4752 5.65115C20.398 5.57396 20.2721 5.57396 20.1909 5.65115L19.4759 6.36615C19.3987 6.44334 19.3987 6.56928 19.4759 6.65053C19.5165 6.68709 19.5693 6.7074 19.618 6.7074Z" fill="#FF9F43"/>
<path d="M21.1971 9.07183C21.2215 9.07183 21.2499 9.06777 21.2743 9.05558L22.2087 8.66964C22.3102 8.62902 22.359 8.51121 22.3184 8.40964C22.2777 8.30808 22.1599 8.25933 22.0584 8.29996L21.124 8.68589C21.0224 8.72652 20.9737 8.84433 21.0143 8.94589C21.0468 9.02714 21.1199 9.07183 21.1971 9.07183Z" fill="#FF9F43"/>
<path d="M21.2743 14.2678C21.1727 14.2272 21.0549 14.2718 21.0143 14.3775C20.9737 14.479 21.0224 14.5968 21.124 14.6375L22.0584 15.0234C22.0827 15.0356 22.1112 15.0397 22.1356 15.0397C22.2128 15.0397 22.2899 14.995 22.3184 14.9178C22.359 14.8162 22.3102 14.6984 22.2087 14.6578L21.2743 14.2678Z" fill="#FF9F43"/>
<path d="M19.4759 16.957L20.1909 17.672C20.2315 17.7126 20.2802 17.7289 20.333 17.7289C20.3859 17.7289 20.4346 17.7086 20.4752 17.672C20.5524 17.5948 20.5524 17.4689 20.4752 17.3876L19.7602 16.6726C19.683 16.5954 19.5571 16.5954 19.4759 16.6726C19.3987 16.7539 19.3987 16.8798 19.4759 16.957Z" fill="#FF9F43"/>
<path d="M17.1787 18.2122C17.0771 18.2528 17.0284 18.3706 17.069 18.4722L17.4549 19.4066C17.4874 19.4837 17.5606 19.5284 17.6377 19.5284C17.6621 19.5284 17.6906 19.5244 17.7149 19.5122C17.8165 19.4716 17.8652 19.3537 17.8246 19.2522L17.4387 18.3178C17.3981 18.2162 17.2802 18.1716 17.1787 18.2122Z" fill="#FF9F43"/>
<path d="M11.2144 19.5165C11.2388 19.5286 11.2672 19.5327 11.2916 19.5327C11.3688 19.5327 11.4459 19.488 11.4744 19.4108L11.8603 18.4765C11.9009 18.3749 11.8522 18.2571 11.7506 18.2165C11.6491 18.1758 11.5313 18.2246 11.4906 18.3261L11.1047 19.2605C11.0641 19.354 11.1088 19.4718 11.2144 19.5165Z" fill="#FF9F43"/>
<path d="M9.17133 16.6767L8.45633 17.3917C8.37914 17.4688 8.37914 17.5948 8.45633 17.676C8.49695 17.7167 8.5457 17.7329 8.59852 17.7329C8.65133 17.7329 8.70008 17.7126 8.7407 17.676L9.4557 16.961C9.53289 16.8838 9.53289 16.7579 9.4557 16.6767C9.37445 16.5954 9.24852 16.5954 9.17133 16.6767Z" fill="#FF9F43"/>
<path d="M7.65212 9.05548C7.6765 9.06767 7.70494 9.07173 7.72931 9.07173C7.8065 9.07173 7.88369 9.02704 7.91212 8.94986C7.95275 8.84829 7.904 8.73048 7.80244 8.68986L6.86806 8.30392C6.7665 8.26329 6.64869 8.30798 6.60806 8.41361C6.56744 8.51517 6.61619 8.63298 6.71775 8.67361L7.65212 9.05548Z" fill="#FF9F43"/>
<path d="M9.3057 6.7074C9.35852 6.7074 9.40727 6.68709 9.44789 6.65053C9.52508 6.57334 9.52508 6.4474 9.44789 6.36615L8.73289 5.65115C8.6557 5.57396 8.52977 5.57396 8.44852 5.65115C8.37133 5.72834 8.37133 5.85428 8.44852 5.93553L9.16352 6.65053C9.20414 6.68709 9.25695 6.7074 9.3057 6.7074Z" fill="#FF9F43"/>
<path d="M11.4862 5.00084C11.5187 5.07802 11.5918 5.12271 11.669 5.12271C11.6934 5.12271 11.7218 5.11865 11.7462 5.10646C11.8477 5.06584 11.8965 4.94802 11.8559 4.84646L11.4699 3.91209C11.4293 3.81052 11.3115 3.76177 11.2099 3.8024C11.1084 3.84302 11.0596 3.96084 11.1002 4.0624L11.4862 5.00084Z" fill="#FF9F43"/>
<path d="M13.9653 7.29256V10.6644C13.5997 10.8472 13.3438 11.2251 13.3438 11.6638C13.3438 12.2813 13.8434 12.7851 14.465 12.7851C14.5869 12.7851 14.7047 12.7607 14.8144 12.7241L18.3691 16.2788C18.4625 16.3722 18.5884 16.4251 18.7225 16.4251C18.8566 16.4251 18.9825 16.3722 19.0759 16.2788C19.2709 16.0838 19.2709 15.7669 19.0759 15.5719L15.5213 12.0172C15.5578 11.9076 15.5822 11.7897 15.5822 11.6638C15.5822 11.2251 15.3303 10.8513 14.9647 10.6685V7.29662C14.9647 7.02443 14.7372 6.79693 14.465 6.79693C14.1928 6.79287 13.9653 7.01631 13.9653 7.29256Z" fill="#FF9F43"/>
<path d="M9.23812 24.4279H9.11219C9.04719 21.3526 7.45875 18.9232 5.88656 18.0985C5.80937 18.0579 5.76062 17.9726 5.76062 17.8792C5.76062 17.7857 5.80937 17.7045 5.88656 17.6639C7.45875 16.8351 9.04719 14.4098 9.11219 11.3345H9.23812C9.52656 11.3345 9.76219 11.0989 9.76219 10.8104V10.4123C9.76219 10.1239 9.52656 9.88824 9.23812 9.88824H0.524063C0.235625 9.88417 0 10.1198 0 10.4123V10.8104C0 11.0989 0.235625 11.3345 0.524063 11.3345H0.645938C0.710938 14.4139 2.30344 16.8432 3.87562 17.6639C3.95281 17.7045 4.00156 17.7898 4.00156 17.8832C4.00156 17.9767 3.95281 18.062 3.87562 18.1026C2.30344 18.9273 0.710938 21.3526 0.645938 24.432H0.524063C0.235625 24.4279 0 24.6635 0 24.956V25.3542C0 25.6426 0.235625 25.8782 0.524063 25.8782H9.23812C9.52656 25.8782 9.76219 25.6426 9.76219 25.3542V24.956C9.76219 24.6635 9.52656 24.4279 9.23812 24.4279ZM1.28781 24.4279C1.35281 21.6289 2.80312 19.3823 4.17625 18.6632C4.46469 18.5129 4.6475 18.2123 4.6475 17.8792C4.6475 17.546 4.46875 17.2454 4.18031 17.0951C2.81125 16.3801 1.36094 14.1295 1.29188 11.3304H8.47844C8.41344 14.1214 6.96313 16.376 5.59406 17.0951C5.30562 17.2454 5.12687 17.546 5.12687 17.8792C5.12687 18.2123 5.30562 18.5129 5.59406 18.6632C6.96313 19.3823 8.41344 21.6329 8.47844 24.4279H1.28781Z" fill="#FF9F43"/>
<path d="M7.62063 13.0979C7.62063 13.0816 7.62063 13.0613 7.61656 13.0451C6.71063 12.9801 6.41 13.2076 5.22781 13.6869C4.33406 14.0485 2.95281 13.5976 2.14844 13.3091C2.25813 15.1738 3.71656 16.6526 4.88656 16.6526C6.09312 16.6526 7.62063 15.0601 7.62063 13.0979Z" fill="#FF9F43"/>
<path d="M1.85156 23.7945H7.90875C7.55937 22.3441 6.30813 21.2676 4.87813 21.2676C3.44813 21.2676 2.20094 22.3441 1.85156 23.7945Z" fill="#FF9F43"/>
</g>
<defs>
<clipPath id="clip0_177_46482">
<rect width="26" height="26" fill="white"/>
</clipPath>
</defs>
</svg>
