<svg width="20" height="20" viewBox="0 0 20 20" fill="none" xmlns="http://www.w3.org/2000/svg">
<path d="M17.5375 6.58059V17.5291C17.5375 18.5486 16.7111 19.375 15.6916 19.375H4.30785C3.28836 19.375 2.46191 18.5486 2.46191 17.5291V2.47094C2.46188 1.45145 3.28832 0.625 4.30785 0.625H11.9324L17.5375 6.58059Z" fill="#E5252A"/>
<path d="M17.5377 6.58059H13.1632C12.4836 6.58059 11.9326 6.02961 11.9326 5.34996V0.625L17.5377 6.58059Z" fill="#ED676A"/>
<path d="M6.39547 13.7929V15.0403H5.50977V11.3652H6.97594C7.25715 11.3652 7.50594 11.4169 7.72227 11.5203C7.93859 11.6236 8.10562 11.7714 8.22461 11.9625C8.34238 12.1536 8.40246 12.37 8.40246 12.6127C8.40246 12.9708 8.27387 13.2569 8.01668 13.472C7.7607 13.6859 7.40855 13.7929 6.96031 13.7929H6.39547ZM6.39547 13.109H6.97594C7.14781 13.109 7.27879 13.067 7.36891 12.9804C7.45902 12.8951 7.50352 12.7737 7.50352 12.6175C7.50352 12.4456 7.45664 12.3086 7.3641 12.2053C7.27156 12.1031 7.14539 12.0514 6.98555 12.049H6.39547V13.109Z" fill="white"/>
<path d="M8.87402 15.0403V11.3652H10.0578C10.3823 11.3652 10.6743 11.4386 10.9339 11.5864C11.1923 11.733 11.3954 11.9409 11.5408 12.2101C11.6862 12.4781 11.7595 12.7786 11.7607 13.1114V13.2809C11.7607 13.6174 11.6898 13.9191 11.548 14.1859C11.4062 14.4527 11.2055 14.6606 10.9471 14.812C10.6887 14.9622 10.4002 15.0379 10.083 15.0404H8.87402V15.0403ZM9.75977 12.0491V14.3589H10.0674C10.3222 14.3589 10.5169 14.2688 10.6527 14.0873C10.7897 13.907 10.8582 13.6379 10.8582 13.2809V13.1223C10.8582 12.7665 10.7897 12.4997 10.6527 12.3195C10.5169 12.1392 10.3186 12.0491 10.0578 12.0491H9.75977Z" fill="white"/>
<path d="M14.5305 13.5765H13.1015V15.0403H12.2158V11.3652H14.6735V12.0491H13.1015V12.8951H14.5305V13.5765Z" fill="white"/>
</svg>
