<svg width="28" height="28" viewBox="0 0 28 28" fill="none" xmlns="http://www.w3.org/2000/svg">
<g clip-path="url(#clip0_202_50097)">
<path d="M21.8748 15.2591C22.5407 15.2591 22.9297 14.5044 22.5423 13.9619L20.5832 11.2193L21.6714 7.34079C21.8433 6.728 21.2785 6.15584 20.6599 6.32937L16.7815 7.41752L14.0388 5.45843C13.4969 5.07151 12.7416 5.45942 12.7416 6.12597V9.64809L9.57651 11.9708C8.98986 12.4012 9.21512 13.3285 9.93347 13.4423L11.0958 13.6264L1.06983 22.5061C-0.293526 23.6993 -0.364185 25.8018 0.91741 27.0833C2.19846 28.3644 4.30247 28.2933 5.49142 26.9345L14.3743 16.9048L14.5584 18.0672C14.6722 18.7853 15.5997 19.0108 16.03 18.4241L18.3526 15.259H21.8748V15.2591ZM4.25992 25.8504C3.68618 26.5061 2.68476 26.5305 2.07754 25.9231C1.47502 25.3207 1.48755 24.3209 2.15399 23.7376L9.27162 17.4338L10.5669 18.7291L4.25992 25.8504ZM11.6567 17.4987L10.5021 16.3441L13.1951 13.9589L13.926 14.0747L14.0418 14.8056L11.6567 17.4987ZM17.2758 13.9535L15.8711 15.8675C14.6288 8.02469 16.6728 20.9288 15.4532 13.2294C15.3976 12.8784 15.1223 12.6031 14.7713 12.5475C14.1844 12.4545 12.6761 12.2156 12.1331 12.1296L14.0472 10.7249C14.2579 10.5704 14.3822 10.3248 14.3822 10.0636V7.71996L16.1477 8.98104C16.35 9.12553 16.6068 9.1706 16.8461 9.10333L19.6972 8.30338L18.8973 11.1545C18.8301 11.3938 18.8752 11.6507 19.0196 11.853L20.2807 13.6184H17.9371C17.6759 13.6184 17.4303 13.7428 17.2758 13.9535Z" fill="#C700E1"/>
<path d="M24.5547 2.95323H25.0469V3.44544C25.0469 3.89849 25.4142 4.26578 25.8673 4.26578C26.3203 4.26578 26.6876 3.89849 26.6876 3.44544V2.95323H27.1798C27.6329 2.95323 28.0002 2.58594 28.0002 2.13289C28.0002 1.67984 27.6329 1.31255 27.1798 1.31255H26.6876V0.820343C26.6876 0.367295 26.3203 0 25.8673 0C25.4142 0 25.0469 0.367295 25.0469 0.820343V1.31255H24.5547C24.1017 1.31255 23.7344 1.67984 23.7344 2.13289C23.7344 2.58594 24.1016 2.95323 24.5547 2.95323Z" fill="#C700E1"/>
<path d="M15.75 3.88292H16.2422V4.37513C16.2422 4.82818 16.6095 5.19547 17.0626 5.19547C17.5156 5.19547 17.8829 4.82818 17.8829 4.37513V3.88292H18.3751C18.8282 3.88292 19.1955 3.51563 19.1955 3.06258C19.1955 2.60953 18.8282 2.24224 18.3751 2.24224H17.8829V1.75003C17.8829 1.29698 17.5156 0.929688 17.0626 0.929688C16.6095 0.929688 16.2422 1.29698 16.2422 1.75003V2.24224H15.75C15.297 2.24224 14.9297 2.60953 14.9297 3.06258C14.9297 3.51563 15.2969 3.88292 15.75 3.88292Z" fill="#C700E1"/>
<path d="M24.1172 12.2501C24.1172 12.7032 24.4845 13.0705 24.9376 13.0705C25.3906 13.0705 25.7579 12.7032 25.7579 12.2501V11.7579H26.2501C26.7032 11.7579 27.0705 11.3906 27.0705 10.9376C27.0705 10.4845 26.7032 10.1172 26.2501 10.1172H25.7579V9.62503C25.7579 9.17198 25.3906 8.80469 24.9376 8.80469C24.4845 8.80469 24.1172 9.17198 24.1172 9.62503V10.1172H23.625C23.172 10.1172 22.8047 10.4845 22.8047 10.9376C22.8047 11.3906 23.172 11.7579 23.625 11.7579H24.1172V12.2501Z" fill="#C700E1"/>
<path d="M27.1798 17.9922H26.6876V17.5C26.6876 17.047 26.3203 16.6797 25.8673 16.6797C25.4142 16.6797 25.0469 17.047 25.0469 17.5V17.9922H24.5547C24.1017 17.9922 23.7344 18.3595 23.7344 18.8126C23.7344 19.2656 24.1017 19.6329 24.5547 19.6329H25.0469V20.1251C25.0469 20.5782 25.4142 20.9455 25.8673 20.9455C26.3203 20.9455 26.6876 20.5782 26.6876 20.1251V19.6329H27.1798C27.6329 19.6329 28.0002 19.2656 28.0002 18.8126C28.0002 18.3595 27.6329 17.9922 27.1798 17.9922Z" fill="#C700E1"/>
<path d="M7.87503 2.95323H8.36724V3.44544C8.36724 3.89849 8.73453 4.26578 9.18758 4.26578C9.64063 4.26578 10.0079 3.89849 10.0079 3.44544V2.95323H10.5001C10.9532 2.95323 11.3205 2.58594 11.3205 2.13289C11.3205 1.67984 10.9532 1.31255 10.5001 1.31255H10.0079V0.820343C10.0079 0.367295 9.64063 0 9.18758 0C8.73453 0 8.36724 0.367295 8.36724 0.820343V1.31255H7.87503C7.42198 1.31255 7.05469 1.67984 7.05469 2.13289C7.05469 2.58594 7.42193 2.95323 7.87503 2.95323Z" fill="#C700E1"/>
<path d="M4.84313 6.39988L7.90574 8.14995C8.29732 8.37379 8.79921 8.23986 9.02502 7.84473C9.24979 7.45134 9.11313 6.95028 8.7198 6.72545L5.65718 4.97538C5.26391 4.75067 4.76274 4.88728 4.53791 5.28061C4.31313 5.67404 4.4498 6.17511 4.84313 6.39988Z" fill="#C700E1"/>
<path d="M3.06159 11.3206C3.13465 11.3206 2.8227 11.3569 6.66448 10.8767C7.11408 10.8205 7.43297 10.4105 7.3767 9.96096C7.32053 9.51135 6.91042 9.19191 6.46098 9.24873L2.96085 9.68625C2.51124 9.74242 2.19235 10.1524 2.24863 10.602C2.30047 11.017 2.65382 11.3206 3.06159 11.3206Z" fill="#C700E1"/>
<path d="M21.2749 19.2807C21.0501 18.8873 20.549 18.7506 20.1556 18.9755C19.7623 19.2002 19.6256 19.7013 19.8504 20.0947L21.6005 23.1574C21.7519 23.4223 22.0287 23.5709 22.3135 23.5709C22.9325 23.5709 23.3407 22.8959 23.025 22.3434L21.2749 19.2807Z" fill="#C700E1"/>
<path d="M18.0394 20.6236C17.5897 20.5673 17.1798 20.8864 17.1237 21.3359L16.6861 24.836C16.6251 25.3241 17.0052 25.7582 17.5011 25.7582C17.9088 25.7582 18.2622 25.4545 18.3141 25.0394L18.7516 21.5393C18.8079 21.0898 18.489 20.6798 18.0394 20.6236Z" fill="#C700E1"/>
</g>
<defs>
<clipPath id="clip0_202_50097">
<rect width="28" height="28" fill="white"/>
</clipPath>
</defs>
</svg>
