<svg width="22" height="22" viewBox="0 0 22 22" fill="none" xmlns="http://www.w3.org/2000/svg">
<g clip-path="url(#clip0_507_29888)">
<path fill-rule="evenodd" clip-rule="evenodd" d="M5.42053 0H16.5787C19.4606 0 21.8187 2.35688 21.8187 5.23991V16.7598C21.8187 19.6417 19.4606 21.9997 16.5787 21.9997H5.42053C2.5387 21.9997 0.180664 19.6417 0.180664 16.7598V5.23991C0.180664 2.35688 2.5387 0 5.42053 0Z" fill="#8200BA"/>
<path d="M6.7841 16.3629H15.2164C15.3236 16.3629 15.4101 16.4494 15.4101 16.5565V17.6333C15.4101 17.7404 15.3236 17.8269 15.2164 17.8269H6.7841C6.6769 17.8269 6.59044 17.7404 6.59044 17.6333V16.5565C6.5904 16.4494 6.6769 16.3629 6.7841 16.3629ZM10.8632 15.1303L6.71587 10.9817C6.64158 10.9086 6.5941 10.8173 6.57459 10.7199C6.55633 10.6249 6.56483 10.5238 6.60501 10.4263C6.64523 10.3301 6.71097 10.2509 6.79257 10.1961C6.87541 10.1413 6.97282 10.1109 7.07638 10.1109H9.03249V4.36553C9.03249 4.25837 9.11898 4.17188 9.22615 4.17188H12.7742C12.8802 4.17188 12.9679 4.25837 12.9679 4.36553V10.1109H14.924C15.0275 10.1109 15.1249 10.1414 15.2077 10.1961C15.2893 10.251 15.3551 10.3301 15.3953 10.4263C15.4355 10.5238 15.444 10.6249 15.4258 10.7199C15.4063 10.8173 15.3588 10.9087 15.2845 10.9817L11.1371 15.1303C11.0617 15.2058 10.9388 15.2058 10.8632 15.1303Z" fill="white"/>
</g>
<defs>
<clipPath id="clip0_507_29888">
<rect width="22" height="22" fill="white"/>
</clipPath>
</defs>
</svg>
