<svg width="81" height="80" viewBox="0 0 81 80" fill="none" xmlns="http://www.w3.org/2000/svg">
<rect x="0.5" width="80" height="80" rx="40" fill="#FFEFDF"/>
<path d="M26.5 37.6899V42.9919C26.5 44.7869 27.955 46.2409 29.749 46.2409H41.452C43.247 46.2409 44.701 44.7859 44.701 42.9919V37.6899H26.5ZM40.753 43.0879H36.842C36.29 43.0879 35.842 42.6399 35.842 42.0879C35.842 41.5359 36.29 41.0879 36.842 41.0879H40.753C41.305 41.0879 41.753 41.5359 41.753 42.0879C41.753 42.6399 41.305 43.0879 40.753 43.0879Z" fill="#FF9F43"/>
<path d="M39.5062 25.9119C40.0012 26.1569 40.2032 26.7569 39.9572 27.2519L39.3742 28.4279L40.5502 29.0119C41.0452 29.2579 41.2472 29.8569 41.0012 30.3519C40.7562 30.8469 40.1552 31.0489 39.6612 30.8029L37.3622 29.6619C36.9932 29.4789 36.8432 29.0319 37.0262 28.6629L38.1672 26.3629C38.4122 25.8679 39.0122 25.6659 39.5072 25.9119H39.5062Z" fill="#FF9F43"/>
<path d="M42.103 47.2411H29.101C27.116 47.2411 25.5 45.6261 25.5 43.6401V35.8381C25.5 33.8531 27.115 32.2371 29.101 32.2371H42.103C44.088 32.2371 45.704 33.8521 45.704 35.8381V43.6401C45.704 45.6251 44.089 47.2411 42.103 47.2411ZM29.101 34.2381C28.218 34.2381 27.5 34.9561 27.5 35.8391V43.6411C27.5 44.5231 28.218 45.2421 29.101 45.2421H42.103C42.986 45.2421 43.704 44.5241 43.704 43.6411V35.8391C43.704 34.9571 42.986 34.2381 42.103 34.2381H29.101Z" fill="#FF9F43"/>
<path d="M26.498 36.6899H44.702V38.6899H26.498V36.6899Z" fill="#FF9F43"/>
<path d="M42.4995 53C39.0655 53 35.8275 51.673 33.3795 49.265C32.4775 48.376 31.7105 47.365 31.1025 46.258L32.8545 45.294C33.3705 46.231 34.0185 47.087 34.7825 47.84C36.8535 49.878 39.5945 51.001 42.5005 51.001C48.5655 51.001 53.5005 46.066 53.5005 40.001C53.5005 33.936 48.5655 29.001 42.5005 29.001C41.3395 29.001 40.1965 29.181 39.1055 29.535L38.4885 27.633C39.7795 27.214 41.1295 27.002 42.5005 27.002C49.6685 27.002 55.5005 32.834 55.5005 40.002C55.5005 47.17 49.6685 53.002 42.5005 53.002L42.4995 53Z" fill="#FF9F43"/>
</svg>
