<svg width="36" height="36" viewBox="0 0 36 36" fill="none" xmlns="http://www.w3.org/2000/svg">
<rect width="36" height="36" rx="8" fill="#FFF1F0"/>
<g clip-path="url(#clip0_3004_15919)">
<path d="M19.986 7.16969C17.6326 6.75376 15.2186 7.10624 13.0898 8.18533L13.6726 9.33441C15.5508 8.38104 17.6823 8.07086 19.7619 8.43827C25.0212 9.3663 28.5297 14.416 27.6024 19.6781C27.3036 21.3705 26.578 22.9444 25.4981 24.2306L25.7732 22.6274L24.5046 22.4035L23.8332 26.2539L27.6401 26.9247L27.8642 25.6562L26.2183 25.3656C27.5817 23.849 28.5143 21.9248 28.871 19.9022C29.923 13.9398 25.9487 8.22058 19.986 7.16969Z" fill="#EB3D4D"/>
<path d="M16.1384 28.8301C18.4006 29.2312 20.8287 28.934 23.0344 27.8146L22.4518 26.6655C20.5729 27.6182 18.4395 27.9272 16.3623 27.5615C11.1031 26.6336 7.5515 21.5838 8.47885 16.3218C8.77779 14.6292 9.54636 13.0555 10.6261 11.7693L10.351 13.3294L11.6196 13.5535L12.291 9.74591L8.48423 9.0752L8.26015 10.3438L9.90605 10.6343C8.54264 12.151 7.56694 14.075 7.21044 16.0977C6.15821 22.06 10.1756 27.7792 16.1384 28.8301Z" fill="#EB3D4D"/>
<path d="M12.2422 14.4463C12.2422 13.894 12.6899 13.4463 13.2422 13.4463H22.8835C23.4358 13.4463 23.8835 13.894 23.8835 14.4463V15.0667C23.8835 15.619 23.4358 16.0667 22.8835 16.0667H13.2422C12.6899 16.0667 12.2422 15.619 12.2422 15.0667V14.4463Z" fill="#EB3D4D"/>
<path d="M23.8835 18.3555C23.8835 17.8032 23.4358 17.3555 22.8835 17.3555H13.2422C12.6899 17.3555 12.2422 17.8032 12.2422 18.3555V21.5104C12.2422 22.0627 12.6899 22.5104 13.2422 22.5104H22.8835C23.4358 22.5104 23.8835 22.0627 23.8835 21.5104V18.3555ZM16.1084 19.9329C16.1084 20.2888 15.8199 20.5773 15.464 20.5773C15.1081 20.5773 14.8196 20.2888 14.8196 19.9329C14.8196 19.5771 15.1081 19.2886 15.464 19.2886C15.8199 19.2886 16.1084 19.5771 16.1084 19.9329ZM18.6858 19.9329C18.6858 20.2888 18.3973 20.5773 18.0415 20.5773C17.6856 20.5773 17.3971 20.2888 17.3971 19.9329C17.3971 19.5771 17.6856 19.2886 18.0415 19.2886C18.3973 19.2886 18.6858 19.5771 18.6858 19.9329ZM21.3061 19.9329C21.3061 20.2888 21.0176 20.5773 20.6617 20.5773C20.3058 20.5773 20.0173 20.2888 20.0173 19.9329C20.0173 19.5771 20.3058 19.2886 20.6617 19.2886C21.0176 19.2886 21.3061 19.5771 21.3061 19.9329Z" fill="#EB3D4D"/>
</g>
<defs>
<clipPath id="clip0_3004_15919">
<rect width="22" height="22" fill="white" transform="translate(7 7)"/>
</clipPath>
</defs>
</svg>
