<svg width="48" height="48" viewBox="0 0 48 48" fill="none" xmlns="http://www.w3.org/2000/svg">
<path d="M21 4C30.4 4 38 11.6 38 21C38 24.9998 36.6002 28.7997 34.4004 31.5996L43.4004 40.5996C44.2004 41.3996 44.2004 42.6004 43.4004 43.4004C43.0004 43.8004 42.4 44 42 44C41.6 44 40.9996 43.8004 40.5996 43.4004L31.5996 34.4004C28.5997 36.6002 24.9998 38 21 38C11.6 38 4 30.4 4 21C4 11.6 11.6 4 21 4ZM21 8C13.8 8 8 13.8 8 21C8 28.2 13.8 34 21 34C24.6 34 27.8002 32.6002 30.2002 30.2002C32.6002 27.8002 34 24.6 34 21C34 13.8 28.2 8 21 8Z" fill="#333843"/>
<mask id="mask0_3134_14662" style="mask-type:luminance" maskUnits="userSpaceOnUse" x="4" y="4" width="40" height="40">
<path d="M21 4C30.4 4 38 11.6 38 21C38 24.9998 36.6002 28.7997 34.4004 31.5996L43.4004 40.5996C44.2004 41.3996 44.2004 42.6004 43.4004 43.4004C43.0004 43.8004 42.4 44 42 44C41.6 44 40.9996 43.8004 40.5996 43.4004L31.5996 34.4004C28.5997 36.6002 24.9998 38 21 38C11.6 38 4 30.4 4 21C4 11.6 11.6 4 21 4ZM21 8C13.8 8 8 13.8 8 21C8 28.2 13.8 34 21 34C24.6 34 27.8002 32.6002 30.2002 30.2002C32.6002 27.8002 34 24.6 34 21C34 13.8 28.2 8 21 8Z" fill="white"/>
</mask>
<g mask="url(#mask0_3134_14662)">
<rect width="48" height="48" fill="#BF1EE1"/>
</g>
</svg>
