<svg width="54" height="54" viewBox="0 0 54 54" fill="none" xmlns="http://www.w3.org/2000/svg">
<rect width="54" height="54" rx="8" fill="#F7E9FF"/>
<path d="M38 27.1289V34.5625C38 36.458 36.458 38 34.5625 38H19.4375C17.542 38 16 36.458 16 34.5625V19.4375C16 17.542 17.542 16 19.4375 16H26.9141C27.3887 16 27.7734 16.3847 27.7734 16.8594C27.7734 17.334 27.3887 17.7188 26.9141 17.7188H19.4375C18.4898 17.7188 17.7188 18.4898 17.7188 19.4375V34.5625C17.7188 35.5102 18.4898 36.2812 19.4375 36.2812H34.5625C35.5102 36.2812 36.2812 35.5102 36.2812 34.5625V27.1289C36.2812 26.6542 36.666 26.2695 37.1406 26.2695C37.6153 26.2695 38 26.6542 38 27.1289ZM27.7377 23.983C27.754 24.0167 27.7723 24.0496 27.7926 24.0808C27.8577 24.181 28.0096 24.411 28.1811 24.6465L25.3611 27.4664C25.0255 27.8021 25.0255 28.3463 25.3611 28.6818C25.5288 28.8497 25.7489 28.9336 25.9688 28.9336C26.1886 28.9336 26.4087 28.8497 26.5764 28.682L28.1323 27.1261C28.1692 27.1935 28.205 27.2615 28.2382 27.3275C28.3923 27.6526 28.4703 27.9804 28.4703 28.3022C28.4703 29.1813 27.968 30.1525 27.017 31.1117L26.9377 31.1804C26.9063 31.2076 26.877 31.237 26.8498 31.2683L26.7815 31.3472C25.8214 32.2984 24.8504 32.8008 23.9717 32.8008C23.4871 32.8008 23.039 32.6514 22.6036 32.3446C22.588 32.3308 22.5719 32.3174 22.5554 32.3046L22.4718 32.2407C22.3476 32.1455 22.2248 32.0374 22.1068 31.9194C21.525 31.3385 21.2422 30.7339 21.2422 30.0713C21.2422 29.1919 21.7447 28.2207 22.6957 27.2613L22.7751 27.1927C22.8062 27.1657 22.8354 27.1366 22.8622 27.1056L22.9309 27.0264C23.6833 26.2806 24.4126 25.8174 25.099 25.6493C25.5599 25.5365 25.8422 25.0713 25.7292 24.6102C25.6164 24.1493 25.1513 23.867 24.6903 23.9798C23.6882 24.2252 22.6806 24.8479 21.6952 25.8313C21.6804 25.8461 21.6662 25.8612 21.6526 25.8769L21.6034 25.9337L21.5467 25.9828C21.5309 25.9964 21.5156 26.0107 21.501 26.0253C20.2072 27.3211 19.5234 28.7201 19.5234 30.0713C19.5234 31.1977 19.984 32.2288 20.8922 33.1356C21.0631 33.3063 21.2427 33.4641 21.4261 33.6048L21.4538 33.6259C21.4782 33.6487 21.504 33.6702 21.5311 33.69C22.2786 34.2406 23.0997 34.5195 23.9717 34.5195C25.322 34.5195 26.721 33.8357 28.0175 32.5421C28.0324 32.5272 28.0467 32.5117 28.0605 32.4958L28.1091 32.4396L28.1657 32.3907C28.1815 32.377 28.1969 32.3627 28.2117 32.3479C29.5053 31.0522 30.1891 29.6532 30.1891 28.3022C30.1891 27.7196 30.0533 27.14 29.7856 26.5795C29.7834 26.5748 29.7812 26.5701 29.7789 26.5656C29.7183 26.4444 29.5707 26.1584 29.3893 25.8689L32.1623 23.0959C32.4978 22.7604 32.4978 22.2162 32.1623 21.8805C31.8266 21.545 31.2824 21.545 30.9469 21.8805L29.4143 23.4131C29.3631 23.3391 29.3126 23.2642 29.2658 23.1934C29.1244 22.882 29.0529 22.5683 29.0529 22.2602C29.0529 21.381 29.5555 20.41 30.5063 19.4506L30.5857 19.3819C30.6171 19.3548 30.6465 19.3255 30.6735 19.2942L30.7416 19.2151C31.7019 18.2641 32.673 17.7616 33.5516 17.7616C34.0361 17.7616 34.4845 17.9109 34.9198 18.2179C34.9355 18.2317 34.9514 18.2449 34.968 18.2577L35.0514 18.3217C35.1755 18.4168 35.2983 18.5249 35.4167 18.6429C35.9984 19.2238 36.2812 19.8284 36.2812 20.4912C36.2812 21.3704 35.7787 22.3416 34.8277 23.301L34.7483 23.3698C34.7173 23.3967 34.688 23.4259 34.6612 23.4569L34.5927 23.536C33.8547 24.2666 33.1039 24.7186 32.361 24.8796C31.8973 24.98 31.6025 25.4375 31.7031 25.9013C31.7902 26.3039 32.1463 26.5789 32.5421 26.5789C32.6024 26.5789 32.6635 26.5727 32.7247 26.5592C33.8022 26.3261 34.8463 25.7109 35.8284 24.731C35.8432 24.7164 35.8573 24.7012 35.871 24.6854L35.92 24.6287L35.9769 24.5795C35.9926 24.5659 36.0078 24.5516 36.0224 24.537C37.3162 23.2414 38 21.8424 38 20.4912C38 19.3648 37.5394 18.3337 36.6312 17.4269C36.4602 17.256 36.2806 17.0982 36.0973 16.9577L36.0694 16.9362C36.0451 16.9136 36.0192 16.8923 35.9924 16.8725C35.245 16.3219 34.4237 16.0428 33.5517 16.0428C32.2016 16.0428 30.8026 16.7266 29.506 18.0204C29.4912 18.0351 29.4767 18.0506 29.463 18.0665L29.4143 18.1229L29.3576 18.1719C29.3418 18.1855 29.3265 18.1998 29.3118 18.2146C28.0182 19.5102 27.3344 20.9093 27.3344 22.2603C27.3344 22.8429 27.47 23.4225 27.7377 23.983Z" fill="#8200BA"/>
</svg>
