<svg width="65" height="64" viewBox="0 0 65 64" fill="none" xmlns="http://www.w3.org/2000/svg">
<path d="M32.5 7.99988C19.25 7.99988 8.5 18.7499 8.5 31.9999C8.5 45.2499 19.25 55.9999 32.5 55.9999C45.75 55.9999 56.5 45.2499 56.5 31.9999C56.5 18.7499 45.75 7.99988 32.5 7.99988ZM31.75 45.9999C31.2555 45.9999 30.7722 45.8532 30.3611 45.5785C29.9499 45.3038 29.6295 44.9134 29.4403 44.4566C29.2511 43.9998 29.2016 43.4971 29.298 43.0121C29.3945 42.5272 29.6326 42.0817 29.9822 41.7321C30.3319 41.3825 30.7773 41.1444 31.2623 41.0479C31.7472 40.9514 32.2499 41.001 32.7067 41.1902C33.1635 41.3794 33.554 41.6998 33.8287 42.1109C34.1034 42.5221 34.25 43.0054 34.25 43.4999C34.25 44.1629 33.9866 44.7988 33.5178 45.2676C33.0489 45.7365 32.413 45.9999 31.75 45.9999V45.9999ZM35.93 33.2499C33.9037 34.6099 33.625 35.8561 33.625 36.9999C33.625 37.464 33.4406 37.9091 33.1124 38.2373C32.7842 38.5655 32.3391 38.7499 31.875 38.7499C31.4109 38.7499 30.9657 38.5655 30.6376 38.2373C30.3094 37.9091 30.125 37.464 30.125 36.9999C30.125 34.2611 31.385 32.0836 33.9775 30.3424C36.3875 28.7249 37.75 27.6999 37.75 25.4461C37.75 23.9136 36.875 22.7499 35.0637 21.8886C34.6375 21.6861 33.6887 21.4886 32.5212 21.5024C31.0562 21.5211 29.9187 21.8711 29.0425 22.5761C27.39 23.9061 27.25 25.3536 27.25 25.3749C27.2389 25.6047 27.1827 25.8301 27.0845 26.0381C26.9863 26.2462 26.8481 26.4329 26.6778 26.5876C26.5074 26.7423 26.3083 26.8619 26.0917 26.9396C25.8752 27.0173 25.6454 27.0516 25.4156 27.0405C25.1858 27.0294 24.9604 26.9732 24.7523 26.875C24.5443 26.7768 24.3576 26.6386 24.2029 26.4683C24.0482 26.2979 23.9286 26.0988 23.8509 25.8822C23.7732 25.6657 23.7389 25.4359 23.75 25.2061C23.7637 24.9024 23.975 22.1661 26.8462 19.8561C28.335 18.6586 30.2287 18.0361 32.4712 18.0086C34.0587 17.9899 35.55 18.2586 36.5612 18.7361C39.5875 20.1674 41.25 22.5536 41.25 25.4461C41.25 29.6749 38.4237 31.5736 35.93 33.2499Z" fill="#C920BF"/>
</svg>
