<svg width="48" height="48" viewBox="0 0 48 48" fill="none" xmlns="http://www.w3.org/2000/svg">
<path d="M6 14C6 12.8954 6.89543 12 8 12H40C41.1046 12 42 12.8954 42 14C42 15.1046 41.1046 16 40 16H8C6.89543 16 6 15.1046 6 14Z" fill="#8200BA"/>
<path d="M6 24C6 22.8954 6.89543 22 8 22H40C41.1046 22 42 22.8954 42 24C42 25.1046 41.1046 26 40 26H8C6.89543 26 6 25.1046 6 24Z" fill="#8200BA"/>
<path d="M8 32C6.89543 32 6 32.8954 6 34C6 35.1046 6.89543 36 8 36H40C41.1046 36 42 35.1046 42 34C42 32.8954 41.1046 32 40 32H8Z" fill="#8200BA"/>
</svg>
