<svg width="81" height="80" viewBox="0 0 81 80" fill="none" xmlns="http://www.w3.org/2000/svg">
<path d="M40.5 5C21.1539 5 5.5 20.6553 5.5 40C5.5 59.3461 21.1553 75 40.5 75C59.8461 75 75.5 59.3447 75.5 40C75.5 20.6539 59.8447 5 40.5 5ZM40.5 69.5312C24.1767 69.5312 10.9688 56.3222 10.9688 40C10.9688 23.6767 24.1778 10.4688 40.5 10.4688C56.8233 10.4688 70.0312 23.6778 70.0312 40C70.0312 56.3233 56.8222 69.5312 40.5 69.5312Z" fill="#FF9F43"/>
<path d="M40.5 22.6191C38.9898 22.6191 37.7656 23.8433 37.7656 25.3535V42.9619C37.7656 44.4721 38.9898 45.6963 40.5 45.6963C42.0102 45.6963 43.2344 44.4721 43.2344 42.9619V25.3535C43.2344 23.8433 42.0102 22.6191 40.5 22.6191Z" fill="#FF9F43"/>
<path d="M40.5 56.4277C42.5387 56.4277 44.1914 54.775 44.1914 52.7363C44.1914 50.6976 42.5387 49.0449 40.5 49.0449C38.4613 49.0449 36.8086 50.6976 36.8086 52.7363C36.8086 54.775 38.4613 56.4277 40.5 56.4277Z" fill="#FF9F43"/>
</svg>
