<svg width="20" height="20" viewBox="0 0 20 20" fill="none" xmlns="http://www.w3.org/2000/svg">
<g clip-path="url(#clip0_510_31038)">
<path d="M10 2.91699H19.5833V17.0837H10V2.91699Z" fill="white"/>
<path d="M19.583 17.5H11.2497C11.0194 17.5 10.833 17.3136 10.833 17.0833C10.833 16.853 11.0194 16.6667 11.2497 16.6667H19.1663V3.33333H11.2497C11.0194 3.33333 10.833 3.14697 10.833 2.91667C10.833 2.68636 11.0194 2.5 11.2497 2.5H19.583C19.8133 2.5 19.9997 2.68636 19.9997 2.91667V17.0833C19.9997 17.3136 19.8133 17.5 19.583 17.5Z" fill="#015CAB"/>
<path d="M11.6667 0L0 2.17391V17.8261L11.6667 20V0Z" fill="#015CAB"/>
<path opacity="0.2" d="M0 2.17392V2.38225L11.6667 0.208333V0L0 2.17392Z" fill="white"/>
<path opacity="0.1" d="M0 17.8265L11.6667 20.0004V19.7921L0 17.6182V17.8265Z" fill="black"/>
<path d="M11.25 4.58301H17.9167V5.41634H11.25V4.58301Z" fill="#015CAB"/>
<path d="M11.25 7.08301H17.9167V7.91634H11.25V7.08301Z" fill="#015CAB"/>
<path d="M11.25 9.58301H17.9167V10.4163H11.25V9.58301Z" fill="#015CAB"/>
<path d="M11.25 12.083H17.9167V12.9163H11.25V12.083Z" fill="#015CAB"/>
<path d="M11.25 14.583H17.9167V15.4163H11.25V14.583Z" fill="#015CAB"/>
<path d="M19.5837 17.5C19.814 17.5 20.0003 17.3136 20.0003 17.0833V10.8333L11.667 2.5V17.5H19.5837Z" fill="url(#paint0_linear_510_31038)"/>
<path d="M6.61415 13.7761L7.49988 13.8393L9.34431 6.8623L8.02544 6.9565L7.06175 10.5693C7.06175 10.5693 6.57163 8.78623 6.10629 7.09358L4.69857 7.19413L3.77073 10.5693L2.90459 7.32226L1.63379 7.41305L3.25239 13.5359L4.26624 13.6084L5.41624 9.58335C5.41624 9.58335 6.07664 11.8949 6.61415 13.7761Z" fill="white"/>
<path opacity="0.05" d="M11.6667 0L0 2.17391V17.8261L11.6667 20V0Z" fill="url(#paint1_linear_510_31038)"/>
<path d="M19.5833 2.5H11.6667V0L0 2.17392V17.8261L11.6667 20V17.5H19.5833C19.8136 17.5 20 17.3136 20 17.0833V2.91667C20 2.68636 19.8136 2.5 19.5833 2.5Z" fill="url(#paint2_linear_510_31038)"/>
</g>
<defs>
<linearGradient id="paint0_linear_510_31038" x1="7.91699" y1="6.25" x2="19.462" y2="17.795" gradientUnits="userSpaceOnUse">
<stop stop-opacity="0.1"/>
<stop offset="1" stop-opacity="0"/>
</linearGradient>
<linearGradient id="paint1_linear_510_31038" x1="-0.110447" y1="10.1534" x2="11.5766" y2="10.1534" gradientUnits="userSpaceOnUse">
<stop stop-color="white"/>
<stop offset="1"/>
</linearGradient>
<linearGradient id="paint2_linear_510_31038" x1="-1.3025" y1="4.96833" x2="20.8708" y2="15.3075" gradientUnits="userSpaceOnUse">
<stop stop-color="white" stop-opacity="0.2"/>
<stop offset="1" stop-color="white" stop-opacity="0"/>
</linearGradient>
<clipPath id="clip0_510_31038">
<rect width="20" height="20" fill="white"/>
</clipPath>
</defs>
</svg>
