<svg width="22" height="22" viewBox="0 0 22 22" fill="none" xmlns="http://www.w3.org/2000/svg">
<g clip-path="url(#clip0_3049_15140)">
<mask id="mask0_3049_15140" style="mask-type:luminance" maskUnits="userSpaceOnUse" x="0" y="-1" width="23" height="23">
<path d="M22.006 10.9952C22.006 12.4401 21.7214 13.8709 21.1684 15.2058C20.6155 16.5408 19.805 17.7537 18.7833 18.7755C17.7616 19.7972 16.5486 20.6077 15.2137 21.1606C13.8787 21.7136 12.4479 21.9982 11.003 21.9982C9.55806 21.9982 8.12727 21.7136 6.79233 21.1606C5.45738 20.6077 4.24442 19.7972 3.2227 18.7755C2.20098 17.7537 1.3905 16.5408 0.837551 15.2058C0.284599 13.8709 -2.15312e-08 12.4401 0 10.9952C-2.15312e-08 9.55024 0.284599 8.11946 0.837551 6.78452C1.3905 5.44957 2.20098 4.23661 3.2227 3.21489C4.24442 2.19317 5.45738 1.38269 6.79233 0.82974C8.12727 0.276788 9.55806 -0.0078125 11.003 -0.0078125C12.4479 -0.0078125 13.8787 0.276788 15.2137 0.82974C16.5486 1.38269 17.7616 2.19317 18.7833 3.21489C19.805 4.23661 20.6155 5.44957 21.1684 6.78452C21.7214 8.11946 22.006 9.55024 22.006 10.9952Z" fill="white"/>
</mask>
<g mask="url(#mask0_3049_15140)">
<path d="M1.44805 0C0.645545 0 0 0.646977 0 1.44948V20.552C0 21.3545 0.645545 22 1.44805 22H20.5505C21.353 22 22 21.3545 22 20.552V1.44948C22 0.646977 21.353 0 20.5505 0H1.44805Z" fill="#039D55"/>
<path fill-rule="evenodd" clip-rule="evenodd" d="M8.8652 5.51564C8.84933 5.51517 8.82559 5.52403 8.7923 5.54378C8.71747 5.59394 8.56919 5.74844 8.56465 5.92619C8.56011 6.02648 8.54118 6.02608 8.60685 6.0899C8.65429 6.1583 8.70167 6.15157 8.79742 6.10141C8.85241 6.0609 8.87098 6.03506 8.8895 5.96712C8.91231 5.85319 8.76961 6.02103 8.75137 5.89422C8.71948 5.77649 8.81059 5.72807 8.89718 5.61413C8.89916 5.56047 8.90012 5.51667 8.8652 5.51564ZM10.2593 5.52332C10.2325 5.52692 10.1998 5.56118 10.1544 5.64354C10.1218 5.7298 9.98144 5.86034 10.0828 6.12955C10.1656 6.30024 10.1997 6.57766 10.1621 6.88669C10.1046 6.97452 10.0915 7.00479 10.0163 7.09261C9.91049 7.20634 9.79593 7.17726 9.70802 7.13481C9.62589 7.07945 9.56135 7.05104 9.52385 6.87518C9.53062 6.59487 9.54695 6.13608 9.49572 6.03871C9.42018 5.88794 9.29569 5.94201 9.24248 5.98756C8.9868 6.22133 8.86051 6.61607 8.78332 6.93014C8.71241 7.15905 8.63685 7.09285 8.5838 7.00049C8.45464 6.87946 8.44557 5.93299 8.28964 6.0886C8.0399 6.80236 8.43296 7.58427 8.70529 7.50827C8.90178 7.58962 9.02645 7.21562 9.10689 6.80613C9.16192 6.6912 9.20397 6.67799 9.23223 6.73706C9.22497 7.28164 9.27127 7.40311 9.41128 7.56837C9.7236 7.80932 9.98193 7.5989 10.0022 7.5786C10.0224 7.55835 10.2452 7.3356 10.2452 7.3356C10.2993 7.27867 10.3708 7.27521 10.4473 7.32537C10.5216 7.3929 10.512 7.50922 10.6711 7.59011C10.805 7.64366 11.0908 7.60314 11.1571 7.4878C11.2463 7.33488 11.268 7.28233 11.3093 7.22433C11.373 7.13956 11.482 7.17709 11.482 7.20387C11.4718 7.25114 11.4078 7.29778 11.4513 7.38292C11.527 7.43972 11.5446 7.40322 11.5894 7.3906C11.7478 7.31486 11.8669 6.97109 11.8669 6.97109C11.8739 6.84288 11.801 6.85261 11.7544 6.87901C11.6936 6.91618 11.6898 6.92881 11.629 6.96598C11.5516 6.97749 11.4015 7.02859 11.3272 6.91354C11.2513 6.77523 11.2509 6.5824 11.1929 6.44288C11.1929 6.43274 11.0916 6.22352 11.1852 6.21011C11.2325 6.2189 11.3342 6.24517 11.3502 6.16023C11.3998 6.07744 11.2432 5.84258 11.1366 5.72411C11.0441 5.62255 10.9163 5.61017 10.7926 5.71388C10.7059 5.79362 10.7188 5.88267 10.7018 5.96712C10.6797 6.0641 10.6839 6.18423 10.7824 6.31244C10.8689 6.48301 11.026 6.70186 10.9742 7.01073C10.9742 7.01073 10.8829 7.15773 10.7223 7.13863C10.6553 7.12403 10.5462 7.09505 10.4882 6.6667C10.4443 6.34246 10.4992 5.88819 10.3616 5.67549C10.3305 5.59523 10.3038 5.51732 10.2593 5.52332ZM9.81806 5.5577C9.77644 5.56133 9.73033 5.60982 9.69273 5.7035C9.66047 5.77474 9.62106 6.14731 9.6275 6.14731C9.60175 6.25819 9.74335 6.30518 9.80783 6.16266C9.90448 5.90137 9.90495 5.79005 9.91142 5.67923C9.89637 5.59481 9.85969 5.55406 9.81806 5.5577ZM11.4474 5.58711C11.4047 5.59099 11.3706 5.61602 11.3579 5.6792C11.3409 5.82775 11.3496 5.90852 11.3745 6.03219C11.3937 6.11466 11.5137 6.25272 11.5728 6.33275C11.855 6.71212 12.1266 7.0933 12.3888 7.48767C12.43 7.7805 12.4602 8.06695 12.4796 8.35225C12.5221 8.97778 12.535 9.75645 12.4962 10.4152C12.6134 10.4198 12.8012 10.226 12.8671 9.94202C12.91 9.54921 12.8519 8.74777 12.8479 8.51596C12.8452 8.41972 12.8393 8.3049 12.8326 8.1847C13.1376 8.68315 13.4335 9.21123 13.724 9.79108C13.8299 9.74076 13.8064 9.14452 13.7445 9.06078C13.512 8.56037 13.1908 8.06642 13.0884 7.87644C13.0514 7.80784 12.9255 7.61636 12.7763 7.39555C12.7488 7.08047 12.719 6.81361 12.6996 6.73302C12.6516 6.39996 12.8365 6.77059 12.8109 6.57699C12.7509 6.24438 12.5673 6.01834 12.3504 5.71368C12.2805 5.61459 12.2819 5.59438 12.1739 5.73798C12.1094 5.88437 12.1103 6.00616 12.1292 6.12039C12.1008 6.07912 12.0657 6.03019 12.0153 5.96947C11.8281 5.8088 11.8165 5.80002 11.6611 5.66891C11.612 5.63413 11.5187 5.5806 11.4475 5.58706L11.4474 5.58711ZM16.2768 5.63699C16.256 5.63376 16.2333 5.64399 16.2078 5.68176C16.1589 5.72458 16.1064 5.80212 16.108 5.90174C16.1199 6.07727 16.1511 6.25699 16.163 6.43252C16.1672 6.45601 16.1716 6.47938 16.1758 6.50287C16.1569 6.4788 16.1405 6.46002 16.131 6.45043C15.7889 6.091 16.2882 6.39169 16.0658 6.11406C15.8777 5.90752 15.8226 5.84179 15.6616 5.71758C15.5809 5.6654 15.5321 5.56569 15.5056 5.73549C15.495 5.88465 15.4841 6.05739 15.4941 6.18315C15.4935 6.25303 15.5659 6.38457 15.6284 6.46196C15.8566 6.74238 16.0898 7.04075 16.3241 7.35212C16.3735 7.98714 16.3866 8.56925 16.4367 9.20533C16.4296 9.47739 16.3459 9.83872 16.2666 9.87293C16.2666 9.87293 16.1455 9.94253 16.0645 9.86526C16.0056 9.84162 15.7704 9.47262 15.7704 9.47262C15.6499 9.36219 15.5696 9.39374 15.4839 9.47262C15.2475 9.70086 15.1406 10.1284 14.98 10.4229C14.9386 10.4886 14.8219 10.5445 14.6922 10.4178C14.3628 9.96775 14.5554 9.32716 14.5144 9.49181C14.221 9.82244 14.351 10.3703 14.4172 10.4881C14.514 10.6816 14.5922 10.8055 14.7805 10.9013C14.9519 11.0274 15.0854 10.9487 15.159 10.8603C15.3315 10.6815 15.3338 10.2243 15.4148 10.1339C15.4716 9.96771 15.614 9.99629 15.6834 10.0699C15.7507 10.1667 15.8301 10.2296 15.929 10.2822C16.0899 10.4242 16.2819 10.45 16.4712 10.3206C16.6006 10.248 16.6846 10.1537 16.7603 9.96761C16.8416 9.75026 16.8014 8.61121 16.7833 7.97753C16.9048 8.14874 17.0248 8.32365 17.144 8.50062C17.1963 9.05686 17.22 9.60467 17.2028 10.13C17.1905 10.2345 17.5673 9.81816 17.5648 9.62096C17.5631 9.44842 17.5651 9.29204 17.5648 9.14645C17.7475 9.43828 17.9245 9.73498 18.0917 10.0353C18.1953 9.98043 18.1598 9.39369 18.0943 9.31273C17.9192 9.01894 17.6949 8.70145 17.5213 8.45581C17.487 8.14579 17.4402 7.78002 17.419 7.66796C17.3858 7.49322 17.3527 7.23074 17.3026 7.02336C17.2888 6.94239 17.2474 6.68373 17.2604 6.65886C17.2808 6.60099 17.3579 6.66071 17.3959 6.59363C17.4528 6.53163 17.1988 5.8734 17.0698 5.68554C17.0234 5.60135 16.9396 5.63049 16.8357 5.7674C16.7395 5.85749 16.7747 6.06303 16.8114 6.25852C16.9069 6.75677 16.9921 7.26418 17.0596 7.77028C16.9347 7.58471 16.7824 7.36015 16.6324 7.14361C16.6283 7.12272 16.6132 7.04619 16.6132 7.04513C16.6132 7.03618 16.5925 6.63754 16.5748 6.54251C16.5717 6.50393 16.5625 6.49283 16.603 6.49774C16.6458 6.53379 16.6516 6.53574 16.6784 6.54762C16.7217 6.55554 16.7595 6.48238 16.7334 6.41461C16.5996 6.16772 16.4657 5.91972 16.3318 5.67281C16.3157 5.65695 16.2976 5.64023 16.2768 5.63699ZM3.81335 5.64978C3.73918 5.64766 3.65734 5.69364 3.68929 5.7828C3.67069 5.83139 3.83448 5.99565 3.86323 6.08591C3.88901 6.15018 3.83766 6.35714 3.89137 6.37624C3.94075 6.39765 4.00875 6.23297 4.03461 6.08079C4.04893 5.99742 4.03809 5.71211 3.84405 5.6536C3.83411 5.65135 3.82394 5.65009 3.81335 5.64978ZM18.0113 5.65142C17.9944 5.6531 17.9738 5.68042 17.9422 5.74734C17.8663 5.87168 17.8402 6.0943 17.8706 6.2909C18.0534 7.52701 18.1892 8.72396 18.2172 9.81957C18.2015 9.92357 18.1969 9.97889 18.1482 10.1099C18.0403 10.2482 17.9213 10.4215 17.8092 10.5051C17.6972 10.5886 17.4587 10.6683 17.3808 10.7302C17.1334 10.8732 17.1322 11.0376 17.3322 11.0435C17.6768 11.0035 18.0847 10.9753 18.3656 10.5512C18.4407 10.4323 18.5292 10.1101 18.5331 9.91294C18.5594 8.75687 18.5183 7.62651 18.3451 6.79099C18.334 6.7096 18.2981 6.52253 18.3119 6.49811C18.3342 6.44089 18.4469 6.50383 18.4871 6.43799C18.546 6.37785 18.1955 5.92903 18.0727 5.73712C18.0482 5.68893 18.033 5.64926 18.0113 5.65142ZM14.397 5.6706C14.3827 5.67306 14.3617 5.69472 14.3228 5.74607C14.2265 6.06086 14.1927 6.31794 14.2294 6.51345C14.4767 7.80403 14.7301 8.97982 14.6899 10.2084C14.8071 10.2092 14.9427 9.94008 15.0006 9.67378C15.0324 9.30693 14.9795 9.08366 14.9699 8.86801C14.9605 8.65239 14.7259 6.90295 14.6783 6.73981C14.621 6.43133 14.9065 6.69923 14.8753 6.51983C14.7766 6.29365 14.5303 5.96429 14.4533 5.7678C14.4243 5.71517 14.4207 5.66651 14.397 5.6706ZM5.59645 5.6949C5.56606 5.70017 5.53673 5.72521 5.52611 5.76653C5.51942 5.79359 5.53782 5.8386 5.51332 5.85222C5.49925 5.86641 5.44586 5.85687 5.44809 5.78187C5.44809 5.75799 5.43055 5.73307 5.41995 5.71793C5.40931 5.71095 5.40212 5.70897 5.38286 5.70897C5.35939 5.70992 5.35992 5.71611 5.34705 5.73583C5.34132 5.75589 5.33395 5.77553 5.33395 5.79845C5.33102 5.82514 5.32034 5.83418 5.3007 5.8381C5.27875 5.8381 5.28395 5.84049 5.26617 5.82915C5.25561 5.81759 5.24315 5.81305 5.24315 5.79333C5.24315 5.77292 5.23778 5.74032 5.23164 5.72683C5.22231 5.71454 5.20758 5.70814 5.19071 5.70381C5.09876 5.70413 5.09206 5.8098 5.09735 5.84961C5.09046 5.85712 5.08705 6.04439 5.21245 6.09645C5.3808 6.17672 5.6965 6.14278 5.68311 5.87135C5.68311 5.84734 5.67783 5.76672 5.67544 5.74473C5.65826 5.70471 5.62654 5.68958 5.59614 5.69485L5.59645 5.6949ZM7.85513 5.69746C7.79695 5.70043 7.74558 5.7171 7.70165 5.73967C7.59006 5.84651 7.5639 6.01779 7.65177 6.12463C7.73729 6.16502 7.82261 6.25109 7.7656 6.29857C7.52377 6.55687 6.89438 6.98848 6.86267 7.06722C6.86242 7.06786 6.86152 7.06919 6.86139 7.06978C6.86131 7.07034 6.8614 7.07183 6.86139 7.07234C6.86141 7.07258 6.86135 7.07339 6.86139 7.07361C6.86159 7.07427 6.86226 7.07564 6.86267 7.07617C6.86283 7.07634 6.86376 7.0773 6.86394 7.07745C6.86415 7.07757 6.86499 7.07733 6.86522 7.07745C6.86547 7.07757 6.86622 7.07864 6.8665 7.07873C6.86678 7.07881 6.86745 7.07864 6.86777 7.07873C6.86785 7.07881 6.86894 7.07991 6.86905 7.08C6.90103 7.10146 7.29485 7.10095 7.33844 7.08128C7.33877 7.08112 7.33946 7.08017 7.33972 7.08C7.33984 7.07992 7.34089 7.08008 7.341 7.08C7.34108 7.07992 7.34091 7.07881 7.341 7.07873C7.47634 7.02885 8.11861 6.29473 8.11861 6.29473C8.08532 6.26623 8.05465 6.24522 8.02141 6.21671C7.98576 6.18586 7.98935 6.15553 8.02141 6.12463C8.18047 6.03206 8.13007 5.82839 8.04698 5.73582C7.97811 5.70495 7.91331 5.6945 7.85513 5.69746ZM13.7588 5.70002C13.7419 5.7017 13.7213 5.72774 13.6898 5.79466C13.6139 5.919 13.5623 6.13551 13.5683 6.33821C13.7327 7.47656 13.7831 8.47272 13.8906 9.6111C13.8993 9.7212 13.8832 9.88114 13.81 9.94491C13.5393 10.2276 13.149 10.5762 12.7242 10.7366C12.6785 10.7879 12.8378 11.0067 13.0439 11.0065C13.3886 10.9664 13.6915 10.773 13.9724 10.2634C14.0476 10.1445 14.1796 9.89016 14.1835 9.69295C14.2098 8.53689 14.1252 7.63805 13.952 6.80249C13.9409 6.7211 13.9484 6.62483 13.9622 6.60041C13.9845 6.57376 14.0602 6.60102 14.1003 6.53518C14.1593 6.47504 13.943 5.97633 13.8202 5.78442C13.7957 5.73622 13.7806 5.69786 13.7588 5.70002ZM4.6129 5.73481C4.56533 5.74037 4.52058 5.7791 4.49907 5.83073C4.49111 6.01331 4.49004 6.1958 4.51058 6.36405C4.59362 6.65917 4.61992 6.91873 4.66022 7.22098C4.6714 7.62578 4.42646 7.39609 4.43768 7.1954C4.49423 6.93473 4.47897 6.52436 4.42873 6.42033C4.38888 6.31633 4.34273 6.29066 4.24583 6.30778C4.1689 6.30308 3.97014 6.51964 3.91458 6.87822C3.91458 6.87822 3.86828 7.06224 3.84807 7.2261C3.82089 7.41127 3.69821 7.54241 3.61274 7.20052C3.53886 6.95202 3.49345 6.33974 3.36974 6.48303C3.3343 6.96109 3.29223 7.80231 3.69843 7.88862C4.18976 7.93585 3.91835 7.05805 4.09619 6.89868C4.12981 6.81993 4.19211 6.81853 4.19723 6.91786V7.66351C4.19273 7.90591 4.35225 7.97794 4.47604 8.02802C4.60487 8.01807 4.6903 8.0216 4.74079 8.14696C4.76092 8.57677 4.78205 9.00765 4.80218 9.43742C4.80218 9.43742 5.10002 9.52301 5.11425 8.71224C5.12852 8.23618 5.01945 7.83669 5.08356 7.74407C5.08582 7.65307 5.20247 7.64857 5.28307 7.69291C5.41149 7.7835 5.46846 7.89499 5.66804 7.85023C5.97174 7.76657 6.15466 7.61916 6.15916 7.38595C6.14143 7.16435 6.11579 6.94251 6.01976 6.72089C6.03317 6.68059 5.96163 6.57574 5.97499 6.53544C6.02957 6.62092 6.11213 6.61382 6.13103 6.53544C6.07934 6.36511 5.99887 6.20191 5.86884 6.13129C5.76138 6.03662 5.60413 6.05664 5.54654 6.25407C5.51985 6.48158 5.62899 6.75121 5.79466 6.97156C5.82985 7.05766 5.87907 7.20084 5.85733 7.32967C5.76917 7.37996 5.68177 7.35904 5.60793 7.28107C5.60793 7.28107 5.3662 7.10011 5.3662 7.05981C5.43035 6.64911 5.38002 6.60209 5.34446 6.4881C5.31963 6.33077 5.24507 6.28094 5.18459 6.17348C5.12412 6.10937 5.04209 6.10937 5.00298 6.17348C4.89614 6.3587 4.94626 6.75636 5.02344 6.93447C5.07922 7.09828 5.16474 7.2005 5.12448 7.2005C5.09132 7.29307 5.02216 7.27153 4.97229 7.16469C4.90109 6.94387 4.88659 6.61475 4.88659 6.46639C4.86522 6.28245 4.8414 5.88953 4.72033 5.78983C4.68802 5.74583 4.64989 5.73049 4.6129 5.73481ZM6.33821 5.73737C6.31383 5.74045 6.28688 5.75433 6.25508 5.76167C6.15063 5.79492 6.05284 5.88521 6.0837 6.06095C6.20717 6.81122 6.28765 7.38383 6.41111 8.13414C6.43009 8.22201 6.35644 8.33782 6.26148 8.32598C6.10002 8.21675 6.05994 7.99552 5.78443 8.00496C5.58498 8.00736 5.35752 8.22439 5.32912 8.43343C5.29587 8.59955 5.28403 8.77967 5.32912 8.92455C5.4693 9.0931 5.63721 9.07513 5.78443 9.0371C5.90551 8.98727 6.00512 8.86795 6.0479 8.89641C6.04802 8.89653 6.04907 8.89625 6.04918 8.89641C6.0493 8.89658 6.04905 8.89752 6.04918 8.89769C6.07558 8.94384 6.04669 9.33409 5.47874 9.63564C5.12971 9.79236 4.8519 9.8298 4.7024 9.54483C4.60979 9.36675 4.70913 8.68848 4.48114 8.84523C3.80686 10.5833 6.06083 10.8259 6.31262 8.91685C6.32892 8.86299 6.37859 8.80896 6.41366 8.82221C6.42904 8.82876 6.44312 8.84965 6.44819 8.88871C6.39592 10.6173 4.70446 10.7357 4.41719 10.192C4.34599 10.0638 4.32457 9.77851 4.31743 9.60751C4.30441 9.50407 4.27845 9.4444 4.24837 9.42078C4.17983 9.36929 4.08774 9.50358 4.06803 9.73669C4.03953 9.92426 4.04757 9.97576 4.04757 10.1562C4.13779 11.5215 6.31443 10.9349 6.66816 9.80704C6.84328 9.22399 6.6646 8.78415 6.72316 8.73017C6.72367 8.72974 6.72518 8.72926 6.72572 8.72889C6.72627 8.72856 6.72768 8.7279 6.72828 8.72761C6.72889 8.72737 6.73019 8.72654 6.73083 8.72634C6.73283 8.7258 6.73617 8.72509 6.73851 8.72506C6.95458 8.9578 7.25779 8.75463 7.32425 8.6739C7.35276 8.63351 7.42406 8.60761 7.47389 8.65983C7.64244 8.78099 7.93788 8.72388 7.99956 8.51019C8.0352 8.30125 8.06532 8.08615 8.07246 7.86306C7.96266 7.89715 7.87406 7.92267 7.8384 7.96026C7.82991 7.96953 7.82363 7.97982 7.82178 7.99095C7.81225 8.05271 7.80317 8.11465 7.79364 8.1764C7.79262 8.18151 7.79098 8.18622 7.78852 8.19047C7.78384 8.19805 7.77611 8.20504 7.76806 8.20966C7.72924 8.23085 7.66156 8.21873 7.65807 8.16234C7.60584 7.92489 7.39091 7.89401 7.26031 8.2621C7.17244 8.3333 7.01222 8.34719 6.99556 8.24035C7.01693 7.99342 6.91743 7.96027 6.71803 8.07665C6.65392 7.58753 6.59033 7.12055 6.52618 6.63143C6.6093 6.62904 6.68553 6.6893 6.76151 6.59434C6.67928 6.3386 6.50528 5.81825 6.40724 5.76942C6.40647 5.76905 6.40544 5.76844 6.40468 5.76814C6.40023 5.7628 6.39496 5.75788 6.39061 5.75408C6.3888 5.75254 6.38602 5.75026 6.38422 5.74896C6.38242 5.74771 6.37961 5.74615 6.37782 5.74512C6.37389 5.74296 6.36896 5.7412 6.36503 5.74001C6.35609 5.73747 6.34741 5.73628 6.33817 5.73745L6.33821 5.73737ZM13.0641 5.7412C12.9779 5.73864 12.8824 5.793 12.9196 5.90107C12.898 5.96002 13.105 6.15997 13.1383 6.26941C13.1984 6.43756 13.0925 6.59795 13.155 6.62113C13.2125 6.64708 13.2925 6.44754 13.3225 6.26302C13.3572 6.11385 13.2508 5.80816 13.1 5.74505C13.0884 5.74233 13.0765 5.74157 13.0641 5.7412ZM7.82427 5.92537C7.86355 5.92137 7.91101 5.95746 7.93426 6.0085C7.95906 6.06295 7.94662 6.11497 7.90612 6.12489C7.86563 6.13481 7.81325 6.09876 7.78846 6.04431C7.76366 5.98987 7.7761 5.93657 7.81659 5.92665C7.81912 5.92603 7.82165 5.92564 7.82427 5.92537ZM17.5444 6.17733C17.4658 6.17457 17.3801 6.23428 17.414 6.35127C17.3942 6.41508 17.5818 6.63183 17.6122 6.7503C17.6395 6.83462 17.5706 7.10636 17.6275 7.13144C17.68 7.15953 17.7537 6.94369 17.781 6.74391C17.7962 6.63455 17.7152 6.25078 17.5777 6.18243C17.5671 6.17949 17.5556 6.17772 17.5444 6.17733ZM12.1703 6.31034C12.1775 6.34241 12.1847 6.37469 12.1895 6.40754C12.2056 6.47841 12.2195 6.54881 12.2342 6.61857C12.1722 6.53308 12.1208 6.46402 12.0987 6.43951C11.9582 6.27257 12.1018 6.32989 12.1703 6.31034ZM13.4083 6.91913C13.3779 6.92439 13.3486 6.95071 13.338 6.99203C13.3313 7.01909 13.351 7.06283 13.3265 7.07644C13.3124 7.09063 13.2577 7.08237 13.26 7.00737C13.26 6.98349 13.2424 6.95729 13.2318 6.94215C13.2212 6.93517 13.214 6.93319 13.1947 6.93319C13.1713 6.93414 13.1718 6.94033 13.1589 6.96005C13.1535 6.98014 13.1461 6.99995 13.1461 7.02272C13.1432 7.04941 13.1338 7.05845 13.1142 7.06237C13.0922 7.06237 13.0961 7.06476 13.0784 7.05341C13.0678 7.04186 13.0553 7.03732 13.0553 7.0176C13.0553 6.99718 13.05 6.96458 13.0438 6.9511C13.0345 6.9388 13.0198 6.93368 13.0029 6.92935C12.911 6.92968 12.9055 7.03407 12.9108 7.07387C12.9039 7.08138 12.8992 7.26993 13.0246 7.32199C13.193 7.40227 13.51 7.36705 13.4966 7.09562C13.4966 7.07161 13.49 6.99099 13.4876 6.969C13.4704 6.92898 13.4387 6.91386 13.4083 6.91913ZM7.75551 6.9754C7.73475 6.97329 7.70754 6.98091 7.67621 6.9997C7.52734 7.08023 7.46969 7.31909 7.56239 7.45886C7.64898 7.58196 7.78588 7.53688 7.80411 7.53688C7.94997 7.55511 8.03688 7.26318 8.03688 7.26318C8.03688 7.26318 8.04127 7.18109 7.86806 7.33608C7.79517 7.34973 7.78526 7.32341 7.76702 7.28236C7.75184 7.20642 7.7551 7.12941 7.79004 7.05342C7.80618 7.00787 7.79012 6.97893 7.75551 6.9754ZM15.7465 7.01249C15.6638 7.00847 15.5759 7.06199 15.5534 7.17492C15.5537 7.24154 15.5834 7.27816 15.5777 7.33863C15.569 7.3732 15.5334 7.39593 15.4485 7.35526C15.4618 7.34305 15.3935 7.24655 15.3935 7.24655C15.3272 7.2062 15.2388 7.24874 15.1812 7.2862C15.1495 7.34378 15.1261 7.44249 15.162 7.54327C15.2571 7.71896 15.5833 8.01875 15.7388 8.02162C15.7417 7.86321 15.7571 7.65256 15.7657 7.52153C15.7694 7.47207 15.781 7.41756 15.8284 7.40515C15.8757 7.39277 15.9579 7.45279 15.9588 7.40131C15.9502 7.30053 15.93 7.15182 15.8731 7.08157C15.844 7.03836 15.7961 7.0149 15.7465 7.01249ZM9.13188 7.56374C9.12969 7.56454 9.12751 7.56642 9.12549 7.56757C9.1245 7.56817 9.12265 7.56941 9.12165 7.57013C9.10519 7.58249 9.08577 7.611 9.04236 7.64175C8.96914 7.72504 8.95601 7.78304 8.9605 7.94998C8.96467 7.96764 9.09951 8.34255 9.21374 8.60608C9.29076 8.87999 9.36201 9.19363 9.30966 9.48986C9.12935 9.88146 8.76685 10.2327 8.41697 10.4235C8.2387 10.4806 8.08475 10.4611 8.04351 10.4222C8.04318 10.4219 8.04253 10.4212 8.04223 10.4209C7.93986 10.3521 7.93751 10.2296 7.94375 10.2086C7.94375 10.2085 7.94376 10.2075 7.94375 10.2073C7.944 10.2071 7.9448 10.2063 7.94503 10.2061C8.24027 10.0004 8.57751 9.83398 8.84157 9.27882C8.91954 9.06667 8.94334 8.93928 8.86587 8.61122C8.83567 8.48898 8.79837 8.38839 8.71496 8.30172C8.71516 8.30147 8.71602 8.30066 8.71623 8.30044C8.76649 8.27639 8.89689 8.37246 8.91703 8.31195C8.88617 8.15532 8.78008 7.94504 8.65996 7.83744C8.55477 7.7419 8.44034 7.73084 8.34405 7.81826C8.2356 7.87861 8.21253 8.09536 8.26476 8.28507C8.32276 8.42788 8.47935 8.45294 8.5909 8.74038C8.59089 8.74067 8.59089 8.74156 8.5909 8.74166C8.59322 8.75968 8.62918 8.95621 8.57299 9.03582C8.52739 9.17801 7.94173 9.63986 7.90023 9.66765C7.89977 9.66811 7.89684 9.66978 7.8964 9.67021C7.89615 9.67045 7.89534 9.67127 7.89512 9.67149C7.895 9.67157 7.89411 9.67249 7.89384 9.67276C7.89372 9.67289 7.89268 9.67391 7.89257 9.67404C7.89244 9.67404 7.89143 9.67405 7.89129 9.67404C7.89121 9.67404 7.8903 9.67404 7.89001 9.67404C7.88977 9.67384 7.88896 9.673 7.88874 9.67276C7.88875 9.67264 7.88873 9.6716 7.88874 9.67149C7.88849 9.67104 7.88769 9.66939 7.88746 9.66893C7.8857 9.6574 7.88879 9.62804 7.88746 9.58068C7.88361 9.49415 7.91943 9.29837 7.91688 9.26477C7.91688 9.26465 7.91687 9.26362 7.91688 9.2635C7.91663 9.26325 7.91584 9.26245 7.9156 9.26222C7.9156 9.2621 7.91559 9.26108 7.9156 9.26094C7.91531 9.26095 7.91436 9.26095 7.91432 9.26094C7.72073 9.38594 7.65679 9.76909 7.62144 9.88254C7.13134 10.2212 6.57478 10.4731 6.25424 10.8162C6.08729 11.0769 7.40445 10.5168 7.55751 10.4491C7.55883 10.4501 7.56014 10.4517 7.56135 10.4529C7.59044 10.485 7.59293 10.5966 7.68029 10.6972C7.8172 10.8827 8.10822 10.9969 8.39139 10.9262C8.86627 10.7545 9.13987 10.4309 9.41842 10.0718C9.45822 10.0139 9.52062 9.96826 9.57828 10.013C9.76969 10.4415 10.3216 10.7464 11.035 10.7778C11.2001 10.577 11.1212 10.4783 11.0542 10.4363C11.0336 10.4226 10.6994 10.2923 10.6475 10.1626C10.6148 10.0419 10.6943 9.93488 10.8534 9.8544C11.3115 9.799 11.7618 9.73746 12.1976 9.59733C12.202 9.45093 12.2883 9.23199 12.346 9.13691C12.3861 9.07093 12.4118 9.0644 12.4214 9.05505C12.4218 9.05473 12.4225 9.05411 12.4227 9.05378C12.4228 9.05361 12.4239 9.05267 12.424 9.0525C12.4242 9.05229 12.425 9.05145 12.4253 9.05122C12.4253 9.05078 12.4253 9.04912 12.4253 9.04866C12.4255 9.04577 12.4253 9.04078 12.424 9.03587L12.3498 8.99239L10.888 8.98599C10.8699 8.97904 10.8565 8.97206 10.8483 8.96553C10.8477 8.96501 10.8463 8.96349 10.8457 8.96297C10.8455 8.96273 10.8447 8.96195 10.8445 8.9617C10.8442 8.96145 10.8434 8.96067 10.8432 8.96042C10.843 8.95997 10.8421 8.95831 10.8419 8.95786C10.8418 8.95774 10.8408 8.95672 10.8406 8.95658C10.8406 8.95646 10.8406 8.95544 10.8406 8.95531C10.8405 8.95518 10.8395 8.95417 10.8394 8.95403C10.8394 8.95391 10.8394 8.95289 10.8394 8.95275C10.8394 8.95263 10.8394 8.95161 10.8394 8.95148C10.8394 8.95135 10.8394 8.95033 10.8394 8.9502C10.8393 8.95 10.8394 8.94912 10.8394 8.94892C10.8394 8.94884 10.8394 8.94792 10.8394 8.94765C10.8394 8.94752 10.8394 8.9465 10.8394 8.94637C10.8394 8.94625 10.8394 8.94523 10.8394 8.94509C10.8394 8.94497 10.8394 8.94395 10.8394 8.94382C10.8396 8.94357 10.8404 8.94277 10.8406 8.94254C10.841 8.94186 10.8415 8.94065 10.8419 8.93998C10.8491 8.93036 10.8663 8.9213 10.888 8.91312C11.237 8.86556 11.8572 8.7639 11.8984 8.16747C11.8919 7.85681 11.7654 7.65339 11.3842 7.59704C11.1041 7.61869 10.9044 7.88963 10.9366 8.18794C10.9232 8.26825 10.9638 8.42587 10.8816 8.44373C10.3443 8.49282 9.75785 8.82947 9.73816 9.0704C9.73804 9.07038 9.737 9.07041 9.73689 9.0704C9.73668 9.07065 9.73583 9.07145 9.73561 9.07168C9.7352 9.07189 9.73373 9.07263 9.73305 9.07296C9.73261 9.07295 9.73095 9.07297 9.7305 9.07296C9.72963 9.07324 9.72754 9.07401 9.72666 9.07424C9.72641 9.07426 9.72571 9.07423 9.72538 9.07424C9.72465 9.07422 9.72331 9.07424 9.72283 9.07424C9.72258 9.07423 9.72188 9.07423 9.72155 9.07424C9.72101 9.07425 9.71944 9.07426 9.71899 9.07424C9.7176 9.07395 9.71508 9.07326 9.71387 9.07296C9.67893 9.06325 9.63391 9.00558 9.64098 8.9246C9.62051 8.50808 9.48495 8.03677 9.27263 7.67379C9.19686 7.59804 9.16385 7.56735 9.14218 7.5638C9.14148 7.56372 9.1403 7.56383 9.13962 7.5638C9.13873 7.56379 9.13694 7.56381 9.13579 7.5638C9.13558 7.5638 9.1347 7.56378 9.13451 7.5638C9.13439 7.56379 9.13335 7.56381 9.13323 7.5638C9.13307 7.56384 9.13211 7.56376 9.13196 7.5638L9.13188 7.56374ZM10.5311 7.78372C10.5007 7.78898 10.4714 7.81403 10.4607 7.85534C10.4541 7.8824 10.4737 7.92742 10.4492 7.94103C10.4352 7.95522 10.3805 7.94697 10.3827 7.87197C10.3827 7.84809 10.3652 7.82188 10.3546 7.80674C10.344 7.79977 10.338 7.79779 10.3188 7.79779C10.2953 7.79874 10.2946 7.80493 10.2817 7.82465C10.2762 7.84474 10.2689 7.86454 10.2689 7.88731C10.266 7.914 10.2566 7.92304 10.2369 7.92696C10.215 7.92696 10.2202 7.92935 10.2024 7.91801C10.1918 7.90646 10.1781 7.90192 10.1781 7.8822C10.1781 7.86178 10.174 7.82918 10.1679 7.81569C10.1585 7.8034 10.1425 7.79828 10.1257 7.79395C10.0337 7.79428 10.0283 7.89866 10.0336 7.93847C10.0267 7.94598 10.022 8.13453 10.1474 8.18659C10.3157 8.26686 10.7169 8.2196 10.6193 7.96021C10.6193 7.93621 10.6128 7.85558 10.6104 7.83359C10.5932 7.79358 10.5615 7.77846 10.5311 7.78372ZM16.1778 8.01521C16.1735 8.01445 16.1687 8.01474 16.1637 8.01649C16.1637 8.01649 15.3837 8.57142 15.3644 8.59073C15.287 8.6595 15.3257 8.90131 15.3644 8.87338C15.4203 8.89487 16.2056 8.3627 16.1906 8.3004C16.2248 8.30241 16.2413 8.02665 16.1778 8.01521ZM11.2682 8.09747C11.3 8.0941 11.3418 8.1049 11.382 8.12817C11.4402 8.16185 11.4761 8.21271 11.4715 8.24967C11.4714 8.25067 11.4717 8.25253 11.4715 8.25351C11.4713 8.25448 11.4693 8.25639 11.469 8.25734C11.4687 8.25828 11.4681 8.26026 11.4677 8.26118C11.4675 8.26178 11.4667 8.26314 11.4664 8.26373C11.4661 8.26432 11.4655 8.26572 11.4652 8.26629C11.4632 8.26942 11.4601 8.27269 11.4575 8.27525C11.4295 8.30139 11.3649 8.29767 11.304 8.26246C11.2463 8.22908 11.2106 8.17782 11.2145 8.14095C11.2146 8.13995 11.2156 8.1381 11.2158 8.13712C11.2167 8.13254 11.2185 8.12837 11.2209 8.12433C11.2217 8.12288 11.2224 8.12054 11.2234 8.11921C11.2236 8.11897 11.2245 8.11819 11.2247 8.11793C11.2264 8.11593 11.229 8.11324 11.2311 8.11154C11.2404 8.10424 11.2535 8.09903 11.2682 8.09747ZM4.43707 8.23816C4.03289 8.24554 3.44099 8.76796 3.4254 9.05797C3.8519 8.85315 4.27083 8.65601 4.70437 8.44406C4.6344 8.33961 4.70013 8.2455 4.43707 8.23816ZM5.74674 8.41977C5.78636 8.42022 5.82814 8.43978 5.85033 8.49523C5.8703 8.5461 5.85128 8.59929 5.82731 8.62569C5.82719 8.62589 5.82743 8.62676 5.82731 8.62697C5.82694 8.62755 5.82643 8.62897 5.82603 8.62952C5.80907 8.65138 5.74951 8.64231 5.70709 8.64231C5.65577 8.64005 5.63047 8.63162 5.59966 8.58988C5.58493 8.54347 5.62978 8.49787 5.64954 8.46326C5.64974 8.46293 5.65061 8.4623 5.65081 8.46198C5.65296 8.45876 5.65646 8.45489 5.65977 8.45175C5.67512 8.43769 5.70166 8.42455 5.73011 8.42105C5.73565 8.42037 5.74108 8.41971 5.74674 8.41977ZM16.0259 8.58062C15.9541 8.58948 15.8858 8.65744 15.9172 8.76606C15.8975 8.82988 16.0147 9.05302 16.0451 9.17149C16.0725 9.25581 16.0099 9.49429 16.0669 9.51937C16.1193 9.54747 16.2572 9.37779 16.2523 9.1651C16.2675 9.05574 16.2133 8.65282 16.0758 8.58443C16.06 8.58001 16.0425 8.57857 16.0259 8.58062ZM7.29582 8.97454C7.2323 8.97898 7.17562 9.01293 7.20118 9.10243C7.19734 9.16736 7.38065 9.24632 7.39174 9.3966C7.41794 9.45856 7.35255 9.65697 7.40709 9.67541C7.45717 9.69604 7.52666 9.53825 7.55289 9.39148C7.56741 9.31108 7.49 9.02986 7.35849 8.97967C7.3383 8.97533 7.31699 8.97306 7.29582 8.97454ZM9.90876 9.33137C9.91358 9.33104 9.91783 9.3314 9.92283 9.33137C9.92367 9.33137 9.92454 9.33137 9.92539 9.33137C10.0882 9.37563 10.3283 9.38022 10.5368 9.40172C10.7065 9.41248 10.7904 9.54538 10.6314 9.60123C10.4746 9.65495 10.3239 9.6969 10.3232 9.92353C10.3438 10.0358 10.3394 10.0947 10.3219 10.1218C10.3205 10.1238 10.3183 10.1265 10.3168 10.1282C10.3166 10.1284 10.3157 10.1292 10.3155 10.1294C10.3153 10.1297 10.3144 10.1305 10.3142 10.1307C10.314 10.1309 10.3132 10.1318 10.3129 10.132L10.3117 10.1333C10.3112 10.1335 10.3096 10.1343 10.3091 10.1346C10.3068 10.136 10.3039 10.1375 10.3014 10.1384C10.2992 10.1391 10.2961 10.1393 10.2938 10.1397C10.2565 10.1451 10.2023 10.1096 10.162 10.0885C10.0653 10.0191 9.79396 9.8509 9.75531 9.48995C9.74981 9.4085 9.81076 9.33827 9.90876 9.33137ZM3.52661 9.6089C3.51644 9.60923 3.49608 9.63962 3.46906 9.67413C3.2286 10.0572 3.20722 10.629 3.33989 10.7996C3.41039 10.8802 3.52663 10.9157 3.61231 10.8904C3.76337 10.8249 3.82977 10.5189 3.79392 10.407C3.74351 10.3281 3.70356 10.3156 3.65323 10.3827C3.54693 10.5985 3.50269 10.4509 3.49336 10.3303C3.47707 10.1015 3.49923 9.89088 3.52406 9.72406C3.53728 9.63856 3.53679 9.60863 3.52662 9.60895L3.52661 9.6089ZM11.7185 10.1119C11.7007 10.1109 11.6816 10.1137 11.6623 10.1234C11.6585 10.1234 11.4901 10.2372 11.4359 10.3165C11.4028 10.3417 11.4066 10.3636 11.4167 10.4073C11.4425 10.4666 11.4879 10.448 11.5395 10.4201C11.6079 10.4108 11.641 10.4556 11.6354 10.5378C11.6038 10.6403 11.6495 10.6784 11.6495 10.6849C11.6495 10.6913 11.7154 10.7479 11.7927 10.7028C11.956 10.6405 12.0578 10.5798 12.2864 10.5301C12.3464 10.5289 12.3429 10.3683 12.248 10.3626C12.1242 10.3688 12.0099 10.3751 11.8861 10.4726C11.8099 10.4902 11.7968 10.4438 11.7799 10.4022C11.7606 10.2991 11.8235 10.2263 11.8106 10.149C11.814 10.1524 11.7722 10.1148 11.7185 10.1119ZM16.9637 10.3076C16.9334 10.3085 16.9014 10.3127 16.855 10.3165C16.8049 10.3272 16.7874 10.3491 16.7783 10.4099C16.7819 10.502 16.8382 10.4975 16.896 10.5339C16.9294 10.5765 16.9511 10.615 16.8934 10.6849C16.8387 10.735 16.7997 10.7626 16.745 10.8128C16.7192 10.8568 16.7031 10.9245 16.7821 10.9458C16.928 10.9868 17.2656 10.7675 17.2656 10.7629C17.3203 10.7219 17.3021 10.6439 17.2975 10.6439C17.2656 10.6075 17.1937 10.6294 17.1453 10.6235C17.1223 10.6235 17.0467 10.6123 17.0827 10.5455C17.1127 10.5039 17.1237 10.479 17.1441 10.4278C17.1668 10.3777 17.1468 10.3439 17.0648 10.3165C17.023 10.3089 16.9941 10.3066 16.9637 10.3076ZM14.7725 14.7441C14.7722 14.7442 14.7716 14.7451 14.7712 14.7453C14.5286 14.8076 14.5362 15.0594 14.6919 15.1699C12.1302 15.1699 8.19888 15.1265 7.35579 15.1265C6.88411 15.1265 5.39183 15.0702 5.36314 15.0702C5.68317 15.5383 6.14677 15.6336 6.75339 15.6432C7.89124 15.6432 13.1634 15.6291 14.6637 15.6291C14.5571 15.8185 14.6734 16.1232 14.7571 16.1791C14.7589 16.1802 14.7618 16.182 14.7635 16.1829C14.7666 16.1845 14.7707 16.186 14.7737 16.1867C14.7747 16.187 14.7766 16.1866 14.7776 16.1867C14.8769 16.2102 14.9206 16.1383 14.9541 16.0857C15.1152 16.0999 16.0221 16.113 16.1051 16.0844C16.1054 16.0843 16.1061 16.0833 16.1064 16.0831C16.1626 16.1658 16.2183 16.2438 16.3251 16.2302C16.5121 16.1901 16.6594 16.1698 16.664 15.7903C16.664 15.7903 16.6449 15.1435 16.2202 15.1841C16.1197 15.1992 15.8378 15.2275 15.8378 15.2275C15.5116 15.1887 15.2722 15.1848 14.9055 15.1713C14.9393 15.1283 14.9991 14.9542 14.9259 14.8912C14.9068 14.8753 14.8784 14.8665 14.839 14.8694C14.8387 14.8695 14.838 14.8694 14.8377 14.8694C14.8371 14.8694 14.8357 14.8695 14.8351 14.8694C14.8348 14.8693 14.8341 14.8682 14.8338 14.8682C14.8328 14.8678 14.831 14.8675 14.83 14.8669C14.828 14.8655 14.8254 14.8627 14.8236 14.8605C14.8232 14.8599 14.8215 14.8585 14.8211 14.8579C14.8025 14.8309 14.7924 14.7647 14.7801 14.7479C14.78 14.7478 14.779 14.7468 14.7788 14.7467C14.7787 14.7465 14.7777 14.7455 14.7776 14.7454C14.7771 14.7451 14.7755 14.7442 14.775 14.7441C14.7749 14.7441 14.7739 14.7441 14.7737 14.7441C14.7736 14.7441 14.7726 14.7441 14.7725 14.7441L14.7725 14.7441ZM14.9465 15.6688C14.9469 15.6686 14.9473 15.669 14.9477 15.6688C15.3215 15.687 15.6726 15.6723 16.0464 15.6905C16.1056 15.7409 16.076 15.8562 16.0374 15.8772C16.0357 15.8781 16.0328 15.8793 16.031 15.8798C16.0296 15.8801 16.0273 15.8797 16.0259 15.8798C16.0245 15.8798 16.0222 15.8801 16.0208 15.8798C15.8993 15.8767 15.829 15.8739 15.7074 15.8708C15.7072 15.8648 15.7066 15.8583 15.7049 15.8529C15.6761 15.7676 15.4675 15.7733 15.4184 15.8401C15.4177 15.8411 15.4165 15.843 15.4158 15.844C15.4151 15.8453 15.4139 15.8477 15.4133 15.8491C15.4125 15.8508 15.4113 15.8537 15.4107 15.8555C15.41 15.858 15.4098 15.8618 15.4094 15.8644C15.4091 15.8675 15.4079 15.8714 15.4082 15.8747C15.2441 15.8944 15.0965 15.8692 14.9324 15.8632C14.8843 15.8032 14.8899 15.6948 14.9465 15.6688Z" fill="white"/>
</g>
</g>
<defs>
<clipPath id="clip0_3049_15140">
<rect width="22" height="22" fill="white"/>
</clipPath>
</defs>
</svg>
