<svg width="22" height="22" viewBox="0 0 22 22" fill="none" xmlns="http://www.w3.org/2000/svg">
<g clip-path="url(#clip0_3049_15152)">
<path d="M11 22C17.0751 22 22 17.0751 22 11C22 4.92487 17.0751 0 11 0C4.92487 0 0 4.92487 0 11C0 17.0751 4.92487 22 11 22Z" fill="#F0F0F0"/>
<path d="M2.27387 4.30469C1.40981 5.42888 0.758277 6.7246 0.378906 8.13221H6.1014L2.27387 4.30469Z" fill="#0052B4"/>
<path d="M21.6208 8.13217C21.2415 6.7246 20.5899 5.42888 19.7259 4.30469L15.8984 8.13217H21.6208Z" fill="#0052B4"/>
<path d="M0.378906 13.8711C0.75832 15.2787 1.40986 16.5744 2.27387 17.6985L6.10127 13.8711H0.378906Z" fill="#0052B4"/>
<path d="M17.6966 2.27391C16.5724 1.40986 15.2768 0.75832 13.8691 0.378906V6.10136L17.6966 2.27391Z" fill="#0052B4"/>
<path d="M4.30273 19.7258C5.42693 20.5899 6.72265 21.2414 8.13022 21.6208V15.8984L4.30273 19.7258Z" fill="#0052B4"/>
<path d="M8.13018 0.378906C6.72261 0.75832 5.42688 1.40986 4.30273 2.27387L8.13018 6.10131V0.378906Z" fill="#0052B4"/>
<path d="M13.8691 21.6208C15.2767 21.2414 16.5724 20.5899 17.6966 19.7259L13.8691 15.8984V21.6208Z" fill="#0052B4"/>
<path d="M15.8984 13.8711L19.7259 17.6986C20.5899 16.5744 21.2415 15.2787 21.6208 13.8711H15.8984Z" fill="#0052B4"/>
<path d="M21.9069 9.56523H12.4349H12.4348V0.0931133C11.9651 0.0319688 11.4863 0 11 0C10.5136 0 10.0349 0.0319688 9.56523 0.0931133V9.56514V9.56519H0.0931133C0.0319688 10.0349 0 10.5137 0 11C0 11.4864 0.0319688 11.9651 0.0931133 12.4348H9.56514H9.56519V21.9069C10.0349 21.968 10.5136 22 11 22C11.4863 22 11.9651 21.9681 12.4348 21.9069V12.4349V12.4348H21.9069C21.968 11.9651 22 11.4864 22 11C22 10.5137 21.968 10.0349 21.9069 9.56523Z" fill="#D80027"/>
<path d="M13.8691 13.8711L18.7777 18.7797C19.0035 18.554 19.2188 18.3181 19.4243 18.0735L15.2219 13.8711H13.8691V13.8711Z" fill="#D80027"/>
<path d="M8.1303 13.8711H8.13021L3.22168 18.7796C3.44735 19.0054 3.68329 19.2207 3.92787 19.4262L8.1303 15.2237V13.8711Z" fill="#D80027"/>
<path d="M8.13037 8.13136V8.13128L3.22179 3.22266C2.99603 3.44833 2.78067 3.68427 2.5752 3.92885L6.77767 8.13132L8.13037 8.13136Z" fill="#D80027"/>
<path d="M13.8691 8.12943L18.7778 3.22077C18.5521 2.99501 18.3161 2.77965 18.0716 2.57422L13.8691 6.77669V8.12943Z" fill="#D80027"/>
</g>
<defs>
<clipPath id="clip0_3049_15152">
<rect width="22" height="22" fill="white"/>
</clipPath>
</defs>
</svg>
