<svg width="22" height="22" viewBox="0 0 22 22" fill="none" xmlns="http://www.w3.org/2000/svg">
<g clip-path="url(#clip0_3049_15134)">
<path d="M11 22C17.0751 22 22 17.0751 22 11C22 4.92487 17.0751 0 11 0C4.92487 0 0 4.92487 0 11C0 17.0751 4.92487 22 11 22Z" fill="white"/>
<path d="M22.0001 10.9994C22.0001 6.26979 19.015 2.23782 14.8262 0.683594V21.3153C19.015 19.761 22.0001 15.729 22.0001 10.9994Z" fill="#D80027"/>
<path d="M0 10.9994C0 15.729 2.98517 19.761 7.17393 21.3152V0.683594C2.98517 2.23782 0 6.26979 0 10.9994Z" fill="#0052B4"/>
</g>
<defs>
<clipPath id="clip0_3049_15134">
<rect width="22" height="22" fill="white"/>
</clipPath>
</defs>
</svg>
