<svg width="22" height="22" viewBox="0 0 22 22" fill="none" xmlns="http://www.w3.org/2000/svg">
<g clip-path="url(#clip0_3049_15110)">
<path d="M11 22C17.0749 22 22 17.0745 22 11C22 4.92551 17.0749 0 11 0C4.92508 0 0 4.92551 0 11C0 17.0745 4.92508 22 11 22Z" fill="#D80027"/>
<path fill-rule="evenodd" clip-rule="evenodd" d="M4.97705 11.0017C4.97807 11.5396 5.11855 12.068 5.38477 12.5355C5.65099 13.0029 6.03386 13.3933 6.49601 13.6685C6.95815 13.9438 7.48377 14.0945 8.02156 14.106C8.55934 14.1175 9.09092 13.9894 9.5644 13.7341C9.02581 14.2593 8.3443 14.6139 7.60514 14.7537C6.86598 14.8935 6.10202 14.8122 5.40885 14.5199C4.71568 14.2277 4.1241 13.7375 3.70814 13.1107C3.29218 12.4839 3.07031 11.7484 3.07031 10.9961C3.07031 10.2438 3.29218 9.50829 3.70814 8.8815C4.1241 8.2547 4.71568 7.76451 5.40885 7.47226C6.10202 7.18002 6.86598 7.0987 7.60514 7.23848C8.3443 7.37826 9.02581 7.73294 9.5644 8.25813C9.10757 8.02005 8.60054 7.8944 8.08541 7.8916C7.26093 7.89229 6.47045 8.22023 5.88762 8.80338C5.30478 9.38654 4.97728 10.1772 4.97705 11.0017ZM11.4516 10.2317L10.5492 8.98559V10.5256L9.0883 11.0021L10.5402 11.4743V13.0079L11.4447 11.7674L12.9112 12.2439L12.0089 10.9978L12.9112 9.75731L11.4516 10.2317Z" fill="white"/>
</g>
<defs>
<clipPath id="clip0_3049_15110">
<rect width="22" height="22" fill="white"/>
</clipPath>
</defs>
</svg>
