<svg width="372" height="252" viewBox="0 0 372 252" fill="none" xmlns="http://www.w3.org/2000/svg">
<path d="M7.9243 148.265C9.38928 148.417 10.4543 149.727 10.3031 151.192C10.1519 152.657 8.84167 153.722 7.37669 153.571C5.91172 153.419 4.84671 152.109 4.99792 150.644C5.14914 149.179 6.45932 148.114 7.9243 148.265ZM164.006 170.616L164.417 170.332L164.006 170.616ZM316.479 235.089L316.224 234.658L316.479 235.089ZM368.411 35.6876L371.186 40.7507L365.414 40.622L368.411 35.6876ZM368.657 43.1344C368.577 44.7294 368.481 46.3951 368.367 48.126L367.369 48.0604C367.482 46.3343 367.579 44.6739 367.658 43.0846L368.657 43.1344ZM368.006 53.1138C367.879 54.7325 367.739 56.3976 367.586 58.1052L366.59 58.0162C366.743 56.3119 366.882 54.6505 367.009 53.0355L368.006 53.1138ZM367.115 63.1047C366.955 64.7234 366.785 66.3743 366.604 68.0546L365.61 67.9479C365.79 66.2703 365.96 64.6222 366.12 63.0063L367.115 63.1047ZM366.053 73.0065C365.865 74.6404 365.668 76.298 365.462 77.9772L364.47 77.8556C364.675 76.1787 364.872 74.5235 365.06 72.892L366.053 73.0065ZM364.836 82.9471C364.625 84.5741 364.406 86.2184 364.18 87.878L363.189 87.743C363.415 86.0855 363.633 84.4434 363.844 82.8186L364.836 82.9471ZM363.489 92.8306C363.255 94.4691 363.014 96.1203 362.766 97.7824L361.777 97.6347C362.024 95.9747 362.265 94.3256 362.499 92.6892L363.489 92.8306ZM362.015 102.707C361.76 104.345 361.498 105.992 361.23 107.646L360.243 107.486C360.511 105.834 360.772 104.189 361.027 102.553L362.015 102.707ZM360.416 112.573C360.14 114.208 359.859 115.849 359.571 117.493L358.586 117.32C358.873 115.678 359.154 114.04 359.43 112.407L360.416 112.573ZM358.693 122.415C358.396 124.049 358.093 125.686 357.784 127.323L356.801 127.137C357.11 125.503 357.412 123.868 357.709 122.236L358.693 122.415ZM356.841 132.229C356.522 133.863 356.196 135.496 355.865 137.126L354.885 136.927C355.216 135.299 355.541 133.668 355.86 132.037L356.841 132.229ZM354.853 142.02C354.509 143.652 354.159 145.28 353.804 146.902L352.827 146.688C353.182 145.068 353.531 143.443 353.874 141.814L354.853 142.02ZM352.716 151.778C352.345 153.409 351.969 155.033 351.586 156.649L350.613 156.419C350.995 154.806 351.371 153.185 351.741 151.556L352.716 151.778ZM350.417 161.493C350.015 163.123 349.608 164.743 349.195 166.35L348.226 166.101C348.639 164.497 349.045 162.881 349.446 161.253L350.417 161.493ZM347.925 171.184C347.492 172.799 347.052 174.4 346.607 175.984L345.645 175.713C346.089 174.133 346.527 172.537 346.96 170.925L347.925 171.184ZM345.219 180.807C344.742 182.423 344.259 184.019 343.771 185.592L342.816 185.296C343.303 183.727 343.784 182.135 344.26 180.524L345.219 180.807ZM342.258 190.33C341.729 191.944 341.193 193.53 340.651 195.087L339.706 194.758C340.247 193.207 340.781 191.627 341.308 190.019L342.258 190.33ZM338.954 199.804C338.362 201.395 337.763 202.95 337.157 204.466L336.228 204.094C336.831 202.586 337.427 201.039 338.016 199.456L338.954 199.804ZM335.244 209.065C334.562 210.638 333.872 212.16 333.173 213.628L332.27 213.199C332.963 211.742 333.649 210.23 334.326 208.667L335.244 209.065ZM330.917 218.121C330.102 219.655 329.276 221.114 328.44 222.492L327.585 221.973C328.411 220.613 329.227 219.171 330.034 217.652L330.917 218.121ZM325.677 226.688C324.647 228.122 323.6 229.431 322.538 230.605L321.796 229.934C322.83 228.791 323.854 227.512 324.866 226.104L325.677 226.688ZM318.817 234.097C318.13 234.629 317.435 235.104 316.733 235.519L316.224 234.658C316.887 234.266 317.548 233.815 318.205 233.306L318.817 234.097ZM316.733 235.519C316.005 235.95 315.27 236.365 314.529 236.766L314.054 235.886C314.784 235.492 315.507 235.082 316.224 234.658L316.733 235.519ZM309.994 238.994C308.453 239.678 306.888 240.303 305.301 240.867L304.966 239.925C306.529 239.369 308.07 238.754 309.588 238.08L309.994 238.994ZM300.481 242.383C298.861 242.827 297.222 243.213 295.564 243.541L295.37 242.56C297.004 242.236 298.621 241.856 300.217 241.418L300.481 242.383ZM290.578 244.35C288.917 244.562 287.24 244.719 285.55 244.822L285.489 243.824C287.158 243.722 288.813 243.567 290.452 243.358L290.578 244.35ZM280.503 244.971C278.833 244.969 277.151 244.916 275.459 244.814L275.519 243.816C277.192 243.917 278.854 243.969 280.505 243.971L280.503 244.971ZM270.434 244.37C268.777 244.177 267.113 243.939 265.442 243.655L265.609 242.669C267.263 242.95 268.91 243.186 270.549 243.376L270.434 244.37ZM260.495 242.689C258.868 242.33 257.237 241.929 255.602 241.487L255.862 240.522C257.483 240.96 259.099 241.357 260.71 241.712L260.495 242.689ZM250.77 240.066C249.183 239.561 247.594 239.019 246.004 238.439L246.347 237.5C247.924 238.075 249.5 238.613 251.073 239.113L250.77 240.066ZM241.31 236.621C239.769 235.989 238.229 235.323 236.689 234.623L237.103 233.712C238.631 234.407 240.16 235.069 241.689 235.696L241.31 236.621ZM232.145 232.455C230.654 231.711 229.166 230.936 227.68 230.129L228.157 229.25C229.633 230.051 231.111 230.822 232.592 231.56L232.145 232.455ZM223.294 227.652C221.855 226.808 220.42 225.935 218.99 225.034L219.523 224.188C220.945 225.084 222.371 225.951 223.8 226.79L223.294 227.652ZM214.776 222.286C213.395 221.355 212.02 220.398 210.65 219.414L211.233 218.602C212.595 219.58 213.962 220.531 215.335 221.457L214.776 222.286ZM206.608 216.422C205.282 215.41 203.962 214.374 202.65 213.314L203.279 212.536C204.584 213.591 205.896 214.621 207.214 215.627L206.608 216.422ZM198.777 210.095C197.509 209.012 196.248 207.905 194.995 206.776L195.665 206.033C196.911 207.157 198.165 208.257 199.427 209.335L198.777 210.095ZM191.308 203.364C190.098 202.215 188.898 201.046 187.706 199.855L188.413 199.147C189.599 200.332 190.793 201.496 191.996 202.639L191.308 203.364ZM184.191 196.252C183.04 195.042 181.898 193.812 180.766 192.561L181.507 191.89C182.633 193.134 183.77 194.359 184.916 195.563L184.191 196.252ZM177.44 188.799C176.351 187.535 175.271 186.253 174.203 184.953L174.976 184.318C176.039 185.612 177.113 186.888 178.198 188.145L177.44 188.799ZM171.055 181.026C170.025 179.711 169.007 178.378 168 177.028L168.801 176.43C169.804 177.774 170.817 179.101 171.842 180.41L171.055 181.026ZM165.044 172.967C164.558 172.282 164.075 171.594 163.595 170.901L164.417 170.332C164.895 171.021 165.376 171.707 165.86 172.388L165.044 172.967ZM163.595 170.901C163.11 170.201 162.615 169.512 162.112 168.833L162.916 168.237C163.425 168.925 163.926 169.623 164.417 170.332L163.595 170.901ZM158.978 164.871C157.885 163.576 156.758 162.324 155.599 161.114L156.321 160.423C157.494 161.647 158.635 162.914 159.742 164.226L158.978 164.871ZM151.985 157.571C150.739 156.424 149.463 155.32 148.159 154.258L148.79 153.483C150.11 154.557 151.402 155.675 152.662 156.836L151.985 157.571ZM144.141 151.183C142.77 150.197 141.372 149.252 139.95 148.348L140.486 147.504C141.924 148.418 143.338 149.374 144.725 150.372L144.141 151.183ZM135.604 145.753C134.132 144.927 132.637 144.141 131.123 143.395L131.566 142.498C133.095 143.252 134.605 144.046 136.093 144.88L135.604 145.753ZM126.525 141.27C124.975 140.601 123.409 139.969 121.827 139.374L122.179 138.438C123.775 139.039 125.357 139.676 126.921 140.352L126.525 141.27ZM117.044 137.7C115.438 137.178 113.819 136.692 112.19 136.241L112.457 135.277C114.1 135.732 115.733 136.223 117.353 136.749L117.044 137.7ZM107.277 134.989C105.63 134.605 103.976 134.255 102.316 133.937L102.504 132.955C104.176 133.275 105.844 133.628 107.504 134.015L107.277 134.989ZM97.3182 133.08C95.6443 132.825 93.9675 132.602 92.2903 132.41L92.4043 131.416C94.0935 131.61 95.7824 131.834 97.4686 132.091L97.3182 133.08ZM87.2392 131.921C85.5478 131.788 83.8583 131.685 82.1734 131.61L82.2174 130.611C83.9137 130.686 85.6147 130.79 87.3178 130.924L87.2392 131.921ZM77.0998 131.473C75.4003 131.456 73.7079 131.467 72.0253 131.507L72.0021 130.507C73.6957 130.467 75.3992 130.456 77.11 130.473L77.0998 131.473ZM66.956 131.709C65.2559 131.805 63.5689 131.928 61.8978 132.079L61.8083 131.083C63.4904 130.931 65.1884 130.807 66.8996 130.71L66.956 131.709ZM56.8567 132.617C55.1615 132.827 53.4865 133.065 51.8346 133.328L51.6774 132.34C53.3407 132.075 55.0271 131.836 56.7336 131.625L56.8567 132.617ZM46.8369 134.215C45.1533 134.545 43.499 134.902 41.8775 135.285L41.6479 134.312C43.2819 133.926 44.9486 133.566 46.6444 133.233L46.8369 134.215ZM36.967 136.548C35.3077 137.011 33.6905 137.502 32.1197 138.017L31.8079 137.067C33.3933 136.547 35.0248 136.052 36.6979 135.585L36.967 136.548ZM27.3494 139.714C25.724 140.34 24.1615 140.993 22.6676 141.672L22.2539 140.762C23.7667 140.074 25.3474 139.413 26.99 138.781L27.3494 139.714ZM18.1308 143.927C16.5895 144.766 15.1481 145.634 13.8154 146.526L13.2589 145.695C14.6194 144.784 16.0872 143.901 17.6528 143.048L18.1308 143.927ZM9.81545 149.563C9.17017 150.125 8.5674 150.693 8.00881 151.267L7.29218 150.569C7.87142 149.974 8.49443 149.387 9.15901 148.809L9.81545 149.563Z" fill="#C700E1"/>
</svg>
