<svg width="352" height="298" viewBox="0 0 352 298" fill="none" xmlns="http://www.w3.org/2000/svg">
<path d="M297.983 3C297.983 4.47276 299.176 5.66667 300.649 5.66667C302.122 5.66667 303.316 4.47276 303.316 3C303.316 1.52724 302.122 0.333333 300.649 0.333333C299.176 0.333333 297.983 1.52724 297.983 3ZM300.649 137.54L300.37 137.955L300.649 137.54ZM300.649 278.807L300.991 279.172L300.649 278.807ZM0 278.807L4.78058 282.045L5.19378 276.286L0 278.807ZM7.53783 279.89C9.16552 280.027 10.839 280.175 12.556 280.332L12.6471 279.336C10.928 279.179 9.25216 279.031 7.62185 278.894L7.53783 279.89ZM17.6079 280.809C19.2769 280.971 20.9815 281.141 22.7198 281.317L22.8207 280.322C21.0812 280.146 19.3751 279.976 17.7045 279.814L17.6079 280.809ZM27.7174 281.833C29.3883 282.008 31.0866 282.188 32.811 282.373L32.9177 281.379C31.1926 281.194 29.4934 281.014 27.8216 280.838L27.7174 281.833ZM37.8324 282.918C39.5016 283.1 41.1926 283.286 42.9042 283.476L43.0142 282.482C41.3022 282.292 39.6108 282.106 37.9411 281.924L37.8324 282.918ZM47.9429 284.036C49.6131 284.223 51.3009 284.412 53.0053 284.604L53.1169 283.61C51.4123 283.418 49.7243 283.229 48.0539 283.043L47.9429 284.036ZM58.0487 285.171C59.7218 285.359 61.4095 285.549 63.1106 285.74L63.2224 284.746C61.5213 284.555 59.8337 284.365 58.1605 284.177L58.0487 285.171ZM68.1524 286.307C69.8298 286.495 71.5191 286.684 73.2193 286.873L73.3302 285.88C71.6302 285.69 69.9411 285.501 68.2638 285.313L68.1524 286.307ZM78.2573 287.434C79.9393 287.62 81.6308 287.806 83.3312 287.993L83.4402 286.999C81.7402 286.812 80.049 286.626 78.3674 286.44L78.2573 287.434ZM88.366 288.542C90.0518 288.725 91.7454 288.907 93.446 289.089L93.5524 288.095C91.8523 287.913 90.1592 287.731 88.4738 287.548L88.366 288.542ZM98.4796 289.624C100.164 289.801 101.854 289.978 103.549 290.153L103.652 289.159C101.957 288.983 100.268 288.807 98.5844 288.629L98.4796 289.624ZM108.599 290.671C110.282 290.841 111.969 291.011 113.661 291.179L113.759 290.184C112.069 290.016 110.382 289.846 108.7 289.676L108.599 290.671ZM118.722 291.675C120.406 291.838 122.093 291.999 123.782 292.158L123.876 291.162C122.188 291.003 120.502 290.842 118.819 290.679L118.722 291.675ZM128.85 292.628C130.535 292.782 132.223 292.933 133.911 293.082L133.999 292.086C132.312 291.937 130.625 291.786 128.94 291.632L128.85 292.628ZM138.979 293.521C140.668 293.665 142.358 293.806 144.048 293.943L144.129 292.947C142.441 292.809 140.752 292.668 139.063 292.525L138.979 293.521ZM149.114 294.347C150.808 294.478 152.499 294.607 154.19 294.731L154.263 293.734C152.574 293.609 150.884 293.481 149.192 293.35L149.114 294.347ZM159.26 295.095C160.955 295.212 162.646 295.326 164.335 295.436L164.4 294.438C162.713 294.328 161.023 294.215 159.33 294.097L159.26 295.095ZM169.415 295.753C171.108 295.855 172.798 295.952 174.482 296.045L174.537 295.046C172.854 294.954 171.167 294.857 169.475 294.755L169.415 295.753ZM179.576 296.31C181.268 296.393 182.955 296.472 184.635 296.545L184.678 295.545C183 295.473 181.315 295.395 179.625 295.311L179.576 296.31ZM189.741 296.75C191.438 296.812 193.127 296.869 194.807 296.919L194.837 295.92C193.159 295.869 191.472 295.813 189.778 295.75L189.741 296.75ZM199.912 297.054C201.612 297.092 203.304 297.124 204.985 297.149L205 296.149C203.321 296.124 201.632 296.093 199.934 296.054L199.912 297.054ZM210.085 297.201C211.79 297.211 213.484 297.214 215.165 297.208L215.161 296.208C213.484 296.214 211.793 296.211 210.091 296.201L210.085 297.201ZM220.261 297.164C221.97 297.14 223.664 297.107 225.343 297.065L225.318 296.066C223.643 296.108 221.952 296.14 220.247 296.164L220.261 297.164ZM230.438 296.906C232.148 296.842 233.84 296.768 235.514 296.682L235.463 295.683C233.794 295.769 232.106 295.843 230.401 295.907L230.438 296.906ZM240.611 296.383C242.317 296.269 244.002 296.143 245.664 296.004L245.581 295.007C243.925 295.146 242.246 295.272 240.545 295.385L240.611 296.383ZM250.767 295.529C252.462 295.354 254.13 295.164 255.771 294.959L255.647 293.967C254.014 294.171 252.353 294.36 250.664 294.534L250.767 295.529ZM260.877 294.257C262.583 294 264.254 293.724 265.888 293.428L265.71 292.444C264.086 292.738 262.425 293.012 260.728 293.268L260.877 294.257ZM270.883 292.44C272.596 292.07 274.262 291.675 275.88 291.255L275.629 290.287C274.025 290.704 272.372 291.095 270.671 291.463L270.883 292.44ZM280.771 289.86C282.433 289.339 284.034 288.787 285.57 288.201L285.213 287.267C283.698 287.845 282.117 288.391 280.472 288.906L280.771 289.86ZM290.318 286.183C291.923 285.422 293.436 284.614 294.853 283.758L294.336 282.903C292.951 283.74 291.467 284.531 289.89 285.279L290.318 286.183ZM299.078 280.829C299.748 280.293 300.386 279.74 300.991 279.172L300.307 278.443C299.721 278.993 299.103 279.528 298.453 280.048L299.078 280.829ZM300.991 279.172C301.595 278.606 302.2 278.038 302.808 277.469L302.125 276.739C301.517 277.308 300.911 277.876 300.307 278.443L300.991 279.172ZM306.458 274.055C307.671 272.92 308.887 271.78 310.103 270.634L309.417 269.907C308.203 271.051 306.987 272.19 305.774 273.325L306.458 274.055ZM313.731 267.193C314.937 266.041 316.138 264.883 317.331 263.719L316.632 263.004C315.443 264.165 314.244 265.32 313.041 266.47L313.731 267.193ZM320.887 260.2C322.068 259.014 323.236 257.822 324.388 256.623L323.666 255.93C322.52 257.125 321.356 258.313 320.179 259.495L320.887 260.2ZM327.816 252.974C328.951 251.736 330.065 250.491 331.153 249.238L330.398 248.583C329.316 249.828 328.209 251.066 327.079 252.297L327.816 252.974ZM334.378 245.402C335.44 244.094 336.471 242.776 337.465 241.449L336.664 240.85C335.679 242.165 334.656 243.472 333.602 244.771L334.378 245.402ZM340.382 237.365C341.331 235.965 342.236 234.555 343.091 233.134L342.234 232.619C341.389 234.023 340.494 235.418 339.554 236.803L340.382 237.365ZM345.546 228.746C346.323 227.241 347.04 225.724 347.691 224.194L346.771 223.802C346.13 225.309 345.424 226.803 344.657 228.287L345.546 228.746ZM349.465 219.48C349.99 217.876 350.438 216.256 350.802 214.621L349.826 214.404C349.469 216.006 349.03 217.594 348.514 219.169L349.465 219.48ZM351.64 209.648C351.829 207.985 351.929 206.305 351.932 204.61L350.932 204.608C350.929 206.265 350.832 207.908 350.646 209.535L351.64 209.648ZM351.654 199.567C351.47 197.921 351.192 196.261 350.815 194.586L349.839 194.805C350.208 196.445 350.48 198.069 350.66 199.678L351.654 199.567ZM349.453 189.726C348.932 188.174 348.325 186.609 347.627 185.032L346.713 185.437C347.398 186.986 347.994 188.522 348.505 190.044L349.453 189.726ZM345.404 180.528C344.627 179.102 343.775 177.665 342.845 176.218L342.004 176.758C342.921 178.186 343.76 179.602 344.526 181.006L345.404 180.528ZM340.002 172.091C339.037 170.778 338.007 169.457 336.911 168.126L336.139 168.762C337.224 170.079 338.242 171.386 339.196 172.683L340.002 172.091ZM333.595 164.3C332.509 163.105 331.37 161.903 330.175 160.694L329.464 161.397C330.649 162.597 331.779 163.789 332.855 164.973L333.595 164.3ZM326.594 157.205C325.389 156.073 324.136 154.935 322.833 153.79L322.173 154.542C323.468 155.679 324.713 156.81 325.909 157.934L326.594 157.205ZM319.078 150.588C317.813 149.539 316.506 148.485 315.156 147.426L314.539 148.212C315.882 149.267 317.182 150.315 318.44 151.358L319.078 150.588ZM311.198 144.395C309.887 143.414 308.539 142.429 307.154 141.438L306.572 142.252C307.952 143.238 309.294 144.219 310.6 145.196L311.198 144.395ZM303.055 138.57C302.355 138.089 301.646 137.608 300.928 137.125L300.37 137.955C301.086 138.436 301.792 138.916 302.49 139.394L303.055 138.57ZM300.928 137.125C300.209 136.642 299.5 136.159 298.8 135.676L298.232 136.499C298.935 136.984 299.648 137.47 300.37 137.955L300.928 137.125ZM294.711 132.779C293.321 131.768 291.972 130.757 290.662 129.747L290.051 130.538C291.368 131.554 292.725 132.571 294.123 133.588L294.711 132.779ZM286.772 126.654C285.436 125.558 284.146 124.464 282.901 123.372L282.242 124.123C283.495 125.223 284.793 126.325 286.137 127.427L286.772 126.654ZM279.187 119.99C277.954 118.825 276.772 117.663 275.64 116.502L274.924 117.201C276.066 118.371 277.258 119.543 278.5 120.717L279.187 119.99ZM272.189 112.805C271.047 111.523 269.964 110.245 268.938 108.97L268.159 109.596C269.196 110.885 270.29 112.176 271.443 113.471L272.189 112.805ZM265.91 104.985C264.917 103.598 263.99 102.215 263.128 100.838L262.281 101.369C263.154 102.764 264.092 104.164 265.097 105.567L265.91 104.985ZM260.625 96.5192C259.819 95.0097 259.09 93.5074 258.434 92.013L257.518 92.415C258.185 93.9333 258.926 95.4586 259.743 96.99L260.625 96.5192ZM256.613 87.3521C256.061 85.744 255.593 84.1458 255.204 82.5583L254.233 82.7964C254.629 84.4133 255.106 86.0403 255.667 87.6763L256.613 87.3521ZM254.245 77.6595C254 75.9904 253.84 74.3342 253.762 72.6917L252.763 72.7394C252.843 74.4144 253.006 76.1032 253.255 77.8046L254.245 77.6595ZM253.77 67.6961C253.856 66.0238 254.023 64.3669 254.267 62.7266L253.278 62.5794C253.029 64.251 252.859 65.94 252.772 67.6452L253.77 67.6961ZM255.232 57.8259C255.628 56.209 256.098 54.6098 256.635 53.0294L255.688 52.7075C255.142 54.3145 254.664 55.9416 254.261 57.5877L255.232 57.8259ZM258.437 48.364C259.097 46.8389 259.819 45.3333 260.597 43.8483L259.712 43.3841C258.922 44.8901 258.19 46.418 257.52 47.9668L258.437 48.364ZM263.074 39.4934C263.944 38.0757 264.864 36.6791 265.829 35.3046L265.011 34.73C264.034 36.1206 263.103 37.5344 262.222 38.9703L263.074 39.4934ZM268.828 31.2831C269.861 29.9749 270.933 28.6892 272.04 27.4271L271.288 26.7677C270.17 28.0422 269.087 29.3411 268.043 30.6633L268.828 31.2831ZM275.44 23.7339C276.6 22.5309 277.79 21.352 279.006 20.1983L278.317 19.4731C277.092 20.6365 275.891 21.8257 274.72 23.0396L275.44 23.7339ZM282.72 16.816C283.984 15.7119 285.268 14.634 286.568 13.5834L285.94 12.8055C284.63 13.864 283.336 14.9502 282.062 16.0631L282.72 16.816ZM290.537 10.4977C291.886 9.48812 293.247 8.50765 294.616 7.55735L294.045 6.73592C292.667 7.69286 291.296 8.68028 289.938 9.69716L290.537 10.4977ZM298.796 4.76212C299.501 4.30821 300.207 3.86246 300.913 3.42502L300.386 2.57498C299.675 3.01544 298.964 3.46426 298.254 3.9213L298.796 4.76212Z" fill="#C700E1"/>
</svg>
