<svg width="132" height="135" viewBox="0 0 132 135" fill="none" xmlns="http://www.w3.org/2000/svg">
<path d="M66.001 132C102.452 132 132.001 102.451 132.001 66C132.001 29.5492 102.452 0 66.001 0C29.5502 0 0.000976562 29.5492 0.000976562 66C0.000976562 102.451 29.5502 132 66.001 132Z" fill="#F7E9FF"/>
<g filter="url(#filter0_d_3203_14924)">
<mask id="mask0_3203_14924" style="mask-type:alpha" maskUnits="userSpaceOnUse" x="0" y="0" width="133" height="132">
<path d="M66.001 132C102.452 132 132.001 102.451 132.001 66C132.001 29.5492 102.452 0 66.001 0C29.5502 0 0.000976562 29.5492 0.000976562 66C0.000976562 102.451 29.5502 132 66.001 132Z" fill="url(#paint0_linear_3203_14924)"/>
</mask>
<g mask="url(#mask0_3203_14924)">
<path d="M103.841 37.8398H28.1607C25.7307 37.8398 23.7607 39.8098 23.7607 42.2398V134.64C23.7607 137.07 25.7307 139.04 28.1607 139.04H103.841C106.271 139.04 108.241 137.07 108.241 134.64V42.2398C108.241 39.8098 106.271 37.8398 103.841 37.8398Z" fill="white"/>
</g>
</g>
<path d="M58.081 46.6406H35.201C33.743 46.6406 32.561 47.8226 32.561 49.2806C32.561 50.7387 33.743 51.9206 35.201 51.9206H58.081C59.5391 51.9206 60.721 50.7387 60.721 49.2806C60.721 47.8226 59.5391 46.6406 58.081 46.6406Z" fill="#F7E9FF"/>
<path d="M58.081 83.5996H35.201C33.743 83.5996 32.561 84.7816 32.561 86.2396C32.561 87.6976 33.743 88.8796 35.201 88.8796H58.081C59.5391 88.8796 60.721 87.6976 60.721 86.2396C60.721 84.7816 59.5391 83.5996 58.081 83.5996Z" fill="#F7E9FF"/>
<path d="M95.0424 59.8418H36.9624C35.0183 59.8418 33.4424 61.4178 33.4424 63.3618V72.1618C33.4424 74.1058 35.0183 75.6818 36.9624 75.6818H95.0424C96.9864 75.6818 98.5624 74.1058 98.5624 72.1618V63.3618C98.5624 61.4178 96.9864 59.8418 95.0424 59.8418Z" stroke="#BF1EE1" stroke-width="2"/>
<path d="M95.041 95.9199H36.961C34.531 95.9199 32.561 97.8899 32.561 100.32V107.36C32.561 109.79 34.531 111.76 36.961 111.76H95.041C97.4711 111.76 99.441 109.79 99.441 107.36V100.32C99.441 97.8899 97.4711 95.9199 95.041 95.9199Z" fill="#F0DFF8"/>
<path d="M46.6401 28.1591C48.5842 28.1591 50.1601 26.5832 50.1601 24.6391C50.1601 22.6951 48.5842 21.1191 46.6401 21.1191C44.6961 21.1191 43.1201 22.6951 43.1201 24.6391C43.1201 26.5832 44.6961 28.1591 46.6401 28.1591Z" fill="white"/>
<path d="M66 28.1591C67.944 28.1591 69.52 26.5832 69.52 24.6391C69.52 22.6951 67.944 21.1191 66 21.1191C64.0559 21.1191 62.48 22.6951 62.48 24.6391C62.48 26.5832 64.0559 28.1591 66 28.1591Z" fill="#BF1EE1"/>
<path d="M85.3603 28.1591C87.3044 28.1591 88.8803 26.5832 88.8803 24.6391C88.8803 22.6951 87.3044 21.1191 85.3603 21.1191C83.4163 21.1191 81.8403 22.6951 81.8403 24.6391C81.8403 26.5832 83.4163 28.1591 85.3603 28.1591Z" fill="white"/>
<path d="M75.6803 77.4406C78.1103 77.4406 80.0803 75.4707 80.0803 73.0406C80.0803 70.6106 78.1103 68.6406 75.6803 68.6406C73.2502 68.6406 71.2803 70.6106 71.2803 73.0406C71.2803 75.4707 73.2502 77.4406 75.6803 77.4406Z" fill="#F0DFF8"/>
<path d="M79.1168 91.8465C78.4128 91.8465 77.7554 91.8465 77.157 91.8086C76.42 91.7588 75.7109 91.5066 75.1079 91.0798C74.5049 90.653 74.0312 90.0681 73.7391 89.3895L70.0264 82.0521C69.7541 81.735 69.6181 81.3232 69.6481 80.9063C69.6781 80.4895 69.8717 80.1014 70.1866 79.8266C70.4446 79.6192 70.7664 79.5076 71.0974 79.5106C71.341 79.5177 71.5803 79.5776 71.7986 79.686C72.0169 79.7945 72.2091 79.949 72.3619 80.139L74.048 82.4402L74.0735 82.4701V73.7273C74.0735 73.2935 74.2458 72.8775 74.5525 72.5708C74.8593 72.2641 75.2753 72.0918 75.709 72.0918C76.1428 72.0918 76.5588 72.2641 76.8655 72.5708C77.1722 72.8775 77.3445 73.2935 77.3445 73.7273V79.4473C77.3255 79.2368 77.3506 79.0247 77.4181 78.8244C77.4856 78.6241 77.5941 78.4401 77.7367 78.2841C77.8792 78.1281 78.0527 78.0035 78.2461 77.9183C78.4395 77.833 78.6485 77.789 78.8598 77.789C79.0712 77.789 79.2802 77.833 79.4736 77.9183C79.667 78.0035 79.8405 78.1281 79.983 78.2841C80.1256 78.4401 80.2341 78.6241 80.3016 78.8244C80.3691 79.0247 80.3942 79.2368 80.3752 79.4473V80.6397C80.3562 80.4292 80.3813 80.2171 80.4488 80.0168C80.5163 79.8165 80.6248 79.6325 80.7674 79.4765C80.9099 79.3205 81.0834 79.1959 81.2768 79.1107C81.4702 79.0254 81.6792 78.9814 81.8906 78.9814C82.1019 78.9814 82.3109 79.0254 82.5043 79.1107C82.6977 79.1959 82.8712 79.3205 83.0138 79.4765C83.1563 79.6325 83.2648 79.8165 83.3323 80.0168C83.3999 80.2171 83.4249 80.4292 83.4059 80.6397V81.5584C83.3869 81.3479 83.412 81.1358 83.4795 80.9355C83.547 80.7353 83.6555 80.5513 83.7981 80.3952C83.9407 80.2392 84.1142 80.1146 84.3075 80.0294C84.5009 79.9441 84.7099 79.9001 84.9213 79.9001C85.1326 79.9001 85.3416 79.9441 85.535 80.0294C85.7284 80.1146 85.9019 80.2392 86.0445 80.3952C86.187 80.5513 86.2955 80.7353 86.3631 80.9355C86.4306 81.1358 86.4556 81.3479 86.4366 81.5584V87.135C86.4067 88.8501 85.6314 91.7418 82.9043 91.7418C82.7063 91.7506 81.029 91.8474 79.1203 91.8474L79.1168 91.8465Z" fill="#BF1EE1" stroke="white"/>
<defs>
<filter id="filter0_d_3203_14924" x="17.7607" y="28.8398" width="96.48" height="106.16" filterUnits="userSpaceOnUse" color-interpolation-filters="sRGB">
<feFlood flood-opacity="0" result="BackgroundImageFix"/>
<feColorMatrix in="SourceAlpha" type="matrix" values="0 0 0 0 0 0 0 0 0 0 0 0 0 0 0 0 0 0 127 0" result="hardAlpha"/>
<feOffset dy="-3"/>
<feGaussianBlur stdDeviation="3"/>
<feColorMatrix type="matrix" values="0 0 0 0 0.788235 0 0 0 0 0.803922 0 0 0 0 0.85098 0 0 0 0.349 0"/>
<feBlend mode="normal" in2="BackgroundImageFix" result="effect1_dropShadow_3203_14924"/>
<feBlend mode="normal" in="SourceGraphic" in2="effect1_dropShadow_3203_14924" result="shape"/>
</filter>
<linearGradient id="paint0_linear_3203_14924" x1="66.001" y1="0" x2="66.001" y2="132" gradientUnits="userSpaceOnUse">
<stop stop-color="#E3ECFA"/>
<stop offset="1" stop-color="#DAE7FF"/>
</linearGradient>
</defs>
</svg>
